<?xml version="1.0" encoding="UTF-8" standalone="no"?>
<!DOCTYPE svg PUBLIC "-//W3C//DTD SVG 1.1//EN"
 "http://www.w3.org/Graphics/SVG/1.1/DTD/svg11.dtd">
<!-- Generated by graphviz version 12.1.2 (20240928.0832)
 -->
<!-- Title: audit_logs Pages: 1 -->
<svg width="268pt" height="382pt"
 viewBox="0.00 0.00 267.69 382.40" xmlns="http://www.w3.org/2000/svg" xmlns:xlink="http://www.w3.org/1999/xlink">
<g id="graph0" class="graph" transform="scale(1 1) rotate(0) translate(4 378.4)">
<title>audit_logs</title>
<polygon fill="white" stroke="none" points="-4,4 -4,-378.4 263.69,-378.4 263.69,4 -4,4"/>
<!-- audit_logs -->
<g id="node1" class="node">
<title>audit_logs</title>
<polygon fill="#efefef" stroke="none" points="46.2,-292.6 46.2,-328.2 213.49,-328.2 213.49,-292.6 46.2,-292.6"/>
<polygon fill="none" stroke="black" points="46.2,-292.6 46.2,-328.2 213.49,-328.2 213.49,-292.6 46.2,-292.6"/>
<text text-anchor="start" x="57.72" y="-306" font-family="Arial Bold" font-size="18.00">audit_logs</text>
<text text-anchor="start" x="132.72" y="-306" font-family="Arial" font-size="14.00">    </text>
<text text-anchor="start" x="163.83" y="-306" font-family="Arial" font-size="14.00" fill="#666666">[table]</text>
<polygon fill="none" stroke="black" points="46.2,-261.8 46.2,-292.6 213.49,-292.6 213.49,-261.8 46.2,-261.8"/>
<text text-anchor="start" x="53.2" y="-274" font-family="Arial" font-size="14.00">id </text>
<text text-anchor="start" x="67.99" y="-274" font-family="Arial" font-size="14.00" fill="#666666">[VARCHAR]</text>
<polygon fill="none" stroke="black" points="46.2,-231 46.2,-261.8 213.49,-261.8 213.49,-231 46.2,-231"/>
<text text-anchor="start" x="53.2" y="-243.2" font-family="Arial" font-size="14.00">action </text>
<text text-anchor="start" x="94.45" y="-243.2" font-family="Arial" font-size="14.00" fill="#666666">[VARCHAR]</text>
<polygon fill="none" stroke="black" points="46.2,-200.2 46.2,-231 213.49,-231 213.49,-200.2 46.2,-200.2"/>
<text text-anchor="start" x="53.2" y="-212.4" font-family="Arial" font-size="14.00">table_name </text>
<text text-anchor="start" x="130.25" y="-212.4" font-family="Arial" font-size="14.00" fill="#666666">[VARCHAR]</text>
<polygon fill="none" stroke="black" points="46.2,-169.4 46.2,-200.2 213.49,-200.2 213.49,-169.4 46.2,-169.4"/>
<text text-anchor="start" x="53.2" y="-181.6" font-family="Arial" font-size="14.00">record_id </text>
<text text-anchor="start" x="115.45" y="-181.6" font-family="Arial" font-size="14.00" fill="#666666">[VARCHAR]</text>
<polygon fill="none" stroke="black" points="46.2,-138.6 46.2,-169.4 213.49,-169.4 213.49,-138.6 46.2,-138.6"/>
<text text-anchor="start" x="53.2" y="-150.8" font-family="Arial" font-size="14.00">old_data </text>
<text text-anchor="start" x="110.81" y="-150.8" font-family="Arial" font-size="14.00" fill="#666666">[JSON]</text>
<polygon fill="none" stroke="black" points="46.2,-107.8 46.2,-138.6 213.49,-138.6 213.49,-107.8 46.2,-107.8"/>
<text text-anchor="start" x="53.2" y="-120" font-family="Arial" font-size="14.00">new_data </text>
<text text-anchor="start" x="117.81" y="-120" font-family="Arial" font-size="14.00" fill="#666666">[JSON]</text>
<polygon fill="none" stroke="black" points="46.2,-77 46.2,-107.8 213.49,-107.8 213.49,-77 46.2,-77"/>
<text text-anchor="start" x="53.2" y="-89.2" font-family="Arial" font-size="14.00">user_id </text>
<text text-anchor="start" x="103.01" y="-89.2" font-family="Arial" font-size="14.00" fill="#666666">[INTEGER]</text>
<polygon fill="none" stroke="black" points="46.2,-46.2 46.2,-77 213.49,-77 213.49,-46.2 46.2,-46.2"/>
<text text-anchor="start" x="53.2" y="-58.4" font-family="Arial" font-size="14.00">timestamp </text>
<text text-anchor="start" x="121.66" y="-58.4" font-family="Arial" font-size="14.00" fill="#666666">[DATETIME]</text>
<polygon fill="none" stroke="black" stroke-width="3" points="44.7,-44.7 44.7,-329.7 214.99,-329.7 214.99,-44.7 44.7,-44.7"/>
</g>
</g>
</svg>
