<?xml version="1.0" encoding="UTF-8" standalone="no"?>
<!DOCTYPE svg PUBLIC "-//W3C//DTD SVG 1.1//EN"
 "http://www.w3.org/Graphics/SVG/1.1/DTD/svg11.dtd">
<!-- Generated by graphviz version 12.1.2 (20240928.0832)
 -->
<!-- Title: categories Pages: 1 -->
<svg width="520pt" height="602pt"
 viewBox="0.00 0.00 520.38 602.00" xmlns="http://www.w3.org/2000/svg" xmlns:xlink="http://www.w3.org/1999/xlink">
<g id="graph0" class="graph" transform="scale(1 1) rotate(0) translate(4 598)">
<title>categories</title>
<polygon fill="white" stroke="none" points="-4,4 -4,-598 516.38,-598 516.38,4 -4,4"/>
<!-- categories -->
<g id="node1" class="node">
<title>categories</title>
<polygon fill="#efefef" stroke="none" points="59.9,-231 59.9,-266.6 221.72,-266.6 221.72,-231 59.9,-231"/>
<polygon fill="none" stroke="black" points="59.9,-231 59.9,-266.6 221.72,-266.6 221.72,-231 59.9,-231"/>
<text text-anchor="start" x="69.7" y="-244.4" font-family="Arial Bold" font-size="18.00">categories</text>
<text text-anchor="start" x="142.66" y="-244.4" font-family="Arial" font-size="14.00">    </text>
<text text-anchor="start" x="173.78" y="-244.4" font-family="Arial" font-size="14.00" fill="#666666">[table]</text>
<polygon fill="none" stroke="black" points="59.9,-200.2 59.9,-231 221.72,-231 221.72,-200.2 59.9,-200.2"/>
<text text-anchor="start" x="66.9" y="-212.4" font-family="Arial" font-size="14.00">id </text>
<text text-anchor="start" x="81.68" y="-212.4" font-family="Arial" font-size="14.00" fill="#666666">[INTEGER]</text>
<polygon fill="none" stroke="black" points="59.9,-169.4 59.9,-200.2 221.72,-200.2 221.72,-169.4 59.9,-169.4"/>
<text text-anchor="start" x="66.9" y="-181.6" font-family="Arial" font-size="14.00">name </text>
<text text-anchor="start" x="105.81" y="-181.6" font-family="Arial" font-size="14.00" fill="#666666">[VARCHAR]</text>
<polygon fill="none" stroke="black" points="59.9,-138.6 59.9,-169.4 221.72,-169.4 221.72,-138.6 59.9,-138.6"/>
<text text-anchor="start" x="66.9" y="-150.8" font-family="Arial" font-size="14.00">slug </text>
<text text-anchor="start" x="96.47" y="-150.8" font-family="Arial" font-size="14.00" fill="#666666">[VARCHAR]</text>
<polygon fill="none" stroke="black" points="59.9,-107.8 59.9,-138.6 221.72,-138.6 221.72,-107.8 59.9,-107.8"/>
<text text-anchor="start" x="66.9" y="-120" font-family="Arial" font-size="14.00">description </text>
<text text-anchor="start" x="138.49" y="-120" font-family="Arial" font-size="14.00" fill="#666666">[VARCHAR]</text>
<polygon fill="none" stroke="black" points="59.9,-77 59.9,-107.8 221.72,-107.8 221.72,-77 59.9,-77"/>
<text text-anchor="start" x="66.9" y="-89.2" font-family="Arial" font-size="14.00">color </text>
<text text-anchor="start" x="101.13" y="-89.2" font-family="Arial" font-size="14.00" fill="#666666">[VARCHAR]</text>
<polygon fill="none" stroke="black" points="59.9,-46.2 59.9,-77 221.72,-77 221.72,-46.2 59.9,-46.2"/>
<text text-anchor="start" x="66.9" y="-58.4" font-family="Arial" font-size="14.00">parent_id </text>
<text text-anchor="start" x="129.16" y="-58.4" font-family="Arial" font-size="14.00" fill="#666666">[INTEGER]</text>
<polygon fill="none" stroke="black" stroke-width="3" points="58.4,-44.7 58.4,-268.1 223.22,-268.1 223.22,-44.7 58.4,-44.7"/>
</g>
<!-- categories&#45;&gt;categories -->
<g id="edge1" class="edge">
<title>categories:parent_id&#45;&gt;categories:id</title>
<path fill="none" stroke="black" d="M142.61,-87.1C149.76,-208.43 149.16,-470.3 140.81,-470.3 132.24,-470.3 131.83,-334.25 139.58,-230.91"/>
<polygon fill="black" stroke="black" points="142.62,-87.18 146.48,-76.91 142.28,-81.85 142.01,-77.53 142.01,-77.53 142.01,-77.53 142.28,-81.85 137.5,-77.48 142.62,-87.18"/>
<text text-anchor="start" x="148.97" y="-86.86" font-family="Arial" font-size="10.00">FOREIGN KEY (parentId) REFERENCES categories(id)</text>
</g>
<!-- post_categories -->
<g id="node2" class="node">
<title>post_categories</title>
<polygon fill="#efefef" stroke="none" points="43.2,-515.2 43.2,-550.8 238.42,-550.8 238.42,-515.2 43.2,-515.2"/>
<polygon fill="none" stroke="black" points="43.2,-515.2 43.2,-550.8 238.42,-550.8 238.42,-515.2 43.2,-515.2"/>
<text text-anchor="start" x="50.2" y="-528.6" font-family="Arial Bold" font-size="18.00">post_categories</text>
<text text-anchor="start" x="162.16" y="-528.6" font-family="Arial" font-size="14.00">    </text>
<text text-anchor="start" x="193.28" y="-528.6" font-family="Arial" font-size="14.00" fill="#666666">[table]</text>
<polygon fill="none" stroke="black" points="43.2,-484.4 43.2,-515.2 238.42,-515.2 238.42,-484.4 43.2,-484.4"/>
<text text-anchor="start" x="50.2" y="-496.6" font-family="Arial" font-size="14.00">post_id </text>
<text text-anchor="start" x="99.23" y="-496.6" font-family="Arial" font-size="14.00" fill="#666666">[INTEGER]</text>
<polygon fill="none" stroke="black" points="43.2,-453.6 43.2,-484.4 238.42,-484.4 238.42,-453.6 43.2,-453.6"/>
<text text-anchor="start" x="50.2" y="-465.8" font-family="Arial" font-size="14.00">category_id </text>
<text text-anchor="start" x="126.47" y="-465.8" font-family="Arial" font-size="14.00" fill="#666666">[INTEGER]</text>
<polygon fill="none" stroke="black" points="43.2,-422.8 43.2,-453.6 238.42,-453.6 238.42,-422.8 43.2,-422.8"/>
<text text-anchor="start" x="50.2" y="-435" font-family="Arial" font-size="14.00">is_primary </text>
<text text-anchor="start" x="118.66" y="-435" font-family="Arial" font-size="14.00" fill="#666666">[BOOLEAN]</text>
<polygon fill="none" stroke="black" points="43.2,-392 43.2,-422.8 238.42,-422.8 238.42,-392 43.2,-392"/>
<text text-anchor="start" x="50.2" y="-404.2" font-family="Arial" font-size="14.00">added_at </text>
<text text-anchor="start" x="112.48" y="-404.2" font-family="Arial" font-size="14.00" fill="#666666">[DATETIME]</text>
</g>
<!-- post_categories&#45;&gt;categories -->
<g id="edge2" class="edge">
<title>post_categories:category_id&#45;&gt;categories:id</title>
<path fill="none" stroke="black" d="M249.15,-466.15C293.61,-438.31 275.63,-215.6 222.72,-215.6"/>
<polygon fill="black" stroke="black" points="249.34,-466.1 238.48,-464.59 244.22,-467.6 240.06,-468.81 240.06,-468.81 240.06,-468.81 244.22,-467.6 241,-473.23 249.34,-466.1"/>
<text text-anchor="start" x="246.42" y="-479" font-family="Arial" font-size="10.00">FOREIGN KEY (categoryId) REFERENCES categories(id)</text>
</g>
</g>
</svg>
