<?xml version="1.0" encoding="UTF-8" standalone="no"?>
<!DOCTYPE svg PUBLIC "-//W3C//DTD SVG 1.1//EN"
 "http://www.w3.org/Graphics/SVG/1.1/DTD/svg11.dtd">
<!-- Generated by graphviz version 12.1.2 (20240928.0832)
 -->
<!-- Title: comments Pages: 1 -->
<svg width="649pt" height="1106pt"
 viewBox="0.00 0.00 649.06 1106.00" xmlns="http://www.w3.org/2000/svg" xmlns:xlink="http://www.w3.org/1999/xlink">
<g id="graph0" class="graph" transform="scale(1 1) rotate(0) translate(4 1102)">
<title>comments</title>
<polygon fill="white" stroke="none" points="-4,4 -4,-1102 645.06,-1102 645.06,4 -4,4"/>
<!-- comments -->
<g id="node1" class="node">
<title>comments</title>
<polygon fill="#efefef" stroke="none" points="232.27,-789.4 232.27,-825 398.79,-825 398.79,-789.4 232.27,-789.4"/>
<polygon fill="none" stroke="black" points="232.27,-789.4 232.27,-825 398.79,-825 398.79,-789.4 232.27,-789.4"/>
<text text-anchor="start" x="243.91" y="-802.8" font-family="Arial Bold" font-size="18.00">comments</text>
<text text-anchor="start" x="317.89" y="-802.8" font-family="Arial" font-size="14.00">    </text>
<text text-anchor="start" x="349.01" y="-802.8" font-family="Arial" font-size="14.00" fill="#666666">[table]</text>
<polygon fill="none" stroke="black" points="232.27,-758.6 232.27,-789.4 398.79,-789.4 398.79,-758.6 232.27,-758.6"/>
<text text-anchor="start" x="239.27" y="-770.8" font-family="Arial" font-size="14.00">id </text>
<text text-anchor="start" x="254.06" y="-770.8" font-family="Arial" font-size="14.00" fill="#666666">[INTEGER]</text>
<polygon fill="none" stroke="black" points="232.27,-727.8 232.27,-758.6 398.79,-758.6 398.79,-727.8 232.27,-727.8"/>
<text text-anchor="start" x="239.27" y="-740" font-family="Arial" font-size="14.00">content </text>
<text text-anchor="start" x="289.08" y="-740" font-family="Arial" font-size="14.00" fill="#666666">[VARCHAR]</text>
<polygon fill="none" stroke="black" points="232.27,-697 232.27,-727.8 398.79,-727.8 398.79,-697 232.27,-697"/>
<text text-anchor="start" x="239.27" y="-709.2" font-family="Arial" font-size="14.00">post_id </text>
<text text-anchor="start" x="288.3" y="-709.2" font-family="Arial" font-size="14.00" fill="#666666">[INTEGER]</text>
<polygon fill="none" stroke="black" points="232.27,-666.2 232.27,-697 398.79,-697 398.79,-666.2 232.27,-666.2"/>
<text text-anchor="start" x="239.27" y="-678.4" font-family="Arial" font-size="14.00">author_id </text>
<text text-anchor="start" x="301.54" y="-678.4" font-family="Arial" font-size="14.00" fill="#666666">[INTEGER]</text>
<polygon fill="none" stroke="black" points="232.27,-635.4 232.27,-666.2 398.79,-666.2 398.79,-635.4 232.27,-635.4"/>
<text text-anchor="start" x="239.27" y="-647.6" font-family="Arial" font-size="14.00">parent_id </text>
<text text-anchor="start" x="301.54" y="-647.6" font-family="Arial" font-size="14.00" fill="#666666">[INTEGER]</text>
<polygon fill="none" stroke="black" points="232.27,-604.6 232.27,-635.4 398.79,-635.4 398.79,-604.6 232.27,-604.6"/>
<text text-anchor="start" x="239.27" y="-616.8" font-family="Arial" font-size="14.00">is_edited </text>
<text text-anchor="start" x="299.2" y="-616.8" font-family="Arial" font-size="14.00" fill="#666666">[BOOLEAN]</text>
<polygon fill="none" stroke="black" points="232.27,-573.8 232.27,-604.6 398.79,-604.6 398.79,-573.8 232.27,-573.8"/>
<text text-anchor="start" x="239.27" y="-586" font-family="Arial" font-size="14.00">created_at </text>
<text text-anchor="start" x="309.32" y="-586" font-family="Arial" font-size="14.00" fill="#666666">[DATETIME]</text>
<polygon fill="none" stroke="black" points="232.27,-543 232.27,-573.8 398.79,-573.8 398.79,-543 232.27,-543"/>
<text text-anchor="start" x="239.27" y="-555.2" font-family="Arial" font-size="14.00">updated_at </text>
<text text-anchor="start" x="313.23" y="-555.2" font-family="Arial" font-size="14.00" fill="#666666">[DATETIME]</text>
<polygon fill="none" stroke="black" stroke-width="3" points="230.77,-541.5 230.77,-826.5 400.29,-826.5 400.29,-541.5 230.77,-541.5"/>
</g>
<!-- comments&#45;&gt;comments -->
<g id="edge1" class="edge">
<title>comments:parent_id&#45;&gt;comments:id</title>
<path fill="none" stroke="black" d="M317,-676.34C324.5,-823.49 324.01,-1098 315.53,-1098 306.85,-1098 306.54,-925.2 314.59,-789.14"/>
<polygon fill="black" stroke="black" points="317,-676.29 320.96,-666.06 316.71,-670.96 316.48,-666.64 316.48,-666.64 316.48,-666.64 316.71,-670.96 311.97,-666.54 317,-676.29"/>
<text text-anchor="start" x="60.5" y="-675.97" font-family="Arial" font-size="10.00">FOREIGN KEY (parentId) REFERENCES comments(id)</text>
</g>
<!-- posts -->
<g id="node2" class="node">
<title>posts</title>
<polygon fill="#efefef" stroke="none" points="87.6,-382 87.6,-417.6 263.45,-417.6 263.45,-382 87.6,-382"/>
<polygon fill="none" stroke="black" points="87.6,-382 87.6,-417.6 263.45,-417.6 263.45,-382 87.6,-382"/>
<text text-anchor="start" x="122.4" y="-395.4" font-family="Arial Bold" font-size="18.00">posts</text>
<text text-anchor="start" x="159.41" y="-395.4" font-family="Arial" font-size="14.00">    </text>
<text text-anchor="start" x="190.52" y="-395.4" font-family="Arial" font-size="14.00" fill="#666666">[table]</text>
<polygon fill="none" stroke="black" points="87.6,-351.2 87.6,-382 263.45,-382 263.45,-351.2 87.6,-351.2"/>
<text text-anchor="start" x="94.6" y="-363.4" font-family="Arial" font-size="14.00">id </text>
<text text-anchor="start" x="109.39" y="-363.4" font-family="Arial" font-size="14.00" fill="#666666">[INTEGER]</text>
<polygon fill="none" stroke="black" points="87.6,-320.4 87.6,-351.2 263.45,-351.2 263.45,-320.4 87.6,-320.4"/>
<text text-anchor="start" x="94.6" y="-332.6" font-family="Arial" font-size="14.00">title </text>
<text text-anchor="start" x="120.28" y="-332.6" font-family="Arial" font-size="14.00" fill="#666666">[VARCHAR]</text>
<polygon fill="none" stroke="black" points="87.6,-289.6 87.6,-320.4 263.45,-320.4 263.45,-289.6 87.6,-289.6"/>
<text text-anchor="start" x="94.6" y="-301.8" font-family="Arial" font-size="14.00">slug </text>
<text text-anchor="start" x="124.18" y="-301.8" font-family="Arial" font-size="14.00" fill="#666666">[VARCHAR]</text>
<polygon fill="none" stroke="black" points="87.6,-258.8 87.6,-289.6 263.45,-289.6 263.45,-258.8 87.6,-258.8"/>
<text text-anchor="start" x="94.6" y="-271" font-family="Arial" font-size="14.00">content </text>
<text text-anchor="start" x="144.42" y="-271" font-family="Arial" font-size="14.00" fill="#666666">[VARCHAR]</text>
<polygon fill="none" stroke="black" points="87.6,-228 87.6,-258.8 263.45,-258.8 263.45,-228 87.6,-228"/>
<text text-anchor="start" x="94.6" y="-240.2" font-family="Arial" font-size="14.00">excerpt </text>
<text text-anchor="start" x="144.4" y="-240.2" font-family="Arial" font-size="14.00" fill="#666666">[VARCHAR]</text>
<polygon fill="none" stroke="black" points="87.6,-197.2 87.6,-228 263.45,-228 263.45,-197.2 87.6,-197.2"/>
<text text-anchor="start" x="94.6" y="-209.4" font-family="Arial" font-size="14.00">status </text>
<text text-anchor="start" x="135.85" y="-209.4" font-family="Arial" font-size="14.00" fill="#666666">[PostStatus]</text>
<polygon fill="none" stroke="black" points="87.6,-166.4 87.6,-197.2 263.45,-197.2 263.45,-166.4 87.6,-166.4"/>
<text text-anchor="start" x="94.6" y="-178.6" font-family="Arial" font-size="14.00">published_at </text>
<text text-anchor="start" x="177.89" y="-178.6" font-family="Arial" font-size="14.00" fill="#666666">[DATETIME]</text>
<polygon fill="none" stroke="black" points="87.6,-135.6 87.6,-166.4 263.45,-166.4 263.45,-135.6 87.6,-135.6"/>
<text text-anchor="start" x="94.6" y="-147.8" font-family="Arial" font-size="14.00">author_id </text>
<text text-anchor="start" x="156.87" y="-147.8" font-family="Arial" font-size="14.00" fill="#666666">[INTEGER]</text>
<polygon fill="none" stroke="black" points="87.6,-104.8 87.6,-135.6 263.45,-135.6 263.45,-104.8 87.6,-104.8"/>
<text text-anchor="start" x="94.6" y="-117" font-family="Arial" font-size="14.00">view_count </text>
<text text-anchor="start" x="168.54" y="-117" font-family="Arial" font-size="14.00" fill="#666666">[INTEGER]</text>
<polygon fill="none" stroke="black" points="87.6,-74 87.6,-104.8 263.45,-104.8 263.45,-74 87.6,-74"/>
<text text-anchor="start" x="94.6" y="-86.2" font-family="Arial" font-size="14.00">created_at </text>
<text text-anchor="start" x="164.65" y="-86.2" font-family="Arial" font-size="14.00" fill="#666666">[DATETIME]</text>
<polygon fill="none" stroke="black" points="87.6,-43.2 87.6,-74 263.45,-74 263.45,-43.2 87.6,-43.2"/>
<text text-anchor="start" x="94.6" y="-55.4" font-family="Arial" font-size="14.00">updated_at </text>
<text text-anchor="start" x="168.56" y="-55.4" font-family="Arial" font-size="14.00" fill="#666666">[DATETIME]</text>
</g>
<!-- comments&#45;&gt;posts -->
<g id="edge2" class="edge">
<title>comments:post_id&#45;&gt;posts:id</title>
<path fill="none" stroke="black" d="M221.25,-711.89C140.09,-703.11 199.83,-583.18 232.27,-496.8 239.71,-476.98 255.95,-480.59 263.45,-460.8 278.29,-421.65 306.32,-366.6 264.45,-366.6"/>
<polygon fill="black" stroke="black" points="220.95,-711.87 230.71,-716.88 226.28,-712.14 230.6,-712.37 230.6,-712.37 230.6,-712.37 226.28,-712.14 231.17,-707.89 220.95,-711.87"/>
<text text-anchor="start" x="7" y="-722.4" font-family="Arial" font-size="10.00">FOREIGN KEY (postId) REFERENCES posts(id)</text>
</g>
<!-- users -->
<g id="node3" class="node">
<title>users</title>
<polygon fill="#efefef" stroke="none" points="367.44,-351.2 367.44,-386.8 545.62,-386.8 545.62,-351.2 367.44,-351.2"/>
<polygon fill="none" stroke="black" points="367.44,-351.2 367.44,-386.8 545.62,-386.8 545.62,-351.2 367.44,-351.2"/>
<text text-anchor="start" x="403.4" y="-364.6" font-family="Arial Bold" font-size="18.00">users</text>
<text text-anchor="start" x="440.4" y="-364.6" font-family="Arial" font-size="14.00">    </text>
<text text-anchor="start" x="471.52" y="-364.6" font-family="Arial" font-size="14.00" fill="#666666">[table]</text>
<polygon fill="none" stroke="black" points="367.44,-320.4 367.44,-351.2 545.62,-351.2 545.62,-320.4 367.44,-320.4"/>
<text text-anchor="start" x="374.44" y="-332.6" font-family="Arial" font-size="14.00">id </text>
<text text-anchor="start" x="389.23" y="-332.6" font-family="Arial" font-size="14.00" fill="#666666">[INTEGER]</text>
<polygon fill="none" stroke="black" points="367.44,-289.6 367.44,-320.4 545.62,-320.4 545.62,-289.6 367.44,-289.6"/>
<text text-anchor="start" x="374.44" y="-301.8" font-family="Arial" font-size="14.00">email </text>
<text text-anchor="start" x="411.78" y="-301.8" font-family="Arial" font-size="14.00" fill="#666666">[VARCHAR]</text>
<polygon fill="none" stroke="black" points="367.44,-258.8 367.44,-289.6 545.62,-289.6 545.62,-258.8 367.44,-258.8"/>
<text text-anchor="start" x="374.44" y="-271" font-family="Arial" font-size="14.00">user_name </text>
<text text-anchor="start" x="448.37" y="-271" font-family="Arial" font-size="14.00" fill="#666666">[VARCHAR]</text>
<polygon fill="none" stroke="black" points="367.44,-228 367.44,-258.8 545.62,-258.8 545.62,-228 367.44,-228"/>
<text text-anchor="start" x="374.44" y="-240.2" font-family="Arial" font-size="14.00">first_name </text>
<text text-anchor="start" x="443.69" y="-240.2" font-family="Arial" font-size="14.00" fill="#666666">[VARCHAR]</text>
<polygon fill="none" stroke="black" points="367.44,-197.2 367.44,-228 545.62,-228 545.62,-197.2 367.44,-197.2"/>
<text text-anchor="start" x="374.44" y="-209.4" font-family="Arial" font-size="14.00">last_name </text>
<text text-anchor="start" x="442.92" y="-209.4" font-family="Arial" font-size="14.00" fill="#666666">[VARCHAR]</text>
<polygon fill="none" stroke="black" points="367.44,-166.4 367.44,-197.2 545.62,-197.2 545.62,-166.4 367.44,-166.4"/>
<text text-anchor="start" x="374.44" y="-178.6" font-family="Arial" font-size="14.00">date_of_birth </text>
<text text-anchor="start" x="460.06" y="-178.6" font-family="Arial" font-size="14.00" fill="#666666">[DATETIME]</text>
<polygon fill="none" stroke="black" points="367.44,-135.6 367.44,-166.4 545.62,-166.4 545.62,-135.6 367.44,-135.6"/>
<text text-anchor="start" x="374.44" y="-147.8" font-family="Arial" font-size="14.00">is_active </text>
<text text-anchor="start" x="432.8" y="-147.8" font-family="Arial" font-size="14.00" fill="#666666">[BOOLEAN]</text>
<polygon fill="none" stroke="black" points="367.44,-104.8 367.44,-135.6 545.62,-135.6 545.62,-104.8 367.44,-104.8"/>
<text text-anchor="start" x="374.44" y="-117" font-family="Arial" font-size="14.00">created_at </text>
<text text-anchor="start" x="444.49" y="-117" font-family="Arial" font-size="14.00" fill="#666666">[DATETIME]</text>
<polygon fill="none" stroke="black" points="367.44,-74 367.44,-104.8 545.62,-104.8 545.62,-74 367.44,-74"/>
<text text-anchor="start" x="374.44" y="-86.2" font-family="Arial" font-size="14.00">updated_at </text>
<text text-anchor="start" x="448.4" y="-86.2" font-family="Arial" font-size="14.00" fill="#666666">[DATETIME]</text>
</g>
<!-- comments&#45;&gt;users -->
<g id="edge3" class="edge">
<title>comments:author_id&#45;&gt;users:id</title>
<path fill="none" stroke="black" d="M409.98,-680.98C476.17,-672.24 416.07,-573.32 398.79,-496.8 391.56,-464.81 374.75,-461.97 367.44,-430 358.11,-389.18 324.57,-335.8 366.44,-335.8"/>
<polygon fill="black" stroke="black" points="410.1,-680.97 399.85,-677.09 404.78,-681.3 400.45,-681.56 400.45,-681.56 400.45,-681.56 404.78,-681.3 400.4,-686.07 410.1,-680.97"/>
<text text-anchor="start" x="406.79" y="-691.6" font-family="Arial" font-size="10.00">FOREIGN KEY (authorId) REFERENCES users(id)</text>
</g>
</g>
</svg>
