<?xml version="1.0" encoding="UTF-8" standalone="no"?>
<!DOCTYPE svg PUBLIC "-//W3C//DTD SVG 1.1//EN"
 "http://www.w3.org/Graphics/SVG/1.1/DTD/svg11.dtd">
<!-- Generated by graphviz version 12.1.2 (20240928.0832)
 -->
<!-- Title: file_uploads Pages: 1 -->
<svg width="495pt" height="818pt"
 viewBox="0.00 0.00 494.67 817.60" xmlns="http://www.w3.org/2000/svg" xmlns:xlink="http://www.w3.org/1999/xlink">
<g id="graph0" class="graph" transform="scale(1 1) rotate(0) translate(4 813.6)">
<title>file_uploads</title>
<polygon fill="white" stroke="none" points="-4,4 -4,-813.6 490.67,-813.6 490.67,4 -4,4"/>
<!-- file_uploads -->
<g id="node1" class="node">
<title>file_uploads</title>
<polygon fill="#efefef" stroke="none" points="46.2,-727.8 46.2,-763.4 228.27,-763.4 228.27,-727.8 46.2,-727.8"/>
<polygon fill="none" stroke="black" points="46.2,-727.8 46.2,-763.4 228.27,-763.4 228.27,-727.8 46.2,-727.8"/>
<text text-anchor="start" x="58.12" y="-741.2" font-family="Arial Bold" font-size="18.00">file_uploads</text>
<text text-anchor="start" x="147.1" y="-741.2" font-family="Arial" font-size="14.00">    </text>
<text text-anchor="start" x="178.21" y="-741.2" font-family="Arial" font-size="14.00" fill="#666666">[table]</text>
<polygon fill="none" stroke="black" points="46.2,-697 46.2,-727.8 228.27,-727.8 228.27,-697 46.2,-697"/>
<text text-anchor="start" x="53.2" y="-709.2" font-family="Arial" font-size="14.00">id </text>
<text text-anchor="start" x="67.99" y="-709.2" font-family="Arial" font-size="14.00" fill="#666666">[VARCHAR]</text>
<polygon fill="none" stroke="black" points="46.2,-666.2 46.2,-697 228.27,-697 228.27,-666.2 46.2,-666.2"/>
<text text-anchor="start" x="53.2" y="-678.4" font-family="Arial" font-size="14.00">filename </text>
<text text-anchor="start" x="110.01" y="-678.4" font-family="Arial" font-size="14.00" fill="#666666">[VARCHAR]</text>
<polygon fill="none" stroke="black" points="46.2,-635.4 46.2,-666.2 228.27,-666.2 228.27,-635.4 46.2,-635.4"/>
<text text-anchor="start" x="53.2" y="-647.6" font-family="Arial" font-size="14.00">original_name </text>
<text text-anchor="start" x="145.03" y="-647.6" font-family="Arial" font-size="14.00" fill="#666666">[VARCHAR]</text>
<polygon fill="none" stroke="black" points="46.2,-604.6 46.2,-635.4 228.27,-635.4 228.27,-604.6 46.2,-604.6"/>
<text text-anchor="start" x="53.2" y="-616.8" font-family="Arial" font-size="14.00">mime_type </text>
<text text-anchor="start" x="125.56" y="-616.8" font-family="Arial" font-size="14.00" fill="#666666">[VARCHAR]</text>
<polygon fill="none" stroke="black" points="46.2,-573.8 46.2,-604.6 228.27,-604.6 228.27,-573.8 46.2,-573.8"/>
<text text-anchor="start" x="53.2" y="-586" font-family="Arial" font-size="14.00">size </text>
<text text-anchor="start" x="81.99" y="-586" font-family="Arial" font-size="14.00" fill="#666666">[BIGINT]</text>
<polygon fill="none" stroke="black" points="46.2,-543 46.2,-573.8 228.27,-573.8 228.27,-543 46.2,-543"/>
<text text-anchor="start" x="53.2" y="-555.2" font-family="Arial" font-size="14.00">path </text>
<text text-anchor="start" x="84.34" y="-555.2" font-family="Arial" font-size="14.00" fill="#666666">[VARCHAR]</text>
<polygon fill="none" stroke="black" points="46.2,-512.2 46.2,-543 228.27,-543 228.27,-512.2 46.2,-512.2"/>
<text text-anchor="start" x="53.2" y="-524.4" font-family="Arial" font-size="14.00">uploaded_by </text>
<text text-anchor="start" x="137.28" y="-524.4" font-family="Arial" font-size="14.00" fill="#666666">[INTEGER]</text>
<polygon fill="none" stroke="black" points="46.2,-481.4 46.2,-512.2 228.27,-512.2 228.27,-481.4 46.2,-481.4"/>
<text text-anchor="start" x="53.2" y="-493.6" font-family="Arial" font-size="14.00">uploaded_at </text>
<text text-anchor="start" x="134.16" y="-493.6" font-family="Arial" font-size="14.00" fill="#666666">[DATETIME]</text>
<polygon fill="none" stroke="black" stroke-width="3" points="44.7,-479.9 44.7,-764.9 229.77,-764.9 229.77,-479.9 44.7,-479.9"/>
</g>
<!-- users -->
<g id="node2" class="node">
<title>users</title>
<polygon fill="#efefef" stroke="none" points="48.14,-320.4 48.14,-356 226.32,-356 226.32,-320.4 48.14,-320.4"/>
<polygon fill="none" stroke="black" points="48.14,-320.4 48.14,-356 226.32,-356 226.32,-320.4 48.14,-320.4"/>
<text text-anchor="start" x="84.11" y="-333.8" font-family="Arial Bold" font-size="18.00">users</text>
<text text-anchor="start" x="121.1" y="-333.8" font-family="Arial" font-size="14.00">    </text>
<text text-anchor="start" x="152.22" y="-333.8" font-family="Arial" font-size="14.00" fill="#666666">[table]</text>
<polygon fill="none" stroke="black" points="48.14,-289.6 48.14,-320.4 226.32,-320.4 226.32,-289.6 48.14,-289.6"/>
<text text-anchor="start" x="55.14" y="-301.8" font-family="Arial" font-size="14.00">id </text>
<text text-anchor="start" x="69.93" y="-301.8" font-family="Arial" font-size="14.00" fill="#666666">[INTEGER]</text>
<polygon fill="none" stroke="black" points="48.14,-258.8 48.14,-289.6 226.32,-289.6 226.32,-258.8 48.14,-258.8"/>
<text text-anchor="start" x="55.14" y="-271" font-family="Arial" font-size="14.00">email </text>
<text text-anchor="start" x="92.49" y="-271" font-family="Arial" font-size="14.00" fill="#666666">[VARCHAR]</text>
<polygon fill="none" stroke="black" points="48.14,-228 48.14,-258.8 226.32,-258.8 226.32,-228 48.14,-228"/>
<text text-anchor="start" x="55.14" y="-240.2" font-family="Arial" font-size="14.00">user_name </text>
<text text-anchor="start" x="129.08" y="-240.2" font-family="Arial" font-size="14.00" fill="#666666">[VARCHAR]</text>
<polygon fill="none" stroke="black" points="48.14,-197.2 48.14,-228 226.32,-228 226.32,-197.2 48.14,-197.2"/>
<text text-anchor="start" x="55.14" y="-209.4" font-family="Arial" font-size="14.00">first_name </text>
<text text-anchor="start" x="124.39" y="-209.4" font-family="Arial" font-size="14.00" fill="#666666">[VARCHAR]</text>
<polygon fill="none" stroke="black" points="48.14,-166.4 48.14,-197.2 226.32,-197.2 226.32,-166.4 48.14,-166.4"/>
<text text-anchor="start" x="55.14" y="-178.6" font-family="Arial" font-size="14.00">last_name </text>
<text text-anchor="start" x="123.63" y="-178.6" font-family="Arial" font-size="14.00" fill="#666666">[VARCHAR]</text>
<polygon fill="none" stroke="black" points="48.14,-135.6 48.14,-166.4 226.32,-166.4 226.32,-135.6 48.14,-135.6"/>
<text text-anchor="start" x="55.14" y="-147.8" font-family="Arial" font-size="14.00">date_of_birth </text>
<text text-anchor="start" x="140.76" y="-147.8" font-family="Arial" font-size="14.00" fill="#666666">[DATETIME]</text>
<polygon fill="none" stroke="black" points="48.14,-104.8 48.14,-135.6 226.32,-135.6 226.32,-104.8 48.14,-104.8"/>
<text text-anchor="start" x="55.14" y="-117" font-family="Arial" font-size="14.00">is_active </text>
<text text-anchor="start" x="113.5" y="-117" font-family="Arial" font-size="14.00" fill="#666666">[BOOLEAN]</text>
<polygon fill="none" stroke="black" points="48.14,-74 48.14,-104.8 226.32,-104.8 226.32,-74 48.14,-74"/>
<text text-anchor="start" x="55.14" y="-86.2" font-family="Arial" font-size="14.00">created_at </text>
<text text-anchor="start" x="125.19" y="-86.2" font-family="Arial" font-size="14.00" fill="#666666">[DATETIME]</text>
<polygon fill="none" stroke="black" points="48.14,-43.2 48.14,-74 226.32,-74 226.32,-43.2 48.14,-43.2"/>
<text text-anchor="start" x="55.14" y="-55.4" font-family="Arial" font-size="14.00">updated_at </text>
<text text-anchor="start" x="129.1" y="-55.4" font-family="Arial" font-size="14.00" fill="#666666">[DATETIME]</text>
</g>
<!-- file_uploads&#45;&gt;users -->
<g id="edge1" class="edge">
<title>file_uploads:uploaded_by&#45;&gt;users:id</title>
<path fill="none" stroke="black" d="M239.6,-526.75C327.94,-511.8 322.69,-305 227.32,-305"/>
<polygon fill="black" stroke="black" points="239.57,-526.75 229.23,-523.09 234.25,-527.19 229.94,-527.55 229.94,-527.55 229.94,-527.55 234.25,-527.19 229.97,-532.06 239.57,-526.75"/>
<text text-anchor="start" x="236.27" y="-537.6" font-family="Arial" font-size="10.00">FOREIGN KEY (uploadedBy) REFERENCES users(id)</text>
</g>
</g>
</svg>
