<?xml version="1.0" encoding="UTF-8" standalone="no"?>
<!DOCTYPE svg PUBLIC "-//W3C//DTD SVG 1.1//EN"
 "http://www.w3.org/Graphics/SVG/1.1/DTD/svg11.dtd">
<!-- Generated by graphviz version 12.1.2 (20240928.0832)
 -->
<!-- Title: follows Pages: 1 -->
<svg width="477pt" height="664pt"
 viewBox="0.00 0.00 476.76 663.60" xmlns="http://www.w3.org/2000/svg" xmlns:xlink="http://www.w3.org/1999/xlink">
<g id="graph0" class="graph" transform="scale(1 1) rotate(0) translate(4 659.6)">
<title>follows</title>
<polygon fill="white" stroke="none" points="-4,4 -4,-659.6 472.76,-659.6 472.76,4 -4,4"/>
<!-- follows -->
<g id="node1" class="node">
<title>follows</title>
<polygon fill="#efefef" stroke="none" points="48.65,-573.8 48.65,-609.4 215.93,-609.4 215.93,-573.8 48.65,-573.8"/>
<polygon fill="none" stroke="black" points="48.65,-573.8 48.65,-609.4 215.93,-609.4 215.93,-573.8 48.65,-573.8"/>
<text text-anchor="start" x="70.66" y="-587.2" font-family="Arial Bold" font-size="18.00">follows</text>
<text text-anchor="start" x="124.66" y="-587.2" font-family="Arial" font-size="14.00">    </text>
<text text-anchor="start" x="155.78" y="-587.2" font-family="Arial" font-size="14.00" fill="#666666">[table]</text>
<polygon fill="none" stroke="black" points="48.65,-543 48.65,-573.8 215.93,-573.8 215.93,-543 48.65,-543"/>
<text text-anchor="start" x="55.65" y="-555.2" font-family="Arial" font-size="14.00">follower_id </text>
<text text-anchor="start" x="126.47" y="-555.2" font-family="Arial" font-size="14.00" fill="#666666">[INTEGER]</text>
<polygon fill="none" stroke="black" points="48.65,-512.2 48.65,-543 215.93,-543 215.93,-512.2 48.65,-512.2"/>
<text text-anchor="start" x="55.65" y="-524.4" font-family="Arial" font-size="14.00">following_id </text>
<text text-anchor="start" x="132.7" y="-524.4" font-family="Arial" font-size="14.00" fill="#666666">[INTEGER]</text>
<polygon fill="none" stroke="black" points="48.65,-481.4 48.65,-512.2 215.93,-512.2 215.93,-481.4 48.65,-481.4"/>
<text text-anchor="start" x="55.65" y="-493.6" font-family="Arial" font-size="14.00">followed_at </text>
<text text-anchor="start" x="130.37" y="-493.6" font-family="Arial" font-size="14.00" fill="#666666">[DATETIME]</text>
<polygon fill="none" stroke="black" stroke-width="3" points="47.15,-479.9 47.15,-610.9 217.43,-610.9 217.43,-479.9 47.15,-479.9"/>
</g>
<!-- users -->
<g id="node2" class="node">
<title>users</title>
<polygon fill="#efefef" stroke="none" points="43.2,-320.4 43.2,-356 221.38,-356 221.38,-320.4 43.2,-320.4"/>
<polygon fill="none" stroke="black" points="43.2,-320.4 43.2,-356 221.38,-356 221.38,-320.4 43.2,-320.4"/>
<text text-anchor="start" x="79.17" y="-333.8" font-family="Arial Bold" font-size="18.00">users</text>
<text text-anchor="start" x="116.16" y="-333.8" font-family="Arial" font-size="14.00">    </text>
<text text-anchor="start" x="147.28" y="-333.8" font-family="Arial" font-size="14.00" fill="#666666">[table]</text>
<polygon fill="none" stroke="black" points="43.2,-289.6 43.2,-320.4 221.38,-320.4 221.38,-289.6 43.2,-289.6"/>
<text text-anchor="start" x="50.2" y="-301.8" font-family="Arial" font-size="14.00">id </text>
<text text-anchor="start" x="64.99" y="-301.8" font-family="Arial" font-size="14.00" fill="#666666">[INTEGER]</text>
<polygon fill="none" stroke="black" points="43.2,-258.8 43.2,-289.6 221.38,-289.6 221.38,-258.8 43.2,-258.8"/>
<text text-anchor="start" x="50.2" y="-271" font-family="Arial" font-size="14.00">email </text>
<text text-anchor="start" x="87.54" y="-271" font-family="Arial" font-size="14.00" fill="#666666">[VARCHAR]</text>
<polygon fill="none" stroke="black" points="43.2,-228 43.2,-258.8 221.38,-258.8 221.38,-228 43.2,-228"/>
<text text-anchor="start" x="50.2" y="-240.2" font-family="Arial" font-size="14.00">user_name </text>
<text text-anchor="start" x="124.13" y="-240.2" font-family="Arial" font-size="14.00" fill="#666666">[VARCHAR]</text>
<polygon fill="none" stroke="black" points="43.2,-197.2 43.2,-228 221.38,-228 221.38,-197.2 43.2,-197.2"/>
<text text-anchor="start" x="50.2" y="-209.4" font-family="Arial" font-size="14.00">first_name </text>
<text text-anchor="start" x="119.45" y="-209.4" font-family="Arial" font-size="14.00" fill="#666666">[VARCHAR]</text>
<polygon fill="none" stroke="black" points="43.2,-166.4 43.2,-197.2 221.38,-197.2 221.38,-166.4 43.2,-166.4"/>
<text text-anchor="start" x="50.2" y="-178.6" font-family="Arial" font-size="14.00">last_name </text>
<text text-anchor="start" x="118.68" y="-178.6" font-family="Arial" font-size="14.00" fill="#666666">[VARCHAR]</text>
<polygon fill="none" stroke="black" points="43.2,-135.6 43.2,-166.4 221.38,-166.4 221.38,-135.6 43.2,-135.6"/>
<text text-anchor="start" x="50.2" y="-147.8" font-family="Arial" font-size="14.00">date_of_birth </text>
<text text-anchor="start" x="135.82" y="-147.8" font-family="Arial" font-size="14.00" fill="#666666">[DATETIME]</text>
<polygon fill="none" stroke="black" points="43.2,-104.8 43.2,-135.6 221.38,-135.6 221.38,-104.8 43.2,-104.8"/>
<text text-anchor="start" x="50.2" y="-117" font-family="Arial" font-size="14.00">is_active </text>
<text text-anchor="start" x="108.56" y="-117" font-family="Arial" font-size="14.00" fill="#666666">[BOOLEAN]</text>
<polygon fill="none" stroke="black" points="43.2,-74 43.2,-104.8 221.38,-104.8 221.38,-74 43.2,-74"/>
<text text-anchor="start" x="50.2" y="-86.2" font-family="Arial" font-size="14.00">created_at </text>
<text text-anchor="start" x="120.25" y="-86.2" font-family="Arial" font-size="14.00" fill="#666666">[DATETIME]</text>
<polygon fill="none" stroke="black" points="43.2,-43.2 43.2,-74 221.38,-74 221.38,-43.2 43.2,-43.2"/>
<text text-anchor="start" x="50.2" y="-55.4" font-family="Arial" font-size="14.00">updated_at </text>
<text text-anchor="start" x="124.16" y="-55.4" font-family="Arial" font-size="14.00" fill="#666666">[DATETIME]</text>
</g>
<!-- follows&#45;&gt;users -->
<g id="edge1" class="edge">
<title>follows:follower_id&#45;&gt;users:id</title>
<path fill="none" stroke="black" d="M226.89,-555.55C273.69,-527.71 275.18,-305 222.38,-305"/>
<polygon fill="black" stroke="black" points="226.86,-555.56 216.01,-553.98 221.73,-557.03 217.57,-558.22 217.57,-558.22 217.57,-558.22 221.73,-557.03 218.48,-562.64 226.86,-555.56"/>
<text text-anchor="start" x="223.93" y="-568.4" font-family="Arial" font-size="10.00">FOREIGN KEY (followerId) REFERENCES users(id)</text>
</g>
<!-- follows&#45;&gt;users -->
<g id="edge2" class="edge">
<title>follows:following_id&#45;&gt;users:id</title>
<path fill="none" stroke="black" d="M227.29,-526.75C316.15,-511.8 317.77,-305 222.38,-305"/>
<polygon fill="black" stroke="black" points="227.23,-526.75 216.89,-523.09 221.91,-527.19 217.59,-527.55 217.59,-527.55 217.59,-527.55 221.91,-527.19 217.63,-532.06 227.23,-526.75"/>
<text text-anchor="start" x="223.93" y="-537.6" font-family="Arial" font-size="10.00">FOREIGN KEY (followingId) REFERENCES users(id)</text>
</g>
</g>
</svg>
