<?xml version="1.0" encoding="UTF-8" standalone="no"?>
<!DOCTYPE svg PUBLIC "-//W3C//DTD SVG 1.1//EN"
 "http://www.w3.org/Graphics/SVG/1.1/DTD/svg11.dtd">
<!-- Generated by graphviz version 12.1.2 (20240928.0832)
 -->
<!-- Title: post_likes Pages: 1 -->
<svg width="630pt" height="725pt"
 viewBox="0.00 0.00 629.90 725.20" xmlns="http://www.w3.org/2000/svg" xmlns:xlink="http://www.w3.org/1999/xlink">
<g id="graph0" class="graph" transform="scale(1 1) rotate(0) translate(4 721.2)">
<title>post_likes</title>
<polygon fill="white" stroke="none" points="-4,4 -4,-721.2 625.9,-721.2 625.9,4 -4,4"/>
<!-- post_likes -->
<g id="node1" class="node">
<title>post_likes</title>
<polygon fill="#efefef" stroke="none" points="233.37,-635.4 233.37,-671 389.63,-671 389.63,-635.4 233.37,-635.4"/>
<polygon fill="none" stroke="black" points="233.37,-635.4 233.37,-671 389.63,-671 389.63,-635.4 233.37,-635.4"/>
<text text-anchor="start" x="240.37" y="-648.8" font-family="Arial Bold" font-size="18.00">post_likes</text>
<text text-anchor="start" x="313.38" y="-648.8" font-family="Arial" font-size="14.00">    </text>
<text text-anchor="start" x="344.49" y="-648.8" font-family="Arial" font-size="14.00" fill="#666666">[table]</text>
<polygon fill="none" stroke="black" points="233.37,-604.6 233.37,-635.4 389.63,-635.4 389.63,-604.6 233.37,-604.6"/>
<text text-anchor="start" x="240.37" y="-616.8" font-family="Arial" font-size="14.00">user_id </text>
<text text-anchor="start" x="290.18" y="-616.8" font-family="Arial" font-size="14.00" fill="#666666">[INTEGER]</text>
<polygon fill="none" stroke="black" points="233.37,-573.8 233.37,-604.6 389.63,-604.6 389.63,-573.8 233.37,-573.8"/>
<text text-anchor="start" x="240.37" y="-586" font-family="Arial" font-size="14.00">post_id </text>
<text text-anchor="start" x="289.41" y="-586" font-family="Arial" font-size="14.00" fill="#666666">[INTEGER]</text>
<polygon fill="none" stroke="black" points="233.37,-543 233.37,-573.8 389.63,-573.8 389.63,-543 233.37,-543"/>
<text text-anchor="start" x="240.37" y="-555.2" font-family="Arial" font-size="14.00">liked_at </text>
<text text-anchor="start" x="292.52" y="-555.2" font-family="Arial" font-size="14.00" fill="#666666">[DATETIME]</text>
<polygon fill="none" stroke="black" stroke-width="3" points="231.87,-541.5 231.87,-672.5 391.13,-672.5 391.13,-541.5 231.87,-541.5"/>
</g>
<!-- users -->
<g id="node2" class="node">
<title>users</title>
<polygon fill="#efefef" stroke="none" points="82.41,-351.2 82.41,-386.8 260.59,-386.8 260.59,-351.2 82.41,-351.2"/>
<polygon fill="none" stroke="black" points="82.41,-351.2 82.41,-386.8 260.59,-386.8 260.59,-351.2 82.41,-351.2"/>
<text text-anchor="start" x="118.38" y="-364.6" font-family="Arial Bold" font-size="18.00">users</text>
<text text-anchor="start" x="155.37" y="-364.6" font-family="Arial" font-size="14.00">    </text>
<text text-anchor="start" x="186.49" y="-364.6" font-family="Arial" font-size="14.00" fill="#666666">[table]</text>
<polygon fill="none" stroke="black" points="82.41,-320.4 82.41,-351.2 260.59,-351.2 260.59,-320.4 82.41,-320.4"/>
<text text-anchor="start" x="89.41" y="-332.6" font-family="Arial" font-size="14.00">id </text>
<text text-anchor="start" x="104.2" y="-332.6" font-family="Arial" font-size="14.00" fill="#666666">[INTEGER]</text>
<polygon fill="none" stroke="black" points="82.41,-289.6 82.41,-320.4 260.59,-320.4 260.59,-289.6 82.41,-289.6"/>
<text text-anchor="start" x="89.41" y="-301.8" font-family="Arial" font-size="14.00">email </text>
<text text-anchor="start" x="126.76" y="-301.8" font-family="Arial" font-size="14.00" fill="#666666">[VARCHAR]</text>
<polygon fill="none" stroke="black" points="82.41,-258.8 82.41,-289.6 260.59,-289.6 260.59,-258.8 82.41,-258.8"/>
<text text-anchor="start" x="89.41" y="-271" font-family="Arial" font-size="14.00">user_name </text>
<text text-anchor="start" x="163.34" y="-271" font-family="Arial" font-size="14.00" fill="#666666">[VARCHAR]</text>
<polygon fill="none" stroke="black" points="82.41,-228 82.41,-258.8 260.59,-258.8 260.59,-228 82.41,-228"/>
<text text-anchor="start" x="89.41" y="-240.2" font-family="Arial" font-size="14.00">first_name </text>
<text text-anchor="start" x="158.66" y="-240.2" font-family="Arial" font-size="14.00" fill="#666666">[VARCHAR]</text>
<polygon fill="none" stroke="black" points="82.41,-197.2 82.41,-228 260.59,-228 260.59,-197.2 82.41,-197.2"/>
<text text-anchor="start" x="89.41" y="-209.4" font-family="Arial" font-size="14.00">last_name </text>
<text text-anchor="start" x="157.9" y="-209.4" font-family="Arial" font-size="14.00" fill="#666666">[VARCHAR]</text>
<polygon fill="none" stroke="black" points="82.41,-166.4 82.41,-197.2 260.59,-197.2 260.59,-166.4 82.41,-166.4"/>
<text text-anchor="start" x="89.41" y="-178.6" font-family="Arial" font-size="14.00">date_of_birth </text>
<text text-anchor="start" x="175.03" y="-178.6" font-family="Arial" font-size="14.00" fill="#666666">[DATETIME]</text>
<polygon fill="none" stroke="black" points="82.41,-135.6 82.41,-166.4 260.59,-166.4 260.59,-135.6 82.41,-135.6"/>
<text text-anchor="start" x="89.41" y="-147.8" font-family="Arial" font-size="14.00">is_active </text>
<text text-anchor="start" x="147.77" y="-147.8" font-family="Arial" font-size="14.00" fill="#666666">[BOOLEAN]</text>
<polygon fill="none" stroke="black" points="82.41,-104.8 82.41,-135.6 260.59,-135.6 260.59,-104.8 82.41,-104.8"/>
<text text-anchor="start" x="89.41" y="-117" font-family="Arial" font-size="14.00">created_at </text>
<text text-anchor="start" x="159.46" y="-117" font-family="Arial" font-size="14.00" fill="#666666">[DATETIME]</text>
<polygon fill="none" stroke="black" points="82.41,-74 82.41,-104.8 260.59,-104.8 260.59,-74 82.41,-74"/>
<text text-anchor="start" x="89.41" y="-86.2" font-family="Arial" font-size="14.00">updated_at </text>
<text text-anchor="start" x="163.37" y="-86.2" font-family="Arial" font-size="14.00" fill="#666666">[DATETIME]</text>
</g>
<!-- post_likes&#45;&gt;users -->
<g id="edge1" class="edge">
<title>post_likes:user_id&#45;&gt;users:id</title>
<path fill="none" stroke="black" d="M222.26,-619C183.78,-610.3 223.38,-546.72 233.37,-496.8 239.67,-465.36 254.26,-461.43 260.59,-430 268.86,-388.96 303.46,-335.8 261.59,-335.8"/>
<polygon fill="black" stroke="black" points="222.09,-618.98 231.6,-624.45 227.4,-619.51 231.71,-619.93 231.71,-619.93 231.71,-619.93 227.4,-619.51 232.48,-615.49 222.09,-618.98"/>
<text text-anchor="start" x="7" y="-630" font-family="Arial" font-size="10.00">FOREIGN KEY (userId) REFERENCES users(id)</text>
</g>
<!-- posts -->
<g id="node3" class="node">
<title>posts</title>
<polygon fill="#efefef" stroke="none" points="364.58,-382 364.58,-417.6 540.43,-417.6 540.43,-382 364.58,-382"/>
<polygon fill="none" stroke="black" points="364.58,-382 364.58,-417.6 540.43,-417.6 540.43,-382 364.58,-382"/>
<text text-anchor="start" x="399.37" y="-395.4" font-family="Arial Bold" font-size="18.00">posts</text>
<text text-anchor="start" x="436.38" y="-395.4" font-family="Arial" font-size="14.00">    </text>
<text text-anchor="start" x="467.5" y="-395.4" font-family="Arial" font-size="14.00" fill="#666666">[table]</text>
<polygon fill="none" stroke="black" points="364.58,-351.2 364.58,-382 540.43,-382 540.43,-351.2 364.58,-351.2"/>
<text text-anchor="start" x="371.58" y="-363.4" font-family="Arial" font-size="14.00">id </text>
<text text-anchor="start" x="386.36" y="-363.4" font-family="Arial" font-size="14.00" fill="#666666">[INTEGER]</text>
<polygon fill="none" stroke="black" points="364.58,-320.4 364.58,-351.2 540.43,-351.2 540.43,-320.4 364.58,-320.4"/>
<text text-anchor="start" x="371.58" y="-332.6" font-family="Arial" font-size="14.00">title </text>
<text text-anchor="start" x="397.25" y="-332.6" font-family="Arial" font-size="14.00" fill="#666666">[VARCHAR]</text>
<polygon fill="none" stroke="black" points="364.58,-289.6 364.58,-320.4 540.43,-320.4 540.43,-289.6 364.58,-289.6"/>
<text text-anchor="start" x="371.58" y="-301.8" font-family="Arial" font-size="14.00">slug </text>
<text text-anchor="start" x="401.15" y="-301.8" font-family="Arial" font-size="14.00" fill="#666666">[VARCHAR]</text>
<polygon fill="none" stroke="black" points="364.58,-258.8 364.58,-289.6 540.43,-289.6 540.43,-258.8 364.58,-258.8"/>
<text text-anchor="start" x="371.58" y="-271" font-family="Arial" font-size="14.00">content </text>
<text text-anchor="start" x="421.39" y="-271" font-family="Arial" font-size="14.00" fill="#666666">[VARCHAR]</text>
<polygon fill="none" stroke="black" points="364.58,-228 364.58,-258.8 540.43,-258.8 540.43,-228 364.58,-228"/>
<text text-anchor="start" x="371.58" y="-240.2" font-family="Arial" font-size="14.00">excerpt </text>
<text text-anchor="start" x="421.38" y="-240.2" font-family="Arial" font-size="14.00" fill="#666666">[VARCHAR]</text>
<polygon fill="none" stroke="black" points="364.58,-197.2 364.58,-228 540.43,-228 540.43,-197.2 364.58,-197.2"/>
<text text-anchor="start" x="371.58" y="-209.4" font-family="Arial" font-size="14.00">status </text>
<text text-anchor="start" x="412.82" y="-209.4" font-family="Arial" font-size="14.00" fill="#666666">[PostStatus]</text>
<polygon fill="none" stroke="black" points="364.58,-166.4 364.58,-197.2 540.43,-197.2 540.43,-166.4 364.58,-166.4"/>
<text text-anchor="start" x="371.58" y="-178.6" font-family="Arial" font-size="14.00">published_at </text>
<text text-anchor="start" x="454.87" y="-178.6" font-family="Arial" font-size="14.00" fill="#666666">[DATETIME]</text>
<polygon fill="none" stroke="black" points="364.58,-135.6 364.58,-166.4 540.43,-166.4 540.43,-135.6 364.58,-135.6"/>
<text text-anchor="start" x="371.58" y="-147.8" font-family="Arial" font-size="14.00">author_id </text>
<text text-anchor="start" x="433.85" y="-147.8" font-family="Arial" font-size="14.00" fill="#666666">[INTEGER]</text>
<polygon fill="none" stroke="black" points="364.58,-104.8 364.58,-135.6 540.43,-135.6 540.43,-104.8 364.58,-104.8"/>
<text text-anchor="start" x="371.58" y="-117" font-family="Arial" font-size="14.00">view_count </text>
<text text-anchor="start" x="445.51" y="-117" font-family="Arial" font-size="14.00" fill="#666666">[INTEGER]</text>
<polygon fill="none" stroke="black" points="364.58,-74 364.58,-104.8 540.43,-104.8 540.43,-74 364.58,-74"/>
<text text-anchor="start" x="371.58" y="-86.2" font-family="Arial" font-size="14.00">created_at </text>
<text text-anchor="start" x="441.63" y="-86.2" font-family="Arial" font-size="14.00" fill="#666666">[DATETIME]</text>
<polygon fill="none" stroke="black" points="364.58,-43.2 364.58,-74 540.43,-74 540.43,-43.2 364.58,-43.2"/>
<text text-anchor="start" x="371.58" y="-55.4" font-family="Arial" font-size="14.00">updated_at </text>
<text text-anchor="start" x="445.54" y="-55.4" font-family="Arial" font-size="14.00" fill="#666666">[DATETIME]</text>
</g>
<!-- post_likes&#45;&gt;posts -->
<g id="edge2" class="edge">
<title>post_likes:post_id&#45;&gt;posts:id</title>
<path fill="none" stroke="black" d="M400.72,-587.74C426.09,-578.93 400.91,-532.1 389.63,-496.8 383.7,-478.23 370.51,-479.37 364.58,-460.8 351.83,-420.92 321.71,-366.6 363.58,-366.6"/>
<polygon fill="black" stroke="black" points="400.86,-587.72 390.32,-584.7 395.58,-588.48 391.29,-589.1 391.29,-589.1 391.29,-589.1 395.58,-588.48 391.61,-593.61 400.86,-587.72"/>
<text text-anchor="start" x="397.63" y="-599.2" font-family="Arial" font-size="10.00">FOREIGN KEY (postId) REFERENCES posts(id)</text>
</g>
</g>
</svg>
