<?xml version="1.0" encoding="UTF-8" standalone="no"?>
<!DOCTYPE svg PUBLIC "-//W3C//DTD SVG 1.1//EN"
 "http://www.w3.org/Graphics/SVG/1.1/DTD/svg11.dtd">
<!-- Generated by graphviz version 12.1.2 (20240928.0832)
 -->
<!-- Title: post_categories Pages: 1 -->
<svg width="709pt" height="756pt"
 viewBox="0.00 0.00 709.45 756.00" xmlns="http://www.w3.org/2000/svg" xmlns:xlink="http://www.w3.org/1999/xlink">
<g id="graph0" class="graph" transform="scale(1 1) rotate(0) translate(4 752)">
<title>post_categories</title>
<polygon fill="white" stroke="none" points="-4,4 -4,-752 705.45,-752 705.45,4 -4,4"/>
<!-- post_categories -->
<g id="node1" class="node">
<title>post_categories</title>
<polygon fill="#efefef" stroke="none" points="232.27,-666.2 232.27,-701.8 427.49,-701.8 427.49,-666.2 232.27,-666.2"/>
<polygon fill="none" stroke="black" points="232.27,-666.2 232.27,-701.8 427.49,-701.8 427.49,-666.2 232.27,-666.2"/>
<text text-anchor="start" x="239.27" y="-679.6" font-family="Arial Bold" font-size="18.00">post_categories</text>
<text text-anchor="start" x="351.23" y="-679.6" font-family="Arial" font-size="14.00">    </text>
<text text-anchor="start" x="382.35" y="-679.6" font-family="Arial" font-size="14.00" fill="#666666">[table]</text>
<polygon fill="none" stroke="black" points="232.27,-635.4 232.27,-666.2 427.49,-666.2 427.49,-635.4 232.27,-635.4"/>
<text text-anchor="start" x="239.27" y="-647.6" font-family="Arial" font-size="14.00">post_id </text>
<text text-anchor="start" x="288.3" y="-647.6" font-family="Arial" font-size="14.00" fill="#666666">[INTEGER]</text>
<polygon fill="none" stroke="black" points="232.27,-604.6 232.27,-635.4 427.49,-635.4 427.49,-604.6 232.27,-604.6"/>
<text text-anchor="start" x="239.27" y="-616.8" font-family="Arial" font-size="14.00">category_id </text>
<text text-anchor="start" x="315.54" y="-616.8" font-family="Arial" font-size="14.00" fill="#666666">[INTEGER]</text>
<polygon fill="none" stroke="black" points="232.27,-573.8 232.27,-604.6 427.49,-604.6 427.49,-573.8 232.27,-573.8"/>
<text text-anchor="start" x="239.27" y="-586" font-family="Arial" font-size="14.00">is_primary </text>
<text text-anchor="start" x="307.73" y="-586" font-family="Arial" font-size="14.00" fill="#666666">[BOOLEAN]</text>
<polygon fill="none" stroke="black" points="232.27,-543 232.27,-573.8 427.49,-573.8 427.49,-543 232.27,-543"/>
<text text-anchor="start" x="239.27" y="-555.2" font-family="Arial" font-size="14.00">added_at </text>
<text text-anchor="start" x="301.55" y="-555.2" font-family="Arial" font-size="14.00" fill="#666666">[DATETIME]</text>
<polygon fill="none" stroke="black" stroke-width="3" points="230.77,-541.5 230.77,-703.3 428.99,-703.3 428.99,-541.5 230.77,-541.5"/>
</g>
<!-- posts -->
<g id="node2" class="node">
<title>posts</title>
<polygon fill="#efefef" stroke="none" points="105.96,-382 105.96,-417.6 281.8,-417.6 281.8,-382 105.96,-382"/>
<polygon fill="none" stroke="black" points="105.96,-382 105.96,-417.6 281.8,-417.6 281.8,-382 105.96,-382"/>
<text text-anchor="start" x="140.75" y="-395.4" font-family="Arial Bold" font-size="18.00">posts</text>
<text text-anchor="start" x="177.76" y="-395.4" font-family="Arial" font-size="14.00">    </text>
<text text-anchor="start" x="208.88" y="-395.4" font-family="Arial" font-size="14.00" fill="#666666">[table]</text>
<polygon fill="none" stroke="black" points="105.96,-351.2 105.96,-382 281.8,-382 281.8,-351.2 105.96,-351.2"/>
<text text-anchor="start" x="112.96" y="-363.4" font-family="Arial" font-size="14.00">id </text>
<text text-anchor="start" x="127.74" y="-363.4" font-family="Arial" font-size="14.00" fill="#666666">[INTEGER]</text>
<polygon fill="none" stroke="black" points="105.96,-320.4 105.96,-351.2 281.8,-351.2 281.8,-320.4 105.96,-320.4"/>
<text text-anchor="start" x="112.96" y="-332.6" font-family="Arial" font-size="14.00">title </text>
<text text-anchor="start" x="138.63" y="-332.6" font-family="Arial" font-size="14.00" fill="#666666">[VARCHAR]</text>
<polygon fill="none" stroke="black" points="105.96,-289.6 105.96,-320.4 281.8,-320.4 281.8,-289.6 105.96,-289.6"/>
<text text-anchor="start" x="112.96" y="-301.8" font-family="Arial" font-size="14.00">slug </text>
<text text-anchor="start" x="142.53" y="-301.8" font-family="Arial" font-size="14.00" fill="#666666">[VARCHAR]</text>
<polygon fill="none" stroke="black" points="105.96,-258.8 105.96,-289.6 281.8,-289.6 281.8,-258.8 105.96,-258.8"/>
<text text-anchor="start" x="112.96" y="-271" font-family="Arial" font-size="14.00">content </text>
<text text-anchor="start" x="162.77" y="-271" font-family="Arial" font-size="14.00" fill="#666666">[VARCHAR]</text>
<polygon fill="none" stroke="black" points="105.96,-228 105.96,-258.8 281.8,-258.8 281.8,-228 105.96,-228"/>
<text text-anchor="start" x="112.96" y="-240.2" font-family="Arial" font-size="14.00">excerpt </text>
<text text-anchor="start" x="162.76" y="-240.2" font-family="Arial" font-size="14.00" fill="#666666">[VARCHAR]</text>
<polygon fill="none" stroke="black" points="105.96,-197.2 105.96,-228 281.8,-228 281.8,-197.2 105.96,-197.2"/>
<text text-anchor="start" x="112.96" y="-209.4" font-family="Arial" font-size="14.00">status </text>
<text text-anchor="start" x="154.2" y="-209.4" font-family="Arial" font-size="14.00" fill="#666666">[PostStatus]</text>
<polygon fill="none" stroke="black" points="105.96,-166.4 105.96,-197.2 281.8,-197.2 281.8,-166.4 105.96,-166.4"/>
<text text-anchor="start" x="112.96" y="-178.6" font-family="Arial" font-size="14.00">published_at </text>
<text text-anchor="start" x="196.25" y="-178.6" font-family="Arial" font-size="14.00" fill="#666666">[DATETIME]</text>
<polygon fill="none" stroke="black" points="105.96,-135.6 105.96,-166.4 281.8,-166.4 281.8,-135.6 105.96,-135.6"/>
<text text-anchor="start" x="112.96" y="-147.8" font-family="Arial" font-size="14.00">author_id </text>
<text text-anchor="start" x="175.22" y="-147.8" font-family="Arial" font-size="14.00" fill="#666666">[INTEGER]</text>
<polygon fill="none" stroke="black" points="105.96,-104.8 105.96,-135.6 281.8,-135.6 281.8,-104.8 105.96,-104.8"/>
<text text-anchor="start" x="112.96" y="-117" font-family="Arial" font-size="14.00">view_count </text>
<text text-anchor="start" x="186.89" y="-117" font-family="Arial" font-size="14.00" fill="#666666">[INTEGER]</text>
<polygon fill="none" stroke="black" points="105.96,-74 105.96,-104.8 281.8,-104.8 281.8,-74 105.96,-74"/>
<text text-anchor="start" x="112.96" y="-86.2" font-family="Arial" font-size="14.00">created_at </text>
<text text-anchor="start" x="183" y="-86.2" font-family="Arial" font-size="14.00" fill="#666666">[DATETIME]</text>
<polygon fill="none" stroke="black" points="105.96,-43.2 105.96,-74 281.8,-74 281.8,-43.2 105.96,-43.2"/>
<text text-anchor="start" x="112.96" y="-55.4" font-family="Arial" font-size="14.00">updated_at </text>
<text text-anchor="start" x="186.91" y="-55.4" font-family="Arial" font-size="14.00" fill="#666666">[DATETIME]</text>
</g>
<!-- post_categories&#45;&gt;posts -->
<g id="edge1" class="edge">
<title>post_categories:post_id&#45;&gt;posts:id</title>
<path fill="none" stroke="black" d="M221.1,-650.73C-70.07,-646.65 279.65,-464.98 281.8,-460.8 301.01,-423.59 324.67,-366.6 282.8,-366.6"/>
<polygon fill="black" stroke="black" points="220.94,-650.73 230.91,-655.3 226.27,-650.77 230.6,-650.8 230.6,-650.8 230.6,-650.8 226.27,-650.77 230.97,-646.3 220.94,-650.73"/>
<text text-anchor="start" x="7" y="-660.8" font-family="Arial" font-size="10.00">FOREIGN KEY (postId) REFERENCES posts(id)</text>
</g>
<!-- categories -->
<g id="node3" class="node">
<title>categories</title>
<polygon fill="#efefef" stroke="none" points="385.97,-305 385.97,-340.6 547.79,-340.6 547.79,-305 385.97,-305"/>
<polygon fill="none" stroke="black" points="385.97,-305 385.97,-340.6 547.79,-340.6 547.79,-305 385.97,-305"/>
<text text-anchor="start" x="395.77" y="-318.4" font-family="Arial Bold" font-size="18.00">categories</text>
<text text-anchor="start" x="468.73" y="-318.4" font-family="Arial" font-size="14.00">    </text>
<text text-anchor="start" x="499.85" y="-318.4" font-family="Arial" font-size="14.00" fill="#666666">[table]</text>
<polygon fill="none" stroke="black" points="385.97,-274.2 385.97,-305 547.79,-305 547.79,-274.2 385.97,-274.2"/>
<text text-anchor="start" x="392.97" y="-286.4" font-family="Arial" font-size="14.00">id </text>
<text text-anchor="start" x="407.75" y="-286.4" font-family="Arial" font-size="14.00" fill="#666666">[INTEGER]</text>
<polygon fill="none" stroke="black" points="385.97,-243.4 385.97,-274.2 547.79,-274.2 547.79,-243.4 385.97,-243.4"/>
<text text-anchor="start" x="392.97" y="-255.6" font-family="Arial" font-size="14.00">name </text>
<text text-anchor="start" x="431.88" y="-255.6" font-family="Arial" font-size="14.00" fill="#666666">[VARCHAR]</text>
<polygon fill="none" stroke="black" points="385.97,-212.6 385.97,-243.4 547.79,-243.4 547.79,-212.6 385.97,-212.6"/>
<text text-anchor="start" x="392.97" y="-224.8" font-family="Arial" font-size="14.00">slug </text>
<text text-anchor="start" x="422.54" y="-224.8" font-family="Arial" font-size="14.00" fill="#666666">[VARCHAR]</text>
<polygon fill="none" stroke="black" points="385.97,-181.8 385.97,-212.6 547.79,-212.6 547.79,-181.8 385.97,-181.8"/>
<text text-anchor="start" x="392.97" y="-194" font-family="Arial" font-size="14.00">description </text>
<text text-anchor="start" x="464.56" y="-194" font-family="Arial" font-size="14.00" fill="#666666">[VARCHAR]</text>
<polygon fill="none" stroke="black" points="385.97,-151 385.97,-181.8 547.79,-181.8 547.79,-151 385.97,-151"/>
<text text-anchor="start" x="392.97" y="-163.2" font-family="Arial" font-size="14.00">color </text>
<text text-anchor="start" x="427.2" y="-163.2" font-family="Arial" font-size="14.00" fill="#666666">[VARCHAR]</text>
<polygon fill="none" stroke="black" points="385.97,-120.2 385.97,-151 547.79,-151 547.79,-120.2 385.97,-120.2"/>
<text text-anchor="start" x="392.97" y="-132.4" font-family="Arial" font-size="14.00">parent_id </text>
<text text-anchor="start" x="455.23" y="-132.4" font-family="Arial" font-size="14.00" fill="#666666">[INTEGER]</text>
</g>
<!-- post_categories&#45;&gt;categories -->
<g id="edge2" class="edge">
<title>post_categories:category_id&#45;&gt;categories:id</title>
<path fill="none" stroke="black" d="M438.84,-619.37C559.66,-603.43 240.61,-289.6 384.97,-289.6"/>
<polygon fill="black" stroke="black" points="438.8,-619.37 428.55,-615.49 433.48,-619.7 429.16,-619.96 429.16,-619.96 429.16,-619.96 433.48,-619.7 429.1,-624.47 438.8,-619.37"/>
<text text-anchor="start" x="435.49" y="-630" font-family="Arial" font-size="10.00">FOREIGN KEY (categoryId) REFERENCES categories(id)</text>
</g>
</g>
</svg>
