<?xml version="1.0" encoding="UTF-8" standalone="no"?>
<!DOCTYPE svg PUBLIC "-//W3C//DTD SVG 1.1//EN"
 "http://www.w3.org/Graphics/SVG/1.1/DTD/svg11.dtd">
<!-- Generated by graphviz version 12.1.2 (20240928.0832)
 -->
<!-- Title: posts Pages: 1 -->
<svg width="1108pt" height="1314pt"
 viewBox="0.00 0.00 1107.95 1314.40" xmlns="http://www.w3.org/2000/svg" xmlns:xlink="http://www.w3.org/1999/xlink">
<g id="graph0" class="graph" transform="scale(1 1) rotate(0) translate(4 1310.4)">
<title>posts</title>
<polygon fill="white" stroke="none" points="-4,4 -4,-1310.4 1103.95,-1310.4 1103.95,4 -4,4"/>
<!-- posts -->
<g id="node1" class="node">
<title>posts</title>
<polygon fill="#efefef" stroke="none" points="461.89,-820.2 461.89,-855.8 637.73,-855.8 637.73,-820.2 461.89,-820.2"/>
<polygon fill="none" stroke="black" points="461.89,-820.2 461.89,-855.8 637.73,-855.8 637.73,-820.2 461.89,-820.2"/>
<text text-anchor="start" x="496.68" y="-833.6" font-family="Arial Bold" font-size="18.00">posts</text>
<text text-anchor="start" x="533.69" y="-833.6" font-family="Arial" font-size="14.00">    </text>
<text text-anchor="start" x="564.8" y="-833.6" font-family="Arial" font-size="14.00" fill="#666666">[table]</text>
<polygon fill="none" stroke="black" points="461.89,-789.4 461.89,-820.2 637.73,-820.2 637.73,-789.4 461.89,-789.4"/>
<text text-anchor="start" x="468.89" y="-801.6" font-family="Arial" font-size="14.00">id </text>
<text text-anchor="start" x="483.67" y="-801.6" font-family="Arial" font-size="14.00" fill="#666666">[INTEGER]</text>
<polygon fill="none" stroke="black" points="461.89,-758.6 461.89,-789.4 637.73,-789.4 637.73,-758.6 461.89,-758.6"/>
<text text-anchor="start" x="468.89" y="-770.8" font-family="Arial" font-size="14.00">title </text>
<text text-anchor="start" x="494.56" y="-770.8" font-family="Arial" font-size="14.00" fill="#666666">[VARCHAR]</text>
<polygon fill="none" stroke="black" points="461.89,-727.8 461.89,-758.6 637.73,-758.6 637.73,-727.8 461.89,-727.8"/>
<text text-anchor="start" x="468.89" y="-740" font-family="Arial" font-size="14.00">slug </text>
<text text-anchor="start" x="498.46" y="-740" font-family="Arial" font-size="14.00" fill="#666666">[VARCHAR]</text>
<polygon fill="none" stroke="black" points="461.89,-697 461.89,-727.8 637.73,-727.8 637.73,-697 461.89,-697"/>
<text text-anchor="start" x="468.89" y="-709.2" font-family="Arial" font-size="14.00">content </text>
<text text-anchor="start" x="518.7" y="-709.2" font-family="Arial" font-size="14.00" fill="#666666">[VARCHAR]</text>
<polygon fill="none" stroke="black" points="461.89,-666.2 461.89,-697 637.73,-697 637.73,-666.2 461.89,-666.2"/>
<text text-anchor="start" x="468.89" y="-678.4" font-family="Arial" font-size="14.00">excerpt </text>
<text text-anchor="start" x="518.69" y="-678.4" font-family="Arial" font-size="14.00" fill="#666666">[VARCHAR]</text>
<polygon fill="none" stroke="black" points="461.89,-635.4 461.89,-666.2 637.73,-666.2 637.73,-635.4 461.89,-635.4"/>
<text text-anchor="start" x="468.89" y="-647.6" font-family="Arial" font-size="14.00">status </text>
<text text-anchor="start" x="510.13" y="-647.6" font-family="Arial" font-size="14.00" fill="#666666">[PostStatus]</text>
<polygon fill="none" stroke="black" points="461.89,-604.6 461.89,-635.4 637.73,-635.4 637.73,-604.6 461.89,-604.6"/>
<text text-anchor="start" x="468.89" y="-616.8" font-family="Arial" font-size="14.00">published_at </text>
<text text-anchor="start" x="552.17" y="-616.8" font-family="Arial" font-size="14.00" fill="#666666">[DATETIME]</text>
<polygon fill="none" stroke="black" points="461.89,-573.8 461.89,-604.6 637.73,-604.6 637.73,-573.8 461.89,-573.8"/>
<text text-anchor="start" x="468.89" y="-586" font-family="Arial" font-size="14.00">author_id </text>
<text text-anchor="start" x="531.15" y="-586" font-family="Arial" font-size="14.00" fill="#666666">[INTEGER]</text>
<polygon fill="none" stroke="black" points="461.89,-543 461.89,-573.8 637.73,-573.8 637.73,-543 461.89,-543"/>
<text text-anchor="start" x="468.89" y="-555.2" font-family="Arial" font-size="14.00">view_count </text>
<text text-anchor="start" x="542.82" y="-555.2" font-family="Arial" font-size="14.00" fill="#666666">[INTEGER]</text>
<polygon fill="none" stroke="black" points="461.89,-512.2 461.89,-543 637.73,-543 637.73,-512.2 461.89,-512.2"/>
<text text-anchor="start" x="468.89" y="-524.4" font-family="Arial" font-size="14.00">created_at </text>
<text text-anchor="start" x="538.93" y="-524.4" font-family="Arial" font-size="14.00" fill="#666666">[DATETIME]</text>
<polygon fill="none" stroke="black" points="461.89,-481.4 461.89,-512.2 637.73,-512.2 637.73,-481.4 461.89,-481.4"/>
<text text-anchor="start" x="468.89" y="-493.6" font-family="Arial" font-size="14.00">updated_at </text>
<text text-anchor="start" x="542.84" y="-493.6" font-family="Arial" font-size="14.00" fill="#666666">[DATETIME]</text>
<polygon fill="none" stroke="black" stroke-width="3" points="460.39,-479.9 460.39,-857.3 639.23,-857.3 639.23,-479.9 460.39,-479.9"/>
</g>
<!-- users -->
<g id="node6" class="node">
<title>users</title>
<polygon fill="#efefef" stroke="none" points="460.72,-320.4 460.72,-356 638.9,-356 638.9,-320.4 460.72,-320.4"/>
<polygon fill="none" stroke="black" points="460.72,-320.4 460.72,-356 638.9,-356 638.9,-320.4 460.72,-320.4"/>
<text text-anchor="start" x="496.69" y="-333.8" font-family="Arial Bold" font-size="18.00">users</text>
<text text-anchor="start" x="533.68" y="-333.8" font-family="Arial" font-size="14.00">    </text>
<text text-anchor="start" x="564.8" y="-333.8" font-family="Arial" font-size="14.00" fill="#666666">[table]</text>
<polygon fill="none" stroke="black" points="460.72,-289.6 460.72,-320.4 638.9,-320.4 638.9,-289.6 460.72,-289.6"/>
<text text-anchor="start" x="467.72" y="-301.8" font-family="Arial" font-size="14.00">id </text>
<text text-anchor="start" x="482.51" y="-301.8" font-family="Arial" font-size="14.00" fill="#666666">[INTEGER]</text>
<polygon fill="none" stroke="black" points="460.72,-258.8 460.72,-289.6 638.9,-289.6 638.9,-258.8 460.72,-258.8"/>
<text text-anchor="start" x="467.72" y="-271" font-family="Arial" font-size="14.00">email </text>
<text text-anchor="start" x="505.06" y="-271" font-family="Arial" font-size="14.00" fill="#666666">[VARCHAR]</text>
<polygon fill="none" stroke="black" points="460.72,-228 460.72,-258.8 638.9,-258.8 638.9,-228 460.72,-228"/>
<text text-anchor="start" x="467.72" y="-240.2" font-family="Arial" font-size="14.00">user_name </text>
<text text-anchor="start" x="541.65" y="-240.2" font-family="Arial" font-size="14.00" fill="#666666">[VARCHAR]</text>
<polygon fill="none" stroke="black" points="460.72,-197.2 460.72,-228 638.9,-228 638.9,-197.2 460.72,-197.2"/>
<text text-anchor="start" x="467.72" y="-209.4" font-family="Arial" font-size="14.00">first_name </text>
<text text-anchor="start" x="536.97" y="-209.4" font-family="Arial" font-size="14.00" fill="#666666">[VARCHAR]</text>
<polygon fill="none" stroke="black" points="460.72,-166.4 460.72,-197.2 638.9,-197.2 638.9,-166.4 460.72,-166.4"/>
<text text-anchor="start" x="467.72" y="-178.6" font-family="Arial" font-size="14.00">last_name </text>
<text text-anchor="start" x="536.2" y="-178.6" font-family="Arial" font-size="14.00" fill="#666666">[VARCHAR]</text>
<polygon fill="none" stroke="black" points="460.72,-135.6 460.72,-166.4 638.9,-166.4 638.9,-135.6 460.72,-135.6"/>
<text text-anchor="start" x="467.72" y="-147.8" font-family="Arial" font-size="14.00">date_of_birth </text>
<text text-anchor="start" x="553.34" y="-147.8" font-family="Arial" font-size="14.00" fill="#666666">[DATETIME]</text>
<polygon fill="none" stroke="black" points="460.72,-104.8 460.72,-135.6 638.9,-135.6 638.9,-104.8 460.72,-104.8"/>
<text text-anchor="start" x="467.72" y="-117" font-family="Arial" font-size="14.00">is_active </text>
<text text-anchor="start" x="526.08" y="-117" font-family="Arial" font-size="14.00" fill="#666666">[BOOLEAN]</text>
<polygon fill="none" stroke="black" points="460.72,-74 460.72,-104.8 638.9,-104.8 638.9,-74 460.72,-74"/>
<text text-anchor="start" x="467.72" y="-86.2" font-family="Arial" font-size="14.00">created_at </text>
<text text-anchor="start" x="537.77" y="-86.2" font-family="Arial" font-size="14.00" fill="#666666">[DATETIME]</text>
<polygon fill="none" stroke="black" points="460.72,-43.2 460.72,-74 638.9,-74 638.9,-43.2 460.72,-43.2"/>
<text text-anchor="start" x="467.72" y="-55.4" font-family="Arial" font-size="14.00">updated_at </text>
<text text-anchor="start" x="541.68" y="-55.4" font-family="Arial" font-size="14.00" fill="#666666">[DATETIME]</text>
</g>
<!-- posts&#45;&gt;users -->
<g id="edge5" class="edge">
<title>posts:author_id&#45;&gt;users:id</title>
<path fill="none" stroke="black" d="M648.81,-588.57C765.01,-573.87 762.76,-305 639.9,-305"/>
<polygon fill="black" stroke="black" points="649.05,-588.56 638.79,-584.69 643.72,-588.89 639.4,-589.16 639.4,-589.16 639.4,-589.16 643.72,-588.89 639.35,-593.67 649.05,-588.56"/>
<text text-anchor="start" x="645.73" y="-599.2" font-family="Arial" font-size="10.00">FOREIGN KEY (authorId) REFERENCES users(id)</text>
</g>
<!-- post_categories -->
<g id="node2" class="node">
<title>post_categories</title>
<polygon fill="#efefef" stroke="none" points="43.2,-1166 43.2,-1201.6 238.42,-1201.6 238.42,-1166 43.2,-1166"/>
<polygon fill="none" stroke="black" points="43.2,-1166 43.2,-1201.6 238.42,-1201.6 238.42,-1166 43.2,-1166"/>
<text text-anchor="start" x="50.2" y="-1179.4" font-family="Arial Bold" font-size="18.00">post_categories</text>
<text text-anchor="start" x="162.16" y="-1179.4" font-family="Arial" font-size="14.00">    </text>
<text text-anchor="start" x="193.28" y="-1179.4" font-family="Arial" font-size="14.00" fill="#666666">[table]</text>
<polygon fill="none" stroke="black" points="43.2,-1135.2 43.2,-1166 238.42,-1166 238.42,-1135.2 43.2,-1135.2"/>
<text text-anchor="start" x="50.2" y="-1147.4" font-family="Arial" font-size="14.00">post_id </text>
<text text-anchor="start" x="99.23" y="-1147.4" font-family="Arial" font-size="14.00" fill="#666666">[INTEGER]</text>
<polygon fill="none" stroke="black" points="43.2,-1104.4 43.2,-1135.2 238.42,-1135.2 238.42,-1104.4 43.2,-1104.4"/>
<text text-anchor="start" x="50.2" y="-1116.6" font-family="Arial" font-size="14.00">category_id </text>
<text text-anchor="start" x="126.47" y="-1116.6" font-family="Arial" font-size="14.00" fill="#666666">[INTEGER]</text>
<polygon fill="none" stroke="black" points="43.2,-1073.6 43.2,-1104.4 238.42,-1104.4 238.42,-1073.6 43.2,-1073.6"/>
<text text-anchor="start" x="50.2" y="-1085.8" font-family="Arial" font-size="14.00">is_primary </text>
<text text-anchor="start" x="118.66" y="-1085.8" font-family="Arial" font-size="14.00" fill="#666666">[BOOLEAN]</text>
<polygon fill="none" stroke="black" points="43.2,-1042.8 43.2,-1073.6 238.42,-1073.6 238.42,-1042.8 43.2,-1042.8"/>
<text text-anchor="start" x="50.2" y="-1055" font-family="Arial" font-size="14.00">added_at </text>
<text text-anchor="start" x="112.48" y="-1055" font-family="Arial" font-size="14.00" fill="#666666">[DATETIME]</text>
</g>
<!-- post_categories&#45;&gt;posts -->
<g id="edge1" class="edge">
<title>post_categories:post_id&#45;&gt;posts:id</title>
<path fill="none" stroke="black" d="M249.45,-1150.07C329.53,-1140.96 240.16,-1016.71 290.81,-938 342.77,-857.26 364.87,-804.8 460.89,-804.8"/>
<polygon fill="black" stroke="black" points="249.74,-1150.05 239.51,-1146.09 244.41,-1150.34 240.09,-1150.56 240.09,-1150.56 240.09,-1150.56 244.41,-1150.34 239.99,-1155.08 249.74,-1150.05"/>
<text text-anchor="start" x="130.78" y="-1134.6" font-family="Arial" font-size="10.00">FOREIGN KEY (postId) REFERENCES posts(id)</text>
</g>
<!-- post_tags -->
<g id="node3" class="node">
<title>post_tags</title>
<polygon fill="#efefef" stroke="none" points="343.18,-1135.2 343.18,-1170.8 494.44,-1170.8 494.44,-1135.2 343.18,-1135.2"/>
<polygon fill="none" stroke="black" points="343.18,-1135.2 343.18,-1170.8 494.44,-1170.8 494.44,-1135.2 343.18,-1135.2"/>
<text text-anchor="start" x="350.18" y="-1148.6" font-family="Arial Bold" font-size="18.00">post_tags</text>
<text text-anchor="start" x="418.18" y="-1148.6" font-family="Arial" font-size="14.00">    </text>
<text text-anchor="start" x="449.3" y="-1148.6" font-family="Arial" font-size="14.00" fill="#666666">[table]</text>
<polygon fill="none" stroke="black" points="343.18,-1104.4 343.18,-1135.2 494.44,-1135.2 494.44,-1104.4 343.18,-1104.4"/>
<text text-anchor="start" x="350.18" y="-1116.6" font-family="Arial" font-size="14.00">post_id </text>
<text text-anchor="start" x="399.22" y="-1116.6" font-family="Arial" font-size="14.00" fill="#666666">[INTEGER]</text>
<polygon fill="none" stroke="black" points="343.18,-1073.6 343.18,-1104.4 494.44,-1104.4 494.44,-1073.6 343.18,-1073.6"/>
<text text-anchor="start" x="350.18" y="-1085.8" font-family="Arial" font-size="14.00">tag_id </text>
<text text-anchor="start" x="392.22" y="-1085.8" font-family="Arial" font-size="14.00" fill="#666666">[INTEGER]</text>
</g>
<!-- post_tags&#45;&gt;posts -->
<g id="edge2" class="edge">
<title>post_tags:post_id&#45;&gt;posts:id</title>
<path fill="none" stroke="black" d="M505.64,-1119.15C619.92,-1103.41 323.76,-804.8 460.89,-804.8"/>
<polygon fill="black" stroke="black" points="505.75,-1119.15 495.49,-1115.29 500.43,-1119.48 496.1,-1119.76 496.1,-1119.76 496.1,-1119.76 500.43,-1119.48 496.06,-1124.27 505.75,-1119.15"/>
<text text-anchor="start" x="502.44" y="-1129.8" font-family="Arial" font-size="10.00">FOREIGN KEY (postId) REFERENCES posts(id)</text>
</g>
<!-- comments -->
<g id="node4" class="node">
<title>comments</title>
<polygon fill="#efefef" stroke="none" points="598.55,-1227.6 598.55,-1263.2 765.07,-1263.2 765.07,-1227.6 598.55,-1227.6"/>
<polygon fill="none" stroke="black" points="598.55,-1227.6 598.55,-1263.2 765.07,-1263.2 765.07,-1227.6 598.55,-1227.6"/>
<text text-anchor="start" x="610.19" y="-1241" font-family="Arial Bold" font-size="18.00">comments</text>
<text text-anchor="start" x="684.18" y="-1241" font-family="Arial" font-size="14.00">    </text>
<text text-anchor="start" x="715.29" y="-1241" font-family="Arial" font-size="14.00" fill="#666666">[table]</text>
<polygon fill="none" stroke="black" points="598.55,-1196.8 598.55,-1227.6 765.07,-1227.6 765.07,-1196.8 598.55,-1196.8"/>
<text text-anchor="start" x="605.55" y="-1209" font-family="Arial" font-size="14.00">id </text>
<text text-anchor="start" x="620.34" y="-1209" font-family="Arial" font-size="14.00" fill="#666666">[INTEGER]</text>
<polygon fill="none" stroke="black" points="598.55,-1166 598.55,-1196.8 765.07,-1196.8 765.07,-1166 598.55,-1166"/>
<text text-anchor="start" x="605.55" y="-1178.2" font-family="Arial" font-size="14.00">content </text>
<text text-anchor="start" x="655.36" y="-1178.2" font-family="Arial" font-size="14.00" fill="#666666">[VARCHAR]</text>
<polygon fill="none" stroke="black" points="598.55,-1135.2 598.55,-1166 765.07,-1166 765.07,-1135.2 598.55,-1135.2"/>
<text text-anchor="start" x="605.55" y="-1147.4" font-family="Arial" font-size="14.00">post_id </text>
<text text-anchor="start" x="654.59" y="-1147.4" font-family="Arial" font-size="14.00" fill="#666666">[INTEGER]</text>
<polygon fill="none" stroke="black" points="598.55,-1104.4 598.55,-1135.2 765.07,-1135.2 765.07,-1104.4 598.55,-1104.4"/>
<text text-anchor="start" x="605.55" y="-1116.6" font-family="Arial" font-size="14.00">author_id </text>
<text text-anchor="start" x="667.82" y="-1116.6" font-family="Arial" font-size="14.00" fill="#666666">[INTEGER]</text>
<polygon fill="none" stroke="black" points="598.55,-1073.6 598.55,-1104.4 765.07,-1104.4 765.07,-1073.6 598.55,-1073.6"/>
<text text-anchor="start" x="605.55" y="-1085.8" font-family="Arial" font-size="14.00">parent_id </text>
<text text-anchor="start" x="667.82" y="-1085.8" font-family="Arial" font-size="14.00" fill="#666666">[INTEGER]</text>
<polygon fill="none" stroke="black" points="598.55,-1042.8 598.55,-1073.6 765.07,-1073.6 765.07,-1042.8 598.55,-1042.8"/>
<text text-anchor="start" x="605.55" y="-1055" font-family="Arial" font-size="14.00">is_edited </text>
<text text-anchor="start" x="665.48" y="-1055" font-family="Arial" font-size="14.00" fill="#666666">[BOOLEAN]</text>
<polygon fill="none" stroke="black" points="598.55,-1012 598.55,-1042.8 765.07,-1042.8 765.07,-1012 598.55,-1012"/>
<text text-anchor="start" x="605.55" y="-1024.2" font-family="Arial" font-size="14.00">created_at </text>
<text text-anchor="start" x="675.6" y="-1024.2" font-family="Arial" font-size="14.00" fill="#666666">[DATETIME]</text>
<polygon fill="none" stroke="black" points="598.55,-981.2 598.55,-1012 765.07,-1012 765.07,-981.2 598.55,-981.2"/>
<text text-anchor="start" x="605.55" y="-993.4" font-family="Arial" font-size="14.00">updated_at </text>
<text text-anchor="start" x="679.51" y="-993.4" font-family="Arial" font-size="14.00" fill="#666666">[DATETIME]</text>
</g>
<!-- comments&#45;&gt;posts -->
<g id="edge3" class="edge">
<title>comments:post_id&#45;&gt;posts:id</title>
<path fill="none" stroke="black" d="M587.84,-1147.64C554.8,-1124.9 580.94,-977.84 598.55,-938 608.11,-916.37 628.11,-923.6 637.73,-902 655.31,-862.53 681.94,-804.8 638.73,-804.8"/>
<polygon fill="black" stroke="black" points="587.67,-1147.59 595.92,-1154.81 592.77,-1149.14 596.91,-1150.4 596.91,-1150.4 596.91,-1150.4 592.77,-1149.14 598.54,-1146.2 587.67,-1147.59"/>
<text text-anchor="start" x="604.55" y="-1160.6" font-family="Arial" font-size="10.00">FOREIGN KEY (postId) REFERENCES posts(id)</text>
</g>
<!-- post_likes -->
<g id="node5" class="node">
<title>post_likes</title>
<polygon fill="#efefef" stroke="none" points="869.68,-1150.6 869.68,-1186.2 1025.94,-1186.2 1025.94,-1150.6 869.68,-1150.6"/>
<polygon fill="none" stroke="black" points="869.68,-1150.6 869.68,-1186.2 1025.94,-1186.2 1025.94,-1150.6 869.68,-1150.6"/>
<text text-anchor="start" x="876.68" y="-1164" font-family="Arial Bold" font-size="18.00">post_likes</text>
<text text-anchor="start" x="949.68" y="-1164" font-family="Arial" font-size="14.00">    </text>
<text text-anchor="start" x="980.8" y="-1164" font-family="Arial" font-size="14.00" fill="#666666">[table]</text>
<polygon fill="none" stroke="black" points="869.68,-1119.8 869.68,-1150.6 1025.94,-1150.6 1025.94,-1119.8 869.68,-1119.8"/>
<text text-anchor="start" x="876.68" y="-1132" font-family="Arial" font-size="14.00">user_id </text>
<text text-anchor="start" x="926.49" y="-1132" font-family="Arial" font-size="14.00" fill="#666666">[INTEGER]</text>
<polygon fill="none" stroke="black" points="869.68,-1089 869.68,-1119.8 1025.94,-1119.8 1025.94,-1089 869.68,-1089"/>
<text text-anchor="start" x="876.68" y="-1101.2" font-family="Arial" font-size="14.00">post_id </text>
<text text-anchor="start" x="925.72" y="-1101.2" font-family="Arial" font-size="14.00" fill="#666666">[INTEGER]</text>
<polygon fill="none" stroke="black" points="869.68,-1058.2 869.68,-1089 1025.94,-1089 1025.94,-1058.2 869.68,-1058.2"/>
<text text-anchor="start" x="876.68" y="-1070.4" font-family="Arial" font-size="14.00">liked_at </text>
<text text-anchor="start" x="928.83" y="-1070.4" font-family="Arial" font-size="14.00" fill="#666666">[DATETIME]</text>
</g>
<!-- post_likes&#45;&gt;posts -->
<g id="edge4" class="edge">
<title>post_likes:post_id&#45;&gt;posts:id</title>
<path fill="none" stroke="black" d="M858.36,-1103.68C797.81,-1094.42 859.34,-998.17 816.81,-938 759.75,-857.3 737.57,-804.8 638.73,-804.8"/>
<polygon fill="black" stroke="black" points="858.37,-1103.68 868.03,-1108.87 863.69,-1104.05 868.01,-1104.35 868.01,-1104.35 868.01,-1104.35 863.69,-1104.05 868.66,-1099.89 858.37,-1103.68"/>
<text text-anchor="start" x="875.68" y="-1114.4" font-family="Arial" font-size="10.00">FOREIGN KEY (postId) REFERENCES posts(id)</text>
</g>
</g>
</svg>
