<?xml version="1.0" encoding="UTF-8" standalone="no"?>
<!DOCTYPE svg PUBLIC "-//W3C//DTD SVG 1.1//EN"
 "http://www.w3.org/Graphics/SVG/1.1/DTD/svg11.dtd">
<!-- Generated by graphviz version 12.1.2 (20240928.0832)
 -->
<!-- Title: post_tags Pages: 1 -->
<svg width="614pt" height="694pt"
 viewBox="0.00 0.00 613.80 694.40" xmlns="http://www.w3.org/2000/svg" xmlns:xlink="http://www.w3.org/1999/xlink">
<g id="graph0" class="graph" transform="scale(1 1) rotate(0) translate(4 690.4)">
<title>post_tags</title>
<polygon fill="white" stroke="none" points="-4,4 -4,-690.4 609.8,-690.4 609.8,4 -4,4"/>
<!-- post_tags -->
<g id="node1" class="node">
<title>post_tags</title>
<polygon fill="#efefef" stroke="none" points="232.27,-604.6 232.27,-640.2 383.53,-640.2 383.53,-604.6 232.27,-604.6"/>
<polygon fill="none" stroke="black" points="232.27,-604.6 232.27,-640.2 383.53,-640.2 383.53,-604.6 232.27,-604.6"/>
<text text-anchor="start" x="239.27" y="-618" font-family="Arial Bold" font-size="18.00">post_tags</text>
<text text-anchor="start" x="307.27" y="-618" font-family="Arial" font-size="14.00">    </text>
<text text-anchor="start" x="338.39" y="-618" font-family="Arial" font-size="14.00" fill="#666666">[table]</text>
<polygon fill="none" stroke="black" points="232.27,-573.8 232.27,-604.6 383.53,-604.6 383.53,-573.8 232.27,-573.8"/>
<text text-anchor="start" x="239.27" y="-586" font-family="Arial" font-size="14.00">post_id </text>
<text text-anchor="start" x="288.3" y="-586" font-family="Arial" font-size="14.00" fill="#666666">[INTEGER]</text>
<polygon fill="none" stroke="black" points="232.27,-543 232.27,-573.8 383.53,-573.8 383.53,-543 232.27,-543"/>
<text text-anchor="start" x="239.27" y="-555.2" font-family="Arial" font-size="14.00">tag_id </text>
<text text-anchor="start" x="281.3" y="-555.2" font-family="Arial" font-size="14.00" fill="#666666">[INTEGER]</text>
<polygon fill="none" stroke="black" stroke-width="3" points="230.77,-541.5 230.77,-641.7 385.03,-641.7 385.03,-541.5 230.77,-541.5"/>
</g>
<!-- posts -->
<g id="node2" class="node">
<title>posts</title>
<polygon fill="#efefef" stroke="none" points="82.97,-382 82.97,-417.6 258.82,-417.6 258.82,-382 82.97,-382"/>
<polygon fill="none" stroke="black" points="82.97,-382 82.97,-417.6 258.82,-417.6 258.82,-382 82.97,-382"/>
<text text-anchor="start" x="117.77" y="-395.4" font-family="Arial Bold" font-size="18.00">posts</text>
<text text-anchor="start" x="154.78" y="-395.4" font-family="Arial" font-size="14.00">    </text>
<text text-anchor="start" x="185.89" y="-395.4" font-family="Arial" font-size="14.00" fill="#666666">[table]</text>
<polygon fill="none" stroke="black" points="82.97,-351.2 82.97,-382 258.82,-382 258.82,-351.2 82.97,-351.2"/>
<text text-anchor="start" x="89.97" y="-363.4" font-family="Arial" font-size="14.00">id </text>
<text text-anchor="start" x="104.76" y="-363.4" font-family="Arial" font-size="14.00" fill="#666666">[INTEGER]</text>
<polygon fill="none" stroke="black" points="82.97,-320.4 82.97,-351.2 258.82,-351.2 258.82,-320.4 82.97,-320.4"/>
<text text-anchor="start" x="89.97" y="-332.6" font-family="Arial" font-size="14.00">title </text>
<text text-anchor="start" x="115.65" y="-332.6" font-family="Arial" font-size="14.00" fill="#666666">[VARCHAR]</text>
<polygon fill="none" stroke="black" points="82.97,-289.6 82.97,-320.4 258.82,-320.4 258.82,-289.6 82.97,-289.6"/>
<text text-anchor="start" x="89.97" y="-301.8" font-family="Arial" font-size="14.00">slug </text>
<text text-anchor="start" x="119.55" y="-301.8" font-family="Arial" font-size="14.00" fill="#666666">[VARCHAR]</text>
<polygon fill="none" stroke="black" points="82.97,-258.8 82.97,-289.6 258.82,-289.6 258.82,-258.8 82.97,-258.8"/>
<text text-anchor="start" x="89.97" y="-271" font-family="Arial" font-size="14.00">content </text>
<text text-anchor="start" x="139.79" y="-271" font-family="Arial" font-size="14.00" fill="#666666">[VARCHAR]</text>
<polygon fill="none" stroke="black" points="82.97,-228 82.97,-258.8 258.82,-258.8 258.82,-228 82.97,-228"/>
<text text-anchor="start" x="89.97" y="-240.2" font-family="Arial" font-size="14.00">excerpt </text>
<text text-anchor="start" x="139.77" y="-240.2" font-family="Arial" font-size="14.00" fill="#666666">[VARCHAR]</text>
<polygon fill="none" stroke="black" points="82.97,-197.2 82.97,-228 258.82,-228 258.82,-197.2 82.97,-197.2"/>
<text text-anchor="start" x="89.97" y="-209.4" font-family="Arial" font-size="14.00">status </text>
<text text-anchor="start" x="131.22" y="-209.4" font-family="Arial" font-size="14.00" fill="#666666">[PostStatus]</text>
<polygon fill="none" stroke="black" points="82.97,-166.4 82.97,-197.2 258.82,-197.2 258.82,-166.4 82.97,-166.4"/>
<text text-anchor="start" x="89.97" y="-178.6" font-family="Arial" font-size="14.00">published_at </text>
<text text-anchor="start" x="173.26" y="-178.6" font-family="Arial" font-size="14.00" fill="#666666">[DATETIME]</text>
<polygon fill="none" stroke="black" points="82.97,-135.6 82.97,-166.4 258.82,-166.4 258.82,-135.6 82.97,-135.6"/>
<text text-anchor="start" x="89.97" y="-147.8" font-family="Arial" font-size="14.00">author_id </text>
<text text-anchor="start" x="152.24" y="-147.8" font-family="Arial" font-size="14.00" fill="#666666">[INTEGER]</text>
<polygon fill="none" stroke="black" points="82.97,-104.8 82.97,-135.6 258.82,-135.6 258.82,-104.8 82.97,-104.8"/>
<text text-anchor="start" x="89.97" y="-117" font-family="Arial" font-size="14.00">view_count </text>
<text text-anchor="start" x="163.91" y="-117" font-family="Arial" font-size="14.00" fill="#666666">[INTEGER]</text>
<polygon fill="none" stroke="black" points="82.97,-74 82.97,-104.8 258.82,-104.8 258.82,-74 82.97,-74"/>
<text text-anchor="start" x="89.97" y="-86.2" font-family="Arial" font-size="14.00">created_at </text>
<text text-anchor="start" x="160.02" y="-86.2" font-family="Arial" font-size="14.00" fill="#666666">[DATETIME]</text>
<polygon fill="none" stroke="black" points="82.97,-43.2 82.97,-74 258.82,-74 258.82,-43.2 82.97,-43.2"/>
<text text-anchor="start" x="89.97" y="-55.4" font-family="Arial" font-size="14.00">updated_at </text>
<text text-anchor="start" x="163.93" y="-55.4" font-family="Arial" font-size="14.00" fill="#666666">[DATETIME]</text>
</g>
<!-- post_tags&#45;&gt;posts -->
<g id="edge1" class="edge">
<title>post_tags:post_id&#45;&gt;posts:id</title>
<path fill="none" stroke="black" d="M221.16,-587.73C195.72,-578.9 220.5,-531.94 232.27,-496.8 238.58,-477.95 252.51,-479.65 258.82,-460.8 272.11,-421.1 301.69,-366.6 259.82,-366.6"/>
<polygon fill="black" stroke="black" points="221.04,-587.72 230.29,-593.61 226.32,-588.48 230.61,-589.1 230.61,-589.1 230.61,-589.1 226.32,-588.48 231.59,-584.7 221.04,-587.72"/>
<text text-anchor="start" x="7" y="-599.2" font-family="Arial" font-size="10.00">FOREIGN KEY (postId) REFERENCES posts(id)</text>
</g>
<!-- tags -->
<g id="node3" class="node">
<title>tags</title>
<polygon fill="#efefef" stroke="none" points="363.6,-274.2 363.6,-309.8 526.2,-309.8 526.2,-274.2 363.6,-274.2"/>
<polygon fill="none" stroke="black" points="363.6,-274.2 363.6,-309.8 526.2,-309.8 526.2,-274.2 363.6,-274.2"/>
<text text-anchor="start" x="395.77" y="-287.6" font-family="Arial Bold" font-size="18.00">tags</text>
<text text-anchor="start" x="424.77" y="-287.6" font-family="Arial" font-size="14.00">    </text>
<text text-anchor="start" x="455.89" y="-287.6" font-family="Arial" font-size="14.00" fill="#666666">[table]</text>
<polygon fill="none" stroke="black" points="363.6,-243.4 363.6,-274.2 526.2,-274.2 526.2,-243.4 363.6,-243.4"/>
<text text-anchor="start" x="370.6" y="-255.6" font-family="Arial" font-size="14.00">id </text>
<text text-anchor="start" x="385.38" y="-255.6" font-family="Arial" font-size="14.00" fill="#666666">[INTEGER]</text>
<polygon fill="none" stroke="black" points="363.6,-212.6 363.6,-243.4 526.2,-243.4 526.2,-212.6 363.6,-212.6"/>
<text text-anchor="start" x="370.6" y="-224.8" font-family="Arial" font-size="14.00">name </text>
<text text-anchor="start" x="409.51" y="-224.8" font-family="Arial" font-size="14.00" fill="#666666">[VARCHAR]</text>
<polygon fill="none" stroke="black" points="363.6,-181.8 363.6,-212.6 526.2,-212.6 526.2,-181.8 363.6,-181.8"/>
<text text-anchor="start" x="370.6" y="-194" font-family="Arial" font-size="14.00">color </text>
<text text-anchor="start" x="404.83" y="-194" font-family="Arial" font-size="14.00" fill="#666666">[VARCHAR]</text>
<polygon fill="none" stroke="black" points="363.6,-151 363.6,-181.8 526.2,-181.8 526.2,-151 363.6,-151"/>
<text text-anchor="start" x="370.6" y="-163.2" font-family="Arial" font-size="14.00">created_at </text>
<text text-anchor="start" x="440.64" y="-163.2" font-family="Arial" font-size="14.00" fill="#666666">[DATETIME]</text>
</g>
<!-- post_tags&#45;&gt;tags -->
<g id="edge2" class="edge">
<title>post_tags:tag_id&#45;&gt;tags:id</title>
<path fill="none" stroke="black" d="M394.87,-557.69C502.01,-541.67 232.86,-258.8 362.6,-258.8"/>
<polygon fill="black" stroke="black" points="394.84,-557.7 384.55,-553.89 389.51,-558.06 385.19,-558.35 385.19,-558.35 385.19,-558.35 389.51,-558.06 385.17,-562.87 394.84,-557.7"/>
<text text-anchor="start" x="391.53" y="-568.4" font-family="Arial" font-size="10.00">FOREIGN KEY (tagId) REFERENCES tags(id)</text>
</g>
</g>
</svg>
