<?xml version="1.0" encoding="UTF-8" standalone="no"?>
<!DOCTYPE svg PUBLIC "-//W3C//DTD SVG 1.1//EN"
 "http://www.w3.org/Graphics/SVG/1.1/DTD/svg11.dtd">
<!-- Generated by graphviz version 12.1.2 (20240928.0832)
 -->
<!-- Title: Database Schema Pages: 1 -->
<svg width="2340pt" height="1534pt"
 viewBox="0.00 0.00 2340.02 1533.70" xmlns="http://www.w3.org/2000/svg" xmlns:xlink="http://www.w3.org/1999/xlink">
<g id="graph0" class="graph" transform="scale(1 1) rotate(0) translate(4 1529.7)">
<title>Database Schema</title>
<polygon fill="white" stroke="none" points="-4,4 -4,-1529.7 2336.02,-1529.7 2336.02,4 -4,4"/>
<!-- users -->
<g id="node1" class="node">
<title>users</title>
<polygon fill="#efefef" stroke="none" points="641.1,-320.4 641.1,-356 819.28,-356 819.28,-320.4 641.1,-320.4"/>
<polygon fill="none" stroke="black" points="641.1,-320.4 641.1,-356 819.28,-356 819.28,-320.4 641.1,-320.4"/>
<text text-anchor="start" x="677.07" y="-333.8" font-family="Arial Bold" font-size="18.00">users</text>
<text text-anchor="start" x="714.06" y="-333.8" font-family="Arial" font-size="14.00">    </text>
<text text-anchor="start" x="745.18" y="-333.8" font-family="Arial" font-size="14.00" fill="#666666">[table]</text>
<polygon fill="none" stroke="black" points="641.1,-289.6 641.1,-320.4 819.28,-320.4 819.28,-289.6 641.1,-289.6"/>
<text text-anchor="start" x="648.1" y="-301.8" font-family="Arial" font-size="14.00">id </text>
<text text-anchor="start" x="662.89" y="-301.8" font-family="Arial" font-size="14.00" fill="#666666">[INTEGER]</text>
<polygon fill="none" stroke="black" points="641.1,-258.8 641.1,-289.6 819.28,-289.6 819.28,-258.8 641.1,-258.8"/>
<text text-anchor="start" x="648.1" y="-271" font-family="Arial" font-size="14.00">email </text>
<text text-anchor="start" x="685.45" y="-271" font-family="Arial" font-size="14.00" fill="#666666">[VARCHAR]</text>
<polygon fill="none" stroke="black" points="641.1,-228 641.1,-258.8 819.28,-258.8 819.28,-228 641.1,-228"/>
<text text-anchor="start" x="648.1" y="-240.2" font-family="Arial" font-size="14.00">user_name </text>
<text text-anchor="start" x="722.04" y="-240.2" font-family="Arial" font-size="14.00" fill="#666666">[VARCHAR]</text>
<polygon fill="none" stroke="black" points="641.1,-197.2 641.1,-228 819.28,-228 819.28,-197.2 641.1,-197.2"/>
<text text-anchor="start" x="648.1" y="-209.4" font-family="Arial" font-size="14.00">first_name </text>
<text text-anchor="start" x="717.35" y="-209.4" font-family="Arial" font-size="14.00" fill="#666666">[VARCHAR]</text>
<polygon fill="none" stroke="black" points="641.1,-166.4 641.1,-197.2 819.28,-197.2 819.28,-166.4 641.1,-166.4"/>
<text text-anchor="start" x="648.1" y="-178.6" font-family="Arial" font-size="14.00">last_name </text>
<text text-anchor="start" x="716.59" y="-178.6" font-family="Arial" font-size="14.00" fill="#666666">[VARCHAR]</text>
<polygon fill="none" stroke="black" points="641.1,-135.6 641.1,-166.4 819.28,-166.4 819.28,-135.6 641.1,-135.6"/>
<text text-anchor="start" x="648.1" y="-147.8" font-family="Arial" font-size="14.00">date_of_birth </text>
<text text-anchor="start" x="733.73" y="-147.8" font-family="Arial" font-size="14.00" fill="#666666">[DATETIME]</text>
<polygon fill="none" stroke="black" points="641.1,-104.8 641.1,-135.6 819.28,-135.6 819.28,-104.8 641.1,-104.8"/>
<text text-anchor="start" x="648.1" y="-117" font-family="Arial" font-size="14.00">is_active </text>
<text text-anchor="start" x="706.46" y="-117" font-family="Arial" font-size="14.00" fill="#666666">[BOOLEAN]</text>
<polygon fill="none" stroke="black" points="641.1,-74 641.1,-104.8 819.28,-104.8 819.28,-74 641.1,-74"/>
<text text-anchor="start" x="648.1" y="-86.2" font-family="Arial" font-size="14.00">created_at </text>
<text text-anchor="start" x="718.15" y="-86.2" font-family="Arial" font-size="14.00" fill="#666666">[DATETIME]</text>
<polygon fill="none" stroke="black" points="641.1,-43.2 641.1,-74 819.28,-74 819.28,-43.2 641.1,-43.2"/>
<text text-anchor="start" x="648.1" y="-55.4" font-family="Arial" font-size="14.00">updated_at </text>
<text text-anchor="start" x="722.06" y="-55.4" font-family="Arial" font-size="14.00" fill="#666666">[DATETIME]</text>
</g>
<!-- user_profiles -->
<g id="node2" class="node">
<title>user_profiles</title>
<polygon fill="#efefef" stroke="none" points="641.58,-740.2 641.58,-775.8 818.81,-775.8 818.81,-740.2 641.58,-740.2"/>
<polygon fill="none" stroke="black" points="641.58,-740.2 641.58,-775.8 818.81,-775.8 818.81,-740.2 641.58,-740.2"/>
<text text-anchor="start" x="648.58" y="-753.6" font-family="Arial Bold" font-size="18.00">user_profiles</text>
<text text-anchor="start" x="742.55" y="-753.6" font-family="Arial" font-size="14.00">    </text>
<text text-anchor="start" x="773.67" y="-753.6" font-family="Arial" font-size="14.00" fill="#666666">[table]</text>
<polygon fill="none" stroke="black" points="641.58,-709.4 641.58,-740.2 818.81,-740.2 818.81,-709.4 641.58,-709.4"/>
<text text-anchor="start" x="648.58" y="-721.6" font-family="Arial" font-size="14.00">id </text>
<text text-anchor="start" x="663.37" y="-721.6" font-family="Arial" font-size="14.00" fill="#666666">[INTEGER]</text>
<polygon fill="none" stroke="black" points="641.58,-678.6 641.58,-709.4 818.81,-709.4 818.81,-678.6 641.58,-678.6"/>
<text text-anchor="start" x="648.58" y="-690.8" font-family="Arial" font-size="14.00">user_id </text>
<text text-anchor="start" x="698.39" y="-690.8" font-family="Arial" font-size="14.00" fill="#666666">[INTEGER]</text>
<polygon fill="none" stroke="black" points="641.58,-647.8 641.58,-678.6 818.81,-678.6 818.81,-647.8 641.58,-647.8"/>
<text text-anchor="start" x="648.58" y="-660" font-family="Arial" font-size="14.00">bio </text>
<text text-anchor="start" x="671.15" y="-660" font-family="Arial" font-size="14.00" fill="#666666">[VARCHAR]</text>
<polygon fill="none" stroke="black" points="641.58,-617 641.58,-647.8 818.81,-647.8 818.81,-617 641.58,-617"/>
<text text-anchor="start" x="648.58" y="-629.2" font-family="Arial" font-size="14.00">website </text>
<text text-anchor="start" x="699.94" y="-629.2" font-family="Arial" font-size="14.00" fill="#666666">[VARCHAR]</text>
<polygon fill="none" stroke="black" points="641.58,-586.2 641.58,-617 818.81,-617 818.81,-586.2 641.58,-586.2"/>
<text text-anchor="start" x="648.58" y="-598.4" font-family="Arial" font-size="14.00">location </text>
<text text-anchor="start" x="700.73" y="-598.4" font-family="Arial" font-size="14.00" fill="#666666">[VARCHAR]</text>
<polygon fill="none" stroke="black" points="641.58,-555.4 641.58,-586.2 818.81,-586.2 818.81,-555.4 641.58,-555.4"/>
<text text-anchor="start" x="648.58" y="-567.6" font-family="Arial" font-size="14.00">avatar </text>
<text text-anchor="start" x="691.38" y="-567.6" font-family="Arial" font-size="14.00" fill="#666666">[VARCHAR]</text>
</g>
<!-- user_profiles&#45;&gt;users -->
<g id="edge1" class="edge">
<title>user_profiles:user_id&#45;&gt;users:id</title>
<path fill="none" stroke="black" d="M828.29,-688.5C862.88,-641.22 860.47,-305 820.28,-305"/>
<polygon fill="black" stroke="black" points="828.48,-688.38 817.64,-690.04 824,-691.28 820.37,-693.64 820.37,-693.64 820.37,-693.64 824,-691.28 822.54,-697.59 828.48,-688.38"/>
<text text-anchor="start" x="826.81" y="-704" font-family="Arial" font-size="10.00">FOREIGN KEY (userId) REFERENCES users(id)</text>
</g>
<!-- categories -->
<g id="node3" class="node">
<title>categories</title>
<polygon fill="#efefef" stroke="none" points="1282.28,-740.2 1282.28,-775.8 1444.11,-775.8 1444.11,-740.2 1282.28,-740.2"/>
<polygon fill="none" stroke="black" points="1282.28,-740.2 1282.28,-775.8 1444.11,-775.8 1444.11,-740.2 1282.28,-740.2"/>
<text text-anchor="start" x="1292.09" y="-753.6" font-family="Arial Bold" font-size="18.00">categories</text>
<text text-anchor="start" x="1365.05" y="-753.6" font-family="Arial" font-size="14.00">    </text>
<text text-anchor="start" x="1396.16" y="-753.6" font-family="Arial" font-size="14.00" fill="#666666">[table]</text>
<polygon fill="none" stroke="black" points="1282.28,-709.4 1282.28,-740.2 1444.11,-740.2 1444.11,-709.4 1282.28,-709.4"/>
<text text-anchor="start" x="1289.28" y="-721.6" font-family="Arial" font-size="14.00">id </text>
<text text-anchor="start" x="1304.07" y="-721.6" font-family="Arial" font-size="14.00" fill="#666666">[INTEGER]</text>
<polygon fill="none" stroke="black" points="1282.28,-678.6 1282.28,-709.4 1444.11,-709.4 1444.11,-678.6 1282.28,-678.6"/>
<text text-anchor="start" x="1289.28" y="-690.8" font-family="Arial" font-size="14.00">name </text>
<text text-anchor="start" x="1328.19" y="-690.8" font-family="Arial" font-size="14.00" fill="#666666">[VARCHAR]</text>
<polygon fill="none" stroke="black" points="1282.28,-647.8 1282.28,-678.6 1444.11,-678.6 1444.11,-647.8 1282.28,-647.8"/>
<text text-anchor="start" x="1289.28" y="-660" font-family="Arial" font-size="14.00">slug </text>
<text text-anchor="start" x="1318.85" y="-660" font-family="Arial" font-size="14.00" fill="#666666">[VARCHAR]</text>
<polygon fill="none" stroke="black" points="1282.28,-617 1282.28,-647.8 1444.11,-647.8 1444.11,-617 1282.28,-617"/>
<text text-anchor="start" x="1289.28" y="-629.2" font-family="Arial" font-size="14.00">description </text>
<text text-anchor="start" x="1360.87" y="-629.2" font-family="Arial" font-size="14.00" fill="#666666">[VARCHAR]</text>
<polygon fill="none" stroke="black" points="1282.28,-586.2 1282.28,-617 1444.11,-617 1444.11,-586.2 1282.28,-586.2"/>
<text text-anchor="start" x="1289.28" y="-598.4" font-family="Arial" font-size="14.00">color </text>
<text text-anchor="start" x="1323.52" y="-598.4" font-family="Arial" font-size="14.00" fill="#666666">[VARCHAR]</text>
<polygon fill="none" stroke="black" points="1282.28,-555.4 1282.28,-586.2 1444.11,-586.2 1444.11,-555.4 1282.28,-555.4"/>
<text text-anchor="start" x="1289.28" y="-567.6" font-family="Arial" font-size="14.00">parent_id </text>
<text text-anchor="start" x="1351.55" y="-567.6" font-family="Arial" font-size="14.00" fill="#666666">[INTEGER]</text>
</g>
<!-- categories&#45;&gt;categories -->
<g id="edge2" class="edge">
<title>categories:parent_id&#45;&gt;categories:id</title>
<path fill="none" stroke="black" d="M1364.75,-596.5C1372.16,-738.48 1371.64,-1044.3 1363.19,-1044.3 1354.55,-1044.3 1354.21,-865.84 1362.18,-739.88"/>
<polygon fill="black" stroke="black" points="1364.75,-596.47 1368.7,-586.24 1364.46,-591.15 1364.22,-586.82 1364.22,-586.82 1364.22,-586.82 1364.46,-591.15 1359.71,-586.74 1364.75,-596.47"/>
<text text-anchor="start" x="1371.18" y="-596.15" font-family="Arial" font-size="10.00">FOREIGN KEY (parentId) REFERENCES categories(id)</text>
</g>
<!-- posts -->
<g id="node4" class="node">
<title>posts</title>
<polygon fill="#efefef" stroke="none" points="999.27,-817.2 999.27,-852.8 1175.12,-852.8 1175.12,-817.2 999.27,-817.2"/>
<polygon fill="none" stroke="black" points="999.27,-817.2 999.27,-852.8 1175.12,-852.8 1175.12,-817.2 999.27,-817.2"/>
<text text-anchor="start" x="1034.06" y="-830.6" font-family="Arial Bold" font-size="18.00">posts</text>
<text text-anchor="start" x="1071.07" y="-830.6" font-family="Arial" font-size="14.00">    </text>
<text text-anchor="start" x="1102.19" y="-830.6" font-family="Arial" font-size="14.00" fill="#666666">[table]</text>
<polygon fill="none" stroke="black" points="999.27,-786.4 999.27,-817.2 1175.12,-817.2 1175.12,-786.4 999.27,-786.4"/>
<text text-anchor="start" x="1006.27" y="-798.6" font-family="Arial" font-size="14.00">id </text>
<text text-anchor="start" x="1021.06" y="-798.6" font-family="Arial" font-size="14.00" fill="#666666">[INTEGER]</text>
<polygon fill="none" stroke="black" points="999.27,-755.6 999.27,-786.4 1175.12,-786.4 1175.12,-755.6 999.27,-755.6"/>
<text text-anchor="start" x="1006.27" y="-767.8" font-family="Arial" font-size="14.00">title </text>
<text text-anchor="start" x="1031.95" y="-767.8" font-family="Arial" font-size="14.00" fill="#666666">[VARCHAR]</text>
<polygon fill="none" stroke="black" points="999.27,-724.8 999.27,-755.6 1175.12,-755.6 1175.12,-724.8 999.27,-724.8"/>
<text text-anchor="start" x="1006.27" y="-737" font-family="Arial" font-size="14.00">slug </text>
<text text-anchor="start" x="1035.84" y="-737" font-family="Arial" font-size="14.00" fill="#666666">[VARCHAR]</text>
<polygon fill="none" stroke="black" points="999.27,-694 999.27,-724.8 1175.12,-724.8 1175.12,-694 999.27,-694"/>
<text text-anchor="start" x="1006.27" y="-706.2" font-family="Arial" font-size="14.00">content </text>
<text text-anchor="start" x="1056.08" y="-706.2" font-family="Arial" font-size="14.00" fill="#666666">[VARCHAR]</text>
<polygon fill="none" stroke="black" points="999.27,-663.2 999.27,-694 1175.12,-694 1175.12,-663.2 999.27,-663.2"/>
<text text-anchor="start" x="1006.27" y="-675.4" font-family="Arial" font-size="14.00">excerpt </text>
<text text-anchor="start" x="1056.07" y="-675.4" font-family="Arial" font-size="14.00" fill="#666666">[VARCHAR]</text>
<polygon fill="none" stroke="black" points="999.27,-632.4 999.27,-663.2 1175.12,-663.2 1175.12,-632.4 999.27,-632.4"/>
<text text-anchor="start" x="1006.27" y="-644.6" font-family="Arial" font-size="14.00">status </text>
<text text-anchor="start" x="1047.51" y="-644.6" font-family="Arial" font-size="14.00" fill="#666666">[PostStatus]</text>
<polygon fill="none" stroke="black" points="999.27,-601.6 999.27,-632.4 1175.12,-632.4 1175.12,-601.6 999.27,-601.6"/>
<text text-anchor="start" x="1006.27" y="-613.8" font-family="Arial" font-size="14.00">published_at </text>
<text text-anchor="start" x="1089.56" y="-613.8" font-family="Arial" font-size="14.00" fill="#666666">[DATETIME]</text>
<polygon fill="none" stroke="black" points="999.27,-570.8 999.27,-601.6 1175.12,-601.6 1175.12,-570.8 999.27,-570.8"/>
<text text-anchor="start" x="1006.27" y="-583" font-family="Arial" font-size="14.00">author_id </text>
<text text-anchor="start" x="1068.54" y="-583" font-family="Arial" font-size="14.00" fill="#666666">[INTEGER]</text>
<polygon fill="none" stroke="black" points="999.27,-540 999.27,-570.8 1175.12,-570.8 1175.12,-540 999.27,-540"/>
<text text-anchor="start" x="1006.27" y="-552.2" font-family="Arial" font-size="14.00">view_count </text>
<text text-anchor="start" x="1080.2" y="-552.2" font-family="Arial" font-size="14.00" fill="#666666">[INTEGER]</text>
<polygon fill="none" stroke="black" points="999.27,-509.2 999.27,-540 1175.12,-540 1175.12,-509.2 999.27,-509.2"/>
<text text-anchor="start" x="1006.27" y="-521.4" font-family="Arial" font-size="14.00">created_at </text>
<text text-anchor="start" x="1076.32" y="-521.4" font-family="Arial" font-size="14.00" fill="#666666">[DATETIME]</text>
<polygon fill="none" stroke="black" points="999.27,-478.4 999.27,-509.2 1175.12,-509.2 1175.12,-478.4 999.27,-478.4"/>
<text text-anchor="start" x="1006.27" y="-490.6" font-family="Arial" font-size="14.00">updated_at </text>
<text text-anchor="start" x="1080.23" y="-490.6" font-family="Arial" font-size="14.00" fill="#666666">[DATETIME]</text>
</g>
<!-- posts&#45;&gt;users -->
<g id="edge3" class="edge">
<title>posts:author_id&#45;&gt;users:id</title>
<path fill="none" stroke="black" d="M987.95,-585.47C932.04,-576.78 977.87,-492.87 942.19,-435.2 900.49,-367.79 899.56,-305 820.28,-305"/>
<polygon fill="black" stroke="black" points="987.96,-585.47 997.62,-590.66 993.28,-585.84 997.6,-586.15 997.6,-586.15 997.6,-586.15 993.28,-585.84 998.26,-581.69 987.96,-585.47"/>
<text text-anchor="start" x="884.63" y="-570.2" font-family="Arial" font-size="10.00">FOREIGN KEY (authorId) REFERENCES users(id)</text>
</g>
<!-- post_categories -->
<g id="node5" class="node">
<title>post_categories</title>
<polygon fill="#efefef" stroke="none" points="1265.58,-1160 1265.58,-1195.6 1460.8,-1195.6 1460.8,-1160 1265.58,-1160"/>
<polygon fill="none" stroke="black" points="1265.58,-1160 1265.58,-1195.6 1460.8,-1195.6 1460.8,-1160 1265.58,-1160"/>
<text text-anchor="start" x="1272.58" y="-1173.4" font-family="Arial Bold" font-size="18.00">post_categories</text>
<text text-anchor="start" x="1384.55" y="-1173.4" font-family="Arial" font-size="14.00">    </text>
<text text-anchor="start" x="1415.67" y="-1173.4" font-family="Arial" font-size="14.00" fill="#666666">[table]</text>
<polygon fill="none" stroke="black" points="1265.58,-1129.2 1265.58,-1160 1460.8,-1160 1460.8,-1129.2 1265.58,-1129.2"/>
<text text-anchor="start" x="1272.58" y="-1141.4" font-family="Arial" font-size="14.00">post_id </text>
<text text-anchor="start" x="1321.62" y="-1141.4" font-family="Arial" font-size="14.00" fill="#666666">[INTEGER]</text>
<polygon fill="none" stroke="black" points="1265.58,-1098.4 1265.58,-1129.2 1460.8,-1129.2 1460.8,-1098.4 1265.58,-1098.4"/>
<text text-anchor="start" x="1272.58" y="-1110.6" font-family="Arial" font-size="14.00">category_id </text>
<text text-anchor="start" x="1348.85" y="-1110.6" font-family="Arial" font-size="14.00" fill="#666666">[INTEGER]</text>
<polygon fill="none" stroke="black" points="1265.58,-1067.6 1265.58,-1098.4 1460.8,-1098.4 1460.8,-1067.6 1265.58,-1067.6"/>
<text text-anchor="start" x="1272.58" y="-1079.8" font-family="Arial" font-size="14.00">is_primary </text>
<text text-anchor="start" x="1341.04" y="-1079.8" font-family="Arial" font-size="14.00" fill="#666666">[BOOLEAN]</text>
<polygon fill="none" stroke="black" points="1265.58,-1036.8 1265.58,-1067.6 1460.8,-1067.6 1460.8,-1036.8 1265.58,-1036.8"/>
<text text-anchor="start" x="1272.58" y="-1049" font-family="Arial" font-size="14.00">added_at </text>
<text text-anchor="start" x="1334.87" y="-1049" font-family="Arial" font-size="14.00" fill="#666666">[DATETIME]</text>
</g>
<!-- post_categories&#45;&gt;categories -->
<g id="edge5" class="edge">
<title>post_categories:category_id&#45;&gt;categories:id</title>
<path fill="none" stroke="black" d="M1470.26,-1108C1502.51,-1059.61 1485.24,-724.8 1445.11,-724.8"/>
<polygon fill="black" stroke="black" points="1470.32,-1107.95 1459.53,-1109.9 1465.93,-1110.97 1462.36,-1113.42 1462.36,-1113.42 1462.36,-1113.42 1465.93,-1110.97 1464.63,-1117.32 1470.32,-1107.95"/>
<text text-anchor="start" x="1332.32" y="-1097.8" font-family="Arial" font-size="10.00">FOREIGN KEY (categoryId) REFERENCES categories(id)</text>
</g>
<!-- post_categories&#45;&gt;posts -->
<g id="edge4" class="edge">
<title>post_categories:post_id&#45;&gt;posts:id</title>
<path fill="none" stroke="black" d="M1254.46,-1142.41C1192.04,-1113.22 1251.1,-801.8 1176.12,-801.8"/>
<polygon fill="black" stroke="black" points="1254.48,-1142.42 1263.31,-1148.93 1259.7,-1143.54 1263.93,-1144.46 1263.93,-1144.46 1263.93,-1144.46 1259.7,-1143.54 1265.21,-1140.13 1254.48,-1142.42"/>
<text text-anchor="start" x="1040.31" y="-1154.6" font-family="Arial" font-size="10.00">FOREIGN KEY (postId) REFERENCES posts(id)</text>
</g>
<!-- tags -->
<g id="node6" class="node">
<title>tags</title>
<polygon fill="#efefef" stroke="none" points="1559.89,-709.4 1559.89,-745 1722.5,-745 1722.5,-709.4 1559.89,-709.4"/>
<polygon fill="none" stroke="black" points="1559.89,-709.4 1559.89,-745 1722.5,-745 1722.5,-709.4 1559.89,-709.4"/>
<text text-anchor="start" x="1592.07" y="-722.8" font-family="Arial Bold" font-size="18.00">tags</text>
<text text-anchor="start" x="1621.06" y="-722.8" font-family="Arial" font-size="14.00">    </text>
<text text-anchor="start" x="1652.18" y="-722.8" font-family="Arial" font-size="14.00" fill="#666666">[table]</text>
<polygon fill="none" stroke="black" points="1559.89,-678.6 1559.89,-709.4 1722.5,-709.4 1722.5,-678.6 1559.89,-678.6"/>
<text text-anchor="start" x="1566.89" y="-690.8" font-family="Arial" font-size="14.00">id </text>
<text text-anchor="start" x="1581.68" y="-690.8" font-family="Arial" font-size="14.00" fill="#666666">[INTEGER]</text>
<polygon fill="none" stroke="black" points="1559.89,-647.8 1559.89,-678.6 1722.5,-678.6 1722.5,-647.8 1559.89,-647.8"/>
<text text-anchor="start" x="1566.89" y="-660" font-family="Arial" font-size="14.00">name </text>
<text text-anchor="start" x="1605.8" y="-660" font-family="Arial" font-size="14.00" fill="#666666">[VARCHAR]</text>
<polygon fill="none" stroke="black" points="1559.89,-617 1559.89,-647.8 1722.5,-647.8 1722.5,-617 1559.89,-617"/>
<text text-anchor="start" x="1566.89" y="-629.2" font-family="Arial" font-size="14.00">color </text>
<text text-anchor="start" x="1601.13" y="-629.2" font-family="Arial" font-size="14.00" fill="#666666">[VARCHAR]</text>
<polygon fill="none" stroke="black" points="1559.89,-586.2 1559.89,-617 1722.5,-617 1722.5,-586.2 1559.89,-586.2"/>
<text text-anchor="start" x="1566.89" y="-598.4" font-family="Arial" font-size="14.00">created_at </text>
<text text-anchor="start" x="1636.94" y="-598.4" font-family="Arial" font-size="14.00" fill="#666666">[DATETIME]</text>
</g>
<!-- post_tags -->
<g id="node7" class="node">
<title>post_tags</title>
<polygon fill="#efefef" stroke="none" points="1565.57,-1129.2 1565.57,-1164.8 1716.82,-1164.8 1716.82,-1129.2 1565.57,-1129.2"/>
<polygon fill="none" stroke="black" points="1565.57,-1129.2 1565.57,-1164.8 1716.82,-1164.8 1716.82,-1129.2 1565.57,-1129.2"/>
<text text-anchor="start" x="1572.57" y="-1142.6" font-family="Arial Bold" font-size="18.00">post_tags</text>
<text text-anchor="start" x="1640.57" y="-1142.6" font-family="Arial" font-size="14.00">    </text>
<text text-anchor="start" x="1671.68" y="-1142.6" font-family="Arial" font-size="14.00" fill="#666666">[table]</text>
<polygon fill="none" stroke="black" points="1565.57,-1098.4 1565.57,-1129.2 1716.82,-1129.2 1716.82,-1098.4 1565.57,-1098.4"/>
<text text-anchor="start" x="1572.57" y="-1110.6" font-family="Arial" font-size="14.00">post_id </text>
<text text-anchor="start" x="1621.6" y="-1110.6" font-family="Arial" font-size="14.00" fill="#666666">[INTEGER]</text>
<polygon fill="none" stroke="black" points="1565.57,-1067.6 1565.57,-1098.4 1716.82,-1098.4 1716.82,-1067.6 1565.57,-1067.6"/>
<text text-anchor="start" x="1572.57" y="-1079.8" font-family="Arial" font-size="14.00">tag_id </text>
<text text-anchor="start" x="1614.6" y="-1079.8" font-family="Arial" font-size="14.00" fill="#666666">[INTEGER]</text>
</g>
<!-- post_tags&#45;&gt;posts -->
<g id="edge6" class="edge">
<title>post_tags:post_id&#45;&gt;posts:id</title>
<path fill="none" stroke="black" d="M1554.31,-1113.05C1488.92,-1102.53 1573.96,-984.33 1513.19,-932 1417.12,-849.26 1335.68,-966.34 1230.19,-896 1190.03,-869.22 1224.39,-801.8 1176.12,-801.8"/>
<polygon fill="black" stroke="black" points="1554.26,-1113.05 1563.9,-1118.26 1559.58,-1113.43 1563.9,-1113.75 1563.9,-1113.75 1563.9,-1113.75 1559.58,-1113.43 1564.56,-1109.29 1554.26,-1113.05"/>
<text text-anchor="start" x="1340.3" y="-1123.8" font-family="Arial" font-size="10.00">FOREIGN KEY (postId) REFERENCES posts(id)</text>
</g>
<!-- post_tags&#45;&gt;tags -->
<g id="edge7" class="edge">
<title>post_tags:tag_id&#45;&gt;tags:id</title>
<path fill="none" stroke="black" d="M1641.49,-1056.38C1651.11,-888.96 1889.69,-694 1723.5,-694"/>
<polygon fill="black" stroke="black" points="1641.49,-1056.27 1636.71,-1066.13 1641.34,-1061.6 1641.21,-1065.93 1641.21,-1065.93 1641.21,-1065.93 1641.34,-1061.6 1645.7,-1066.4 1641.49,-1056.27"/>
<text text-anchor="start" x="1537.56" y="-1050.6" font-family="Arial" font-size="10.00">FOREIGN KEY (tagId) REFERENCES tags(id)</text>
</g>
<!-- comments -->
<g id="node8" class="node">
<title>comments</title>
<polygon fill="#efefef" stroke="none" points="733.94,-1221.6 733.94,-1257.2 900.45,-1257.2 900.45,-1221.6 733.94,-1221.6"/>
<polygon fill="none" stroke="black" points="733.94,-1221.6 733.94,-1257.2 900.45,-1257.2 900.45,-1221.6 733.94,-1221.6"/>
<text text-anchor="start" x="745.57" y="-1235" font-family="Arial Bold" font-size="18.00">comments</text>
<text text-anchor="start" x="819.56" y="-1235" font-family="Arial" font-size="14.00">    </text>
<text text-anchor="start" x="850.68" y="-1235" font-family="Arial" font-size="14.00" fill="#666666">[table]</text>
<polygon fill="none" stroke="black" points="733.94,-1190.8 733.94,-1221.6 900.45,-1221.6 900.45,-1190.8 733.94,-1190.8"/>
<text text-anchor="start" x="740.94" y="-1203" font-family="Arial" font-size="14.00">id </text>
<text text-anchor="start" x="755.72" y="-1203" font-family="Arial" font-size="14.00" fill="#666666">[INTEGER]</text>
<polygon fill="none" stroke="black" points="733.94,-1160 733.94,-1190.8 900.45,-1190.8 900.45,-1160 733.94,-1160"/>
<text text-anchor="start" x="740.94" y="-1172.2" font-family="Arial" font-size="14.00">content </text>
<text text-anchor="start" x="790.75" y="-1172.2" font-family="Arial" font-size="14.00" fill="#666666">[VARCHAR]</text>
<polygon fill="none" stroke="black" points="733.94,-1129.2 733.94,-1160 900.45,-1160 900.45,-1129.2 733.94,-1129.2"/>
<text text-anchor="start" x="740.94" y="-1141.4" font-family="Arial" font-size="14.00">post_id </text>
<text text-anchor="start" x="789.97" y="-1141.4" font-family="Arial" font-size="14.00" fill="#666666">[INTEGER]</text>
<polygon fill="none" stroke="black" points="733.94,-1098.4 733.94,-1129.2 900.45,-1129.2 900.45,-1098.4 733.94,-1098.4"/>
<text text-anchor="start" x="740.94" y="-1110.6" font-family="Arial" font-size="14.00">author_id </text>
<text text-anchor="start" x="803.2" y="-1110.6" font-family="Arial" font-size="14.00" fill="#666666">[INTEGER]</text>
<polygon fill="none" stroke="black" points="733.94,-1067.6 733.94,-1098.4 900.45,-1098.4 900.45,-1067.6 733.94,-1067.6"/>
<text text-anchor="start" x="740.94" y="-1079.8" font-family="Arial" font-size="14.00">parent_id </text>
<text text-anchor="start" x="803.2" y="-1079.8" font-family="Arial" font-size="14.00" fill="#666666">[INTEGER]</text>
<polygon fill="none" stroke="black" points="733.94,-1036.8 733.94,-1067.6 900.45,-1067.6 900.45,-1036.8 733.94,-1036.8"/>
<text text-anchor="start" x="740.94" y="-1049" font-family="Arial" font-size="14.00">is_edited </text>
<text text-anchor="start" x="800.87" y="-1049" font-family="Arial" font-size="14.00" fill="#666666">[BOOLEAN]</text>
<polygon fill="none" stroke="black" points="733.94,-1006 733.94,-1036.8 900.45,-1036.8 900.45,-1006 733.94,-1006"/>
<text text-anchor="start" x="740.94" y="-1018.2" font-family="Arial" font-size="14.00">created_at </text>
<text text-anchor="start" x="810.98" y="-1018.2" font-family="Arial" font-size="14.00" fill="#666666">[DATETIME]</text>
<polygon fill="none" stroke="black" points="733.94,-975.2 733.94,-1006 900.45,-1006 900.45,-975.2 733.94,-975.2"/>
<text text-anchor="start" x="740.94" y="-987.4" font-family="Arial" font-size="14.00">updated_at </text>
<text text-anchor="start" x="814.89" y="-987.4" font-family="Arial" font-size="14.00" fill="#666666">[DATETIME]</text>
</g>
<!-- comments&#45;&gt;users -->
<g id="edge9" class="edge">
<title>comments:author_id&#45;&gt;users:id</title>
<path fill="none" stroke="black" d="M911.78,-1113.15C975,-1104.37 902.93,-1008.97 900.45,-932 895.94,-791.6 960.75,-305 820.28,-305"/>
<polygon fill="black" stroke="black" points="911.77,-1113.15 901.5,-1109.29 906.44,-1113.48 902.12,-1113.76 902.12,-1113.76 902.12,-1113.76 906.44,-1113.48 902.07,-1118.27 911.77,-1113.15"/>
<text text-anchor="start" x="667.18" y="-1123.8" font-family="Arial" font-size="10.00">FOREIGN KEY (authorId) REFERENCES users(id)</text>
</g>
<!-- comments&#45;&gt;posts -->
<g id="edge8" class="edge">
<title>comments:post_id&#45;&gt;posts:id</title>
<path fill="none" stroke="black" d="M911.29,-1142.59C975.37,-1114.49 922.67,-801.8 998.27,-801.8"/>
<polygon fill="black" stroke="black" points="911.58,-1142.53 900.88,-1140.12 906.35,-1143.6 902.11,-1144.47 902.11,-1144.47 902.11,-1144.47 906.35,-1143.6 902.68,-1148.94 911.58,-1142.53"/>
<text text-anchor="start" x="677.18" y="-1154.6" font-family="Arial" font-size="10.00">FOREIGN KEY (postId) REFERENCES posts(id)</text>
</g>
<!-- comments&#45;&gt;comments -->
<g id="edge10" class="edge">
<title>comments:parent_id&#45;&gt;comments:id</title>
<path fill="none" stroke="black" d="M818.66,-1108.26C826.16,-1253.86 825.67,-1525.7 817.19,-1525.7 808.53,-1525.7 808.21,-1356.03 816.23,-1221.58"/>
<polygon fill="black" stroke="black" points="818.67,-1108.32 822.62,-1098.1 818.38,-1103 818.15,-1098.67 818.15,-1098.67 818.15,-1098.67 818.38,-1103 813.63,-1098.58 818.67,-1108.32"/>
<text text-anchor="start" x="562.16" y="-1082.01" font-family="Arial" font-size="10.00">FOREIGN KEY (parentId) REFERENCES comments(id)</text>
</g>
<!-- post_likes -->
<g id="node9" class="node">
<title>post_likes</title>
<polygon fill="#efefef" stroke="none" points="1005.07,-1144.6 1005.07,-1180.2 1161.32,-1180.2 1161.32,-1144.6 1005.07,-1144.6"/>
<polygon fill="none" stroke="black" points="1005.07,-1144.6 1005.07,-1180.2 1161.32,-1180.2 1161.32,-1144.6 1005.07,-1144.6"/>
<text text-anchor="start" x="1012.07" y="-1158" font-family="Arial Bold" font-size="18.00">post_likes</text>
<text text-anchor="start" x="1085.07" y="-1158" font-family="Arial" font-size="14.00">    </text>
<text text-anchor="start" x="1116.19" y="-1158" font-family="Arial" font-size="14.00" fill="#666666">[table]</text>
<polygon fill="none" stroke="black" points="1005.07,-1113.8 1005.07,-1144.6 1161.32,-1144.6 1161.32,-1113.8 1005.07,-1113.8"/>
<text text-anchor="start" x="1012.07" y="-1126" font-family="Arial" font-size="14.00">user_id </text>
<text text-anchor="start" x="1061.87" y="-1126" font-family="Arial" font-size="14.00" fill="#666666">[INTEGER]</text>
<polygon fill="none" stroke="black" points="1005.07,-1083 1005.07,-1113.8 1161.32,-1113.8 1161.32,-1083 1005.07,-1083"/>
<text text-anchor="start" x="1012.07" y="-1095.2" font-family="Arial" font-size="14.00">post_id </text>
<text text-anchor="start" x="1061.1" y="-1095.2" font-family="Arial" font-size="14.00" fill="#666666">[INTEGER]</text>
<polygon fill="none" stroke="black" points="1005.07,-1052.2 1005.07,-1083 1161.32,-1083 1161.32,-1052.2 1005.07,-1052.2"/>
<text text-anchor="start" x="1012.07" y="-1064.4" font-family="Arial" font-size="14.00">liked_at </text>
<text text-anchor="start" x="1064.21" y="-1064.4" font-family="Arial" font-size="14.00" fill="#666666">[DATETIME]</text>
</g>
<!-- post_likes&#45;&gt;users -->
<g id="edge11" class="edge">
<title>post_likes:user_id&#45;&gt;users:id</title>
<path fill="none" stroke="black" d="M995.98,-1123.2C972.33,-1089.05 950.9,-919.67 947.19,-896 915.43,-693.15 984.25,-628.2 914.19,-435.2 889.85,-368.13 891.63,-305 820.28,-305"/>
<polygon fill="black" stroke="black" points="995.76,-1123.04 1001.12,-1132.62 1000.05,-1126.22 1003.53,-1128.8 1003.53,-1128.8 1003.53,-1128.8 1000.05,-1126.22 1006.48,-1125.39 995.76,-1123.04"/>
<text text-anchor="start" x="952.97" y="-1113.2" font-family="Arial" font-size="10.00">FOREIGN KEY (userId) REFERENCES users(id)</text>
</g>
<!-- post_likes&#45;&gt;posts -->
<g id="edge12" class="edge">
<title>post_likes:post_id&#45;&gt;posts:id</title>
<path fill="none" stroke="black" d="M1172.58,-1096.8C1197.59,-1087.57 1178.01,-1040.56 1161.32,-1009 1120.27,-931.38 1040.3,-973.63 999.27,-896 979.7,-858.98 956.4,-801.8 998.27,-801.8"/>
<polygon fill="black" stroke="black" points="1172.53,-1096.81 1161.96,-1093.9 1167.26,-1097.63 1162.98,-1098.3 1162.98,-1098.3 1162.98,-1098.3 1167.26,-1097.63 1163.35,-1102.79 1172.53,-1096.81"/>
<text text-anchor="start" x="1053.69" y="-1082.4" font-family="Arial" font-size="10.00">FOREIGN KEY (postId) REFERENCES posts(id)</text>
</g>
<!-- follows -->
<g id="node10" class="node">
<title>follows</title>
<polygon fill="#efefef" stroke="none" points="83.56,-694 83.56,-729.6 250.83,-729.6 250.83,-694 83.56,-694"/>
<polygon fill="none" stroke="black" points="83.56,-694 83.56,-729.6 250.83,-729.6 250.83,-694 83.56,-694"/>
<text text-anchor="start" x="105.57" y="-707.4" font-family="Arial Bold" font-size="18.00">follows</text>
<text text-anchor="start" x="159.57" y="-707.4" font-family="Arial" font-size="14.00">    </text>
<text text-anchor="start" x="190.68" y="-707.4" font-family="Arial" font-size="14.00" fill="#666666">[table]</text>
<polygon fill="none" stroke="black" points="83.56,-663.2 83.56,-694 250.83,-694 250.83,-663.2 83.56,-663.2"/>
<text text-anchor="start" x="90.56" y="-675.4" font-family="Arial" font-size="14.00">follower_id </text>
<text text-anchor="start" x="161.37" y="-675.4" font-family="Arial" font-size="14.00" fill="#666666">[INTEGER]</text>
<polygon fill="none" stroke="black" points="83.56,-632.4 83.56,-663.2 250.83,-663.2 250.83,-632.4 83.56,-632.4"/>
<text text-anchor="start" x="90.56" y="-644.6" font-family="Arial" font-size="14.00">following_id </text>
<text text-anchor="start" x="167.6" y="-644.6" font-family="Arial" font-size="14.00" fill="#666666">[INTEGER]</text>
<polygon fill="none" stroke="black" points="83.56,-601.6 83.56,-632.4 250.83,-632.4 250.83,-601.6 83.56,-601.6"/>
<text text-anchor="start" x="90.56" y="-613.8" font-family="Arial" font-size="14.00">followed_at </text>
<text text-anchor="start" x="165.27" y="-613.8" font-family="Arial" font-size="14.00" fill="#666666">[DATETIME]</text>
</g>
<!-- follows&#45;&gt;users -->
<g id="edge13" class="edge">
<title>follows:follower_id&#45;&gt;users:id</title>
<path fill="none" stroke="black" d="M262.06,-678.08C353.93,-668.11 233.93,-516.61 303.19,-435.2 407.22,-312.94 479.57,-305 640.1,-305"/>
<polygon fill="black" stroke="black" points="262.15,-678.08 251.94,-674.09 256.83,-678.35 252.5,-678.57 252.5,-678.57 252.5,-678.57 256.83,-678.35 252.39,-683.08 262.15,-678.08"/>
<text text-anchor="start" x="11.45" y="-688.6" font-family="Arial" font-size="10.00">FOREIGN KEY (followerId) REFERENCES users(id)</text>
</g>
<!-- follows&#45;&gt;users -->
<g id="edge14" class="edge">
<title>follows:following_id&#45;&gt;users:id</title>
<path fill="none" stroke="black" d="M261.82,-647.23C341.12,-637.54 241.51,-505.6 303.19,-435.2 408.99,-314.46 479.57,-305 640.1,-305"/>
<polygon fill="black" stroke="black" points="262.15,-647.22 251.91,-643.29 256.82,-647.52 252.5,-647.76 252.5,-647.76 252.5,-647.76 256.82,-647.52 252.42,-652.27 262.15,-647.22"/>
<text text-anchor="start" x="7" y="-657.8" font-family="Arial" font-size="10.00">FOREIGN KEY (followingId) REFERENCES users(id)</text>
</g>
<!-- audit_logs -->
<g id="node11" class="node">
<title>audit_logs</title>
<polygon fill="#efefef" stroke="none" points="1821.55,-1221.6 1821.55,-1257.2 1988.84,-1257.2 1988.84,-1221.6 1821.55,-1221.6"/>
<polygon fill="none" stroke="black" points="1821.55,-1221.6 1821.55,-1257.2 1988.84,-1257.2 1988.84,-1221.6 1821.55,-1221.6"/>
<text text-anchor="start" x="1833.07" y="-1235" font-family="Arial Bold" font-size="18.00">audit_logs</text>
<text text-anchor="start" x="1908.07" y="-1235" font-family="Arial" font-size="14.00">    </text>
<text text-anchor="start" x="1939.18" y="-1235" font-family="Arial" font-size="14.00" fill="#666666">[table]</text>
<polygon fill="none" stroke="black" points="1821.55,-1190.8 1821.55,-1221.6 1988.84,-1221.6 1988.84,-1190.8 1821.55,-1190.8"/>
<text text-anchor="start" x="1828.55" y="-1203" font-family="Arial" font-size="14.00">id </text>
<text text-anchor="start" x="1843.34" y="-1203" font-family="Arial" font-size="14.00" fill="#666666">[VARCHAR]</text>
<polygon fill="none" stroke="black" points="1821.55,-1160 1821.55,-1190.8 1988.84,-1190.8 1988.84,-1160 1821.55,-1160"/>
<text text-anchor="start" x="1828.55" y="-1172.2" font-family="Arial" font-size="14.00">action </text>
<text text-anchor="start" x="1869.8" y="-1172.2" font-family="Arial" font-size="14.00" fill="#666666">[VARCHAR]</text>
<polygon fill="none" stroke="black" points="1821.55,-1129.2 1821.55,-1160 1988.84,-1160 1988.84,-1129.2 1821.55,-1129.2"/>
<text text-anchor="start" x="1828.55" y="-1141.4" font-family="Arial" font-size="14.00">table_name </text>
<text text-anchor="start" x="1905.6" y="-1141.4" font-family="Arial" font-size="14.00" fill="#666666">[VARCHAR]</text>
<polygon fill="none" stroke="black" points="1821.55,-1098.4 1821.55,-1129.2 1988.84,-1129.2 1988.84,-1098.4 1821.55,-1098.4"/>
<text text-anchor="start" x="1828.55" y="-1110.6" font-family="Arial" font-size="14.00">record_id </text>
<text text-anchor="start" x="1890.8" y="-1110.6" font-family="Arial" font-size="14.00" fill="#666666">[VARCHAR]</text>
<polygon fill="none" stroke="black" points="1821.55,-1067.6 1821.55,-1098.4 1988.84,-1098.4 1988.84,-1067.6 1821.55,-1067.6"/>
<text text-anchor="start" x="1828.55" y="-1079.8" font-family="Arial" font-size="14.00">old_data </text>
<text text-anchor="start" x="1886.16" y="-1079.8" font-family="Arial" font-size="14.00" fill="#666666">[JSON]</text>
<polygon fill="none" stroke="black" points="1821.55,-1036.8 1821.55,-1067.6 1988.84,-1067.6 1988.84,-1036.8 1821.55,-1036.8"/>
<text text-anchor="start" x="1828.55" y="-1049" font-family="Arial" font-size="14.00">new_data </text>
<text text-anchor="start" x="1893.16" y="-1049" font-family="Arial" font-size="14.00" fill="#666666">[JSON]</text>
<polygon fill="none" stroke="black" points="1821.55,-1006 1821.55,-1036.8 1988.84,-1036.8 1988.84,-1006 1821.55,-1006"/>
<text text-anchor="start" x="1828.55" y="-1018.2" font-family="Arial" font-size="14.00">user_id </text>
<text text-anchor="start" x="1878.36" y="-1018.2" font-family="Arial" font-size="14.00" fill="#666666">[INTEGER]</text>
<polygon fill="none" stroke="black" points="1821.55,-975.2 1821.55,-1006 1988.84,-1006 1988.84,-975.2 1821.55,-975.2"/>
<text text-anchor="start" x="1828.55" y="-987.4" font-family="Arial" font-size="14.00">timestamp </text>
<text text-anchor="start" x="1897.01" y="-987.4" font-family="Arial" font-size="14.00" fill="#666666">[DATETIME]</text>
</g>
<!-- system_configs -->
<g id="node12" class="node">
<title>system_configs</title>
<polygon fill="#efefef" stroke="none" points="2093.57,-1206.2 2093.57,-1241.8 2288.82,-1241.8 2288.82,-1206.2 2093.57,-1206.2"/>
<polygon fill="none" stroke="black" points="2093.57,-1206.2 2093.57,-1241.8 2288.82,-1241.8 2288.82,-1206.2 2093.57,-1206.2"/>
<text text-anchor="start" x="2100.57" y="-1219.6" font-family="Arial Bold" font-size="18.00">system_configs</text>
<text text-anchor="start" x="2212.56" y="-1219.6" font-family="Arial" font-size="14.00">    </text>
<text text-anchor="start" x="2243.68" y="-1219.6" font-family="Arial" font-size="14.00" fill="#666666">[table]</text>
<polygon fill="none" stroke="black" points="2093.57,-1175.4 2093.57,-1206.2 2288.82,-1206.2 2288.82,-1175.4 2093.57,-1175.4"/>
<text text-anchor="start" x="2100.57" y="-1187.6" font-family="Arial" font-size="14.00">id </text>
<text text-anchor="start" x="2115.36" y="-1187.6" font-family="Arial" font-size="14.00" fill="#666666">[INTEGER]</text>
<polygon fill="none" stroke="black" points="2093.57,-1144.6 2093.57,-1175.4 2288.82,-1175.4 2288.82,-1144.6 2093.57,-1144.6"/>
<text text-anchor="start" x="2100.57" y="-1156.8" font-family="Arial" font-size="14.00">key </text>
<text text-anchor="start" x="2126.25" y="-1156.8" font-family="Arial" font-size="14.00" fill="#666666">[VARCHAR]</text>
<polygon fill="none" stroke="black" points="2093.57,-1113.8 2093.57,-1144.6 2288.82,-1144.6 2288.82,-1113.8 2093.57,-1113.8"/>
<text text-anchor="start" x="2100.57" y="-1126" font-family="Arial" font-size="14.00">value </text>
<text text-anchor="start" x="2137.93" y="-1126" font-family="Arial" font-size="14.00" fill="#666666">[VARCHAR]</text>
<polygon fill="none" stroke="black" points="2093.57,-1083 2093.57,-1113.8 2288.82,-1113.8 2288.82,-1083 2093.57,-1083"/>
<text text-anchor="start" x="2100.57" y="-1095.2" font-family="Arial" font-size="14.00">type </text>
<text text-anchor="start" x="2130.92" y="-1095.2" font-family="Arial" font-size="14.00" fill="#666666">[ConfigType]</text>
<polygon fill="none" stroke="black" points="2093.57,-1052.2 2093.57,-1083 2288.82,-1083 2288.82,-1052.2 2093.57,-1052.2"/>
<text text-anchor="start" x="2100.57" y="-1064.4" font-family="Arial" font-size="14.00">description </text>
<text text-anchor="start" x="2172.16" y="-1064.4" font-family="Arial" font-size="14.00" fill="#666666">[VARCHAR]</text>
<polygon fill="none" stroke="black" points="2093.57,-1021.4 2093.57,-1052.2 2288.82,-1052.2 2288.82,-1021.4 2093.57,-1021.4"/>
<text text-anchor="start" x="2100.57" y="-1033.6" font-family="Arial" font-size="14.00">is_secret </text>
<text text-anchor="start" x="2160.48" y="-1033.6" font-family="Arial" font-size="14.00" fill="#666666">[BOOLEAN]</text>
<polygon fill="none" stroke="black" points="2093.57,-990.6 2093.57,-1021.4 2288.82,-1021.4 2288.82,-990.6 2093.57,-990.6"/>
<text text-anchor="start" x="2100.57" y="-1002.8" font-family="Arial" font-size="14.00">updated_at </text>
<text text-anchor="start" x="2174.53" y="-1002.8" font-family="Arial" font-size="14.00" fill="#666666">[DATETIME]</text>
</g>
<!-- file_uploads -->
<g id="node13" class="node">
<title>file_uploads</title>
<polygon fill="#efefef" stroke="none" points="355.16,-771 355.16,-806.6 537.23,-806.6 537.23,-771 355.16,-771"/>
<polygon fill="none" stroke="black" points="355.16,-771 355.16,-806.6 537.23,-806.6 537.23,-771 355.16,-771"/>
<text text-anchor="start" x="367.08" y="-784.4" font-family="Arial Bold" font-size="18.00">file_uploads</text>
<text text-anchor="start" x="456.06" y="-784.4" font-family="Arial" font-size="14.00">    </text>
<text text-anchor="start" x="487.17" y="-784.4" font-family="Arial" font-size="14.00" fill="#666666">[table]</text>
<polygon fill="none" stroke="black" points="355.16,-740.2 355.16,-771 537.23,-771 537.23,-740.2 355.16,-740.2"/>
<text text-anchor="start" x="362.16" y="-752.4" font-family="Arial" font-size="14.00">id </text>
<text text-anchor="start" x="376.95" y="-752.4" font-family="Arial" font-size="14.00" fill="#666666">[VARCHAR]</text>
<polygon fill="none" stroke="black" points="355.16,-709.4 355.16,-740.2 537.23,-740.2 537.23,-709.4 355.16,-709.4"/>
<text text-anchor="start" x="362.16" y="-721.6" font-family="Arial" font-size="14.00">filename </text>
<text text-anchor="start" x="418.97" y="-721.6" font-family="Arial" font-size="14.00" fill="#666666">[VARCHAR]</text>
<polygon fill="none" stroke="black" points="355.16,-678.6 355.16,-709.4 537.23,-709.4 537.23,-678.6 355.16,-678.6"/>
<text text-anchor="start" x="362.16" y="-690.8" font-family="Arial" font-size="14.00">original_name </text>
<text text-anchor="start" x="453.99" y="-690.8" font-family="Arial" font-size="14.00" fill="#666666">[VARCHAR]</text>
<polygon fill="none" stroke="black" points="355.16,-647.8 355.16,-678.6 537.23,-678.6 537.23,-647.8 355.16,-647.8"/>
<text text-anchor="start" x="362.16" y="-660" font-family="Arial" font-size="14.00">mime_type </text>
<text text-anchor="start" x="434.52" y="-660" font-family="Arial" font-size="14.00" fill="#666666">[VARCHAR]</text>
<polygon fill="none" stroke="black" points="355.16,-617 355.16,-647.8 537.23,-647.8 537.23,-617 355.16,-617"/>
<text text-anchor="start" x="362.16" y="-629.2" font-family="Arial" font-size="14.00">size </text>
<text text-anchor="start" x="390.95" y="-629.2" font-family="Arial" font-size="14.00" fill="#666666">[BIGINT]</text>
<polygon fill="none" stroke="black" points="355.16,-586.2 355.16,-617 537.23,-617 537.23,-586.2 355.16,-586.2"/>
<text text-anchor="start" x="362.16" y="-598.4" font-family="Arial" font-size="14.00">path </text>
<text text-anchor="start" x="393.3" y="-598.4" font-family="Arial" font-size="14.00" fill="#666666">[VARCHAR]</text>
<polygon fill="none" stroke="black" points="355.16,-555.4 355.16,-586.2 537.23,-586.2 537.23,-555.4 355.16,-555.4"/>
<text text-anchor="start" x="362.16" y="-567.6" font-family="Arial" font-size="14.00">uploaded_by </text>
<text text-anchor="start" x="446.24" y="-567.6" font-family="Arial" font-size="14.00" fill="#666666">[INTEGER]</text>
<polygon fill="none" stroke="black" points="355.16,-524.6 355.16,-555.4 537.23,-555.4 537.23,-524.6 355.16,-524.6"/>
<text text-anchor="start" x="362.16" y="-536.8" font-family="Arial" font-size="14.00">uploaded_at </text>
<text text-anchor="start" x="443.12" y="-536.8" font-family="Arial" font-size="14.00" fill="#666666">[DATETIME]</text>
</g>
<!-- file_uploads&#45;&gt;users -->
<g id="edge15" class="edge">
<title>file_uploads:uploaded_by&#45;&gt;users:id</title>
<path fill="none" stroke="black" d="M548.54,-570.04C598.54,-562.01 567.5,-491.79 589.19,-435.2 611.44,-377.19 577.97,-305 640.1,-305"/>
<polygon fill="black" stroke="black" points="548.54,-570.04 538.23,-566.29 543.22,-570.43 538.9,-570.75 538.9,-570.75 538.9,-570.75 543.22,-570.43 538.89,-575.26 548.54,-570.04"/>
<text text-anchor="start" x="287.83" y="-580.8" font-family="Arial" font-size="10.00">FOREIGN KEY (uploadedBy) REFERENCES users(id)</text>
</g>
</g>
</svg>
