<?xml version="1.0" encoding="UTF-8" standalone="no"?>
<!DOCTYPE svg PUBLIC "-//W3C//DTD SVG 1.1//EN"
 "http://www.w3.org/Graphics/SVG/1.1/DTD/svg11.dtd">
<!-- Generated by graphviz version 12.1.2 (20240928.0832)
 -->
<!-- Title: tags Pages: 1 -->
<svg width="357pt" height="479pt"
 viewBox="0.00 0.00 356.77 478.80" xmlns="http://www.w3.org/2000/svg" xmlns:xlink="http://www.w3.org/1999/xlink">
<g id="graph0" class="graph" transform="scale(1 1) rotate(0) translate(4 474.8)">
<title>tags</title>
<polygon fill="white" stroke="none" points="-4,4 -4,-474.8 352.77,-474.8 352.77,4 -4,4"/>
<!-- tags -->
<g id="node1" class="node">
<title>tags</title>
<polygon fill="#efefef" stroke="none" points="139.97,-169.4 139.97,-205 302.57,-205 302.57,-169.4 139.97,-169.4"/>
<polygon fill="none" stroke="black" points="139.97,-169.4 139.97,-205 302.57,-205 302.57,-169.4 139.97,-169.4"/>
<text text-anchor="start" x="172.15" y="-182.8" font-family="Arial Bold" font-size="18.00">tags</text>
<text text-anchor="start" x="201.14" y="-182.8" font-family="Arial" font-size="14.00">    </text>
<text text-anchor="start" x="232.26" y="-182.8" font-family="Arial" font-size="14.00" fill="#666666">[table]</text>
<polygon fill="none" stroke="black" points="139.97,-138.6 139.97,-169.4 302.57,-169.4 302.57,-138.6 139.97,-138.6"/>
<text text-anchor="start" x="146.97" y="-150.8" font-family="Arial" font-size="14.00">id </text>
<text text-anchor="start" x="161.75" y="-150.8" font-family="Arial" font-size="14.00" fill="#666666">[INTEGER]</text>
<polygon fill="none" stroke="black" points="139.97,-107.8 139.97,-138.6 302.57,-138.6 302.57,-107.8 139.97,-107.8"/>
<text text-anchor="start" x="146.97" y="-120" font-family="Arial" font-size="14.00">name </text>
<text text-anchor="start" x="185.88" y="-120" font-family="Arial" font-size="14.00" fill="#666666">[VARCHAR]</text>
<polygon fill="none" stroke="black" points="139.97,-77 139.97,-107.8 302.57,-107.8 302.57,-77 139.97,-77"/>
<text text-anchor="start" x="146.97" y="-89.2" font-family="Arial" font-size="14.00">color </text>
<text text-anchor="start" x="181.2" y="-89.2" font-family="Arial" font-size="14.00" fill="#666666">[VARCHAR]</text>
<polygon fill="none" stroke="black" points="139.97,-46.2 139.97,-77 302.57,-77 302.57,-46.2 139.97,-46.2"/>
<text text-anchor="start" x="146.97" y="-58.4" font-family="Arial" font-size="14.00">created_at </text>
<text text-anchor="start" x="217.02" y="-58.4" font-family="Arial" font-size="14.00" fill="#666666">[DATETIME]</text>
<polygon fill="none" stroke="black" stroke-width="3" points="138.47,-44.7 138.47,-206.5 304.07,-206.5 304.07,-44.7 138.47,-44.7"/>
</g>
<!-- post_tags -->
<g id="node2" class="node">
<title>post_tags</title>
<polygon fill="#efefef" stroke="none" points="145.64,-392 145.64,-427.6 296.9,-427.6 296.9,-392 145.64,-392"/>
<polygon fill="none" stroke="black" points="145.64,-392 145.64,-427.6 296.9,-427.6 296.9,-392 145.64,-392"/>
<text text-anchor="start" x="152.64" y="-405.4" font-family="Arial Bold" font-size="18.00">post_tags</text>
<text text-anchor="start" x="220.64" y="-405.4" font-family="Arial" font-size="14.00">    </text>
<text text-anchor="start" x="251.76" y="-405.4" font-family="Arial" font-size="14.00" fill="#666666">[table]</text>
<polygon fill="none" stroke="black" points="145.64,-361.2 145.64,-392 296.9,-392 296.9,-361.2 145.64,-361.2"/>
<text text-anchor="start" x="152.64" y="-373.4" font-family="Arial" font-size="14.00">post_id </text>
<text text-anchor="start" x="201.68" y="-373.4" font-family="Arial" font-size="14.00" fill="#666666">[INTEGER]</text>
<polygon fill="none" stroke="black" points="145.64,-330.4 145.64,-361.2 296.9,-361.2 296.9,-330.4 145.64,-330.4"/>
<text text-anchor="start" x="152.64" y="-342.6" font-family="Arial" font-size="14.00">tag_id </text>
<text text-anchor="start" x="194.68" y="-342.6" font-family="Arial" font-size="14.00" fill="#666666">[INTEGER]</text>
</g>
<!-- post_tags&#45;&gt;tags -->
<g id="edge1" class="edge">
<title>post_tags:tag_id&#45;&gt;tags:id</title>
<path fill="none" stroke="black" d="M222.24,-319.31C230.16,-281.58 284.18,-293.81 302.57,-251.2 319.7,-211.54 346.78,-154 303.57,-154"/>
<polygon fill="black" stroke="black" points="222.26,-319.11 216.82,-328.64 221.75,-324.42 221.33,-328.73 221.33,-328.73 221.33,-328.73 221.75,-324.42 225.78,-329.5 222.26,-319.11"/>
<text text-anchor="start" x="7" y="-339.4" font-family="Arial" font-size="10.00">FOREIGN KEY (tagId) REFERENCES tags(id)</text>
</g>
</g>
</svg>
