<?xml version="1.0" encoding="UTF-8" standalone="no"?>
<!DOCTYPE svg PUBLIC "-//W3C//DTD SVG 1.1//EN"
 "http://www.w3.org/Graphics/SVG/1.1/DTD/svg11.dtd">
<!-- Generated by graphviz version 12.1.2 (20240928.0832)
 -->
<!-- Title: users Pages: 1 -->
<svg width="1642pt" height="910pt"
 viewBox="0.00 0.00 1642.05 910.00" xmlns="http://www.w3.org/2000/svg" xmlns:xlink="http://www.w3.org/1999/xlink">
<g id="graph0" class="graph" transform="scale(1 1) rotate(0) translate(4 906)">
<title>users</title>
<polygon fill="white" stroke="none" points="-4,4 -4,-906 1638.05,-906 1638.05,4 -4,4"/>
<!-- users -->
<g id="node1" class="node">
<title>users</title>
<polygon fill="#efefef" stroke="none" points="865.72,-323.4 865.72,-359 1043.9,-359 1043.9,-323.4 865.72,-323.4"/>
<polygon fill="none" stroke="black" points="865.72,-323.4 865.72,-359 1043.9,-359 1043.9,-323.4 865.72,-323.4"/>
<text text-anchor="start" x="901.69" y="-336.8" font-family="Arial Bold" font-size="18.00">users</text>
<text text-anchor="start" x="938.68" y="-336.8" font-family="Arial" font-size="14.00">    </text>
<text text-anchor="start" x="969.8" y="-336.8" font-family="Arial" font-size="14.00" fill="#666666">[table]</text>
<polygon fill="none" stroke="black" points="865.72,-292.6 865.72,-323.4 1043.9,-323.4 1043.9,-292.6 865.72,-292.6"/>
<text text-anchor="start" x="872.72" y="-304.8" font-family="Arial" font-size="14.00">id </text>
<text text-anchor="start" x="887.51" y="-304.8" font-family="Arial" font-size="14.00" fill="#666666">[INTEGER]</text>
<polygon fill="none" stroke="black" points="865.72,-261.8 865.72,-292.6 1043.9,-292.6 1043.9,-261.8 865.72,-261.8"/>
<text text-anchor="start" x="872.72" y="-274" font-family="Arial" font-size="14.00">email </text>
<text text-anchor="start" x="910.07" y="-274" font-family="Arial" font-size="14.00" fill="#666666">[VARCHAR]</text>
<polygon fill="none" stroke="black" points="865.72,-231 865.72,-261.8 1043.9,-261.8 1043.9,-231 865.72,-231"/>
<text text-anchor="start" x="872.72" y="-243.2" font-family="Arial" font-size="14.00">user_name </text>
<text text-anchor="start" x="946.66" y="-243.2" font-family="Arial" font-size="14.00" fill="#666666">[VARCHAR]</text>
<polygon fill="none" stroke="black" points="865.72,-200.2 865.72,-231 1043.9,-231 1043.9,-200.2 865.72,-200.2"/>
<text text-anchor="start" x="872.72" y="-212.4" font-family="Arial" font-size="14.00">first_name </text>
<text text-anchor="start" x="941.97" y="-212.4" font-family="Arial" font-size="14.00" fill="#666666">[VARCHAR]</text>
<polygon fill="none" stroke="black" points="865.72,-169.4 865.72,-200.2 1043.9,-200.2 1043.9,-169.4 865.72,-169.4"/>
<text text-anchor="start" x="872.72" y="-181.6" font-family="Arial" font-size="14.00">last_name </text>
<text text-anchor="start" x="941.21" y="-181.6" font-family="Arial" font-size="14.00" fill="#666666">[VARCHAR]</text>
<polygon fill="none" stroke="black" points="865.72,-138.6 865.72,-169.4 1043.9,-169.4 1043.9,-138.6 865.72,-138.6"/>
<text text-anchor="start" x="872.72" y="-150.8" font-family="Arial" font-size="14.00">date_of_birth </text>
<text text-anchor="start" x="958.34" y="-150.8" font-family="Arial" font-size="14.00" fill="#666666">[DATETIME]</text>
<polygon fill="none" stroke="black" points="865.72,-107.8 865.72,-138.6 1043.9,-138.6 1043.9,-107.8 865.72,-107.8"/>
<text text-anchor="start" x="872.72" y="-120" font-family="Arial" font-size="14.00">is_active </text>
<text text-anchor="start" x="931.08" y="-120" font-family="Arial" font-size="14.00" fill="#666666">[BOOLEAN]</text>
<polygon fill="none" stroke="black" points="865.72,-77 865.72,-107.8 1043.9,-107.8 1043.9,-77 865.72,-77"/>
<text text-anchor="start" x="872.72" y="-89.2" font-family="Arial" font-size="14.00">created_at </text>
<text text-anchor="start" x="942.77" y="-89.2" font-family="Arial" font-size="14.00" fill="#666666">[DATETIME]</text>
<polygon fill="none" stroke="black" points="865.72,-46.2 865.72,-77 1043.9,-77 1043.9,-46.2 865.72,-46.2"/>
<text text-anchor="start" x="872.72" y="-58.4" font-family="Arial" font-size="14.00">updated_at </text>
<text text-anchor="start" x="946.68" y="-58.4" font-family="Arial" font-size="14.00" fill="#666666">[DATETIME]</text>
<polygon fill="none" stroke="black" stroke-width="3" points="864.22,-44.7 864.22,-360.5 1045.4,-360.5 1045.4,-44.7 864.22,-44.7"/>
</g>
<!-- user_profiles -->
<g id="node2" class="node">
<title>user_profiles</title>
<polygon fill="#efefef" stroke="none" points="43.2,-746.2 43.2,-781.8 220.43,-781.8 220.43,-746.2 43.2,-746.2"/>
<polygon fill="none" stroke="black" points="43.2,-746.2 43.2,-781.8 220.43,-781.8 220.43,-746.2 43.2,-746.2"/>
<text text-anchor="start" x="50.2" y="-759.6" font-family="Arial Bold" font-size="18.00">user_profiles</text>
<text text-anchor="start" x="144.17" y="-759.6" font-family="Arial" font-size="14.00">    </text>
<text text-anchor="start" x="175.29" y="-759.6" font-family="Arial" font-size="14.00" fill="#666666">[table]</text>
<polygon fill="none" stroke="black" points="43.2,-715.4 43.2,-746.2 220.43,-746.2 220.43,-715.4 43.2,-715.4"/>
<text text-anchor="start" x="50.2" y="-727.6" font-family="Arial" font-size="14.00">id </text>
<text text-anchor="start" x="64.99" y="-727.6" font-family="Arial" font-size="14.00" fill="#666666">[INTEGER]</text>
<polygon fill="none" stroke="black" points="43.2,-684.6 43.2,-715.4 220.43,-715.4 220.43,-684.6 43.2,-684.6"/>
<text text-anchor="start" x="50.2" y="-696.8" font-family="Arial" font-size="14.00">user_id </text>
<text text-anchor="start" x="100.01" y="-696.8" font-family="Arial" font-size="14.00" fill="#666666">[INTEGER]</text>
<polygon fill="none" stroke="black" points="43.2,-653.8 43.2,-684.6 220.43,-684.6 220.43,-653.8 43.2,-653.8"/>
<text text-anchor="start" x="50.2" y="-666" font-family="Arial" font-size="14.00">bio </text>
<text text-anchor="start" x="72.77" y="-666" font-family="Arial" font-size="14.00" fill="#666666">[VARCHAR]</text>
<polygon fill="none" stroke="black" points="43.2,-623 43.2,-653.8 220.43,-653.8 220.43,-623 43.2,-623"/>
<text text-anchor="start" x="50.2" y="-635.2" font-family="Arial" font-size="14.00">website </text>
<text text-anchor="start" x="101.56" y="-635.2" font-family="Arial" font-size="14.00" fill="#666666">[VARCHAR]</text>
<polygon fill="none" stroke="black" points="43.2,-592.2 43.2,-623 220.43,-623 220.43,-592.2 43.2,-592.2"/>
<text text-anchor="start" x="50.2" y="-604.4" font-family="Arial" font-size="14.00">location </text>
<text text-anchor="start" x="102.34" y="-604.4" font-family="Arial" font-size="14.00" fill="#666666">[VARCHAR]</text>
<polygon fill="none" stroke="black" points="43.2,-561.4 43.2,-592.2 220.43,-592.2 220.43,-561.4 43.2,-561.4"/>
<text text-anchor="start" x="50.2" y="-573.6" font-family="Arial" font-size="14.00">avatar </text>
<text text-anchor="start" x="93" y="-573.6" font-family="Arial" font-size="14.00" fill="#666666">[VARCHAR]</text>
</g>
<!-- user_profiles&#45;&gt;users -->
<g id="edge1" class="edge">
<title>user_profiles:user_id&#45;&gt;users:id</title>
<path fill="none" stroke="black" d="M231.66,-699.5C329.69,-689.16 193.51,-522.54 272.81,-441.2 366.93,-344.66 729.9,-308 864.72,-308"/>
<polygon fill="black" stroke="black" points="231.75,-699.49 221.54,-695.49 226.42,-699.75 222.1,-699.97 222.1,-699.97 222.1,-699.97 226.42,-699.75 221.98,-704.48 231.75,-699.49"/>
<text text-anchor="start" x="112.24" y="-684" font-family="Arial" font-size="10.00">FOREIGN KEY (userId) REFERENCES users(id)</text>
</g>
<!-- posts -->
<g id="node3" class="node">
<title>posts</title>
<polygon fill="#efefef" stroke="none" points="324.89,-823.2 324.89,-858.8 500.74,-858.8 500.74,-823.2 324.89,-823.2"/>
<polygon fill="none" stroke="black" points="324.89,-823.2 324.89,-858.8 500.74,-858.8 500.74,-823.2 324.89,-823.2"/>
<text text-anchor="start" x="359.68" y="-836.6" font-family="Arial Bold" font-size="18.00">posts</text>
<text text-anchor="start" x="396.69" y="-836.6" font-family="Arial" font-size="14.00">    </text>
<text text-anchor="start" x="427.81" y="-836.6" font-family="Arial" font-size="14.00" fill="#666666">[table]</text>
<polygon fill="none" stroke="black" points="324.89,-792.4 324.89,-823.2 500.74,-823.2 500.74,-792.4 324.89,-792.4"/>
<text text-anchor="start" x="331.89" y="-804.6" font-family="Arial" font-size="14.00">id </text>
<text text-anchor="start" x="346.68" y="-804.6" font-family="Arial" font-size="14.00" fill="#666666">[INTEGER]</text>
<polygon fill="none" stroke="black" points="324.89,-761.6 324.89,-792.4 500.74,-792.4 500.74,-761.6 324.89,-761.6"/>
<text text-anchor="start" x="331.89" y="-773.8" font-family="Arial" font-size="14.00">title </text>
<text text-anchor="start" x="357.57" y="-773.8" font-family="Arial" font-size="14.00" fill="#666666">[VARCHAR]</text>
<polygon fill="none" stroke="black" points="324.89,-730.8 324.89,-761.6 500.74,-761.6 500.74,-730.8 324.89,-730.8"/>
<text text-anchor="start" x="331.89" y="-743" font-family="Arial" font-size="14.00">slug </text>
<text text-anchor="start" x="361.46" y="-743" font-family="Arial" font-size="14.00" fill="#666666">[VARCHAR]</text>
<polygon fill="none" stroke="black" points="324.89,-700 324.89,-730.8 500.74,-730.8 500.74,-700 324.89,-700"/>
<text text-anchor="start" x="331.89" y="-712.2" font-family="Arial" font-size="14.00">content </text>
<text text-anchor="start" x="381.7" y="-712.2" font-family="Arial" font-size="14.00" fill="#666666">[VARCHAR]</text>
<polygon fill="none" stroke="black" points="324.89,-669.2 324.89,-700 500.74,-700 500.74,-669.2 324.89,-669.2"/>
<text text-anchor="start" x="331.89" y="-681.4" font-family="Arial" font-size="14.00">excerpt </text>
<text text-anchor="start" x="381.69" y="-681.4" font-family="Arial" font-size="14.00" fill="#666666">[VARCHAR]</text>
<polygon fill="none" stroke="black" points="324.89,-638.4 324.89,-669.2 500.74,-669.2 500.74,-638.4 324.89,-638.4"/>
<text text-anchor="start" x="331.89" y="-650.6" font-family="Arial" font-size="14.00">status </text>
<text text-anchor="start" x="373.13" y="-650.6" font-family="Arial" font-size="14.00" fill="#666666">[PostStatus]</text>
<polygon fill="none" stroke="black" points="324.89,-607.6 324.89,-638.4 500.74,-638.4 500.74,-607.6 324.89,-607.6"/>
<text text-anchor="start" x="331.89" y="-619.8" font-family="Arial" font-size="14.00">published_at </text>
<text text-anchor="start" x="415.18" y="-619.8" font-family="Arial" font-size="14.00" fill="#666666">[DATETIME]</text>
<polygon fill="none" stroke="black" points="324.89,-576.8 324.89,-607.6 500.74,-607.6 500.74,-576.8 324.89,-576.8"/>
<text text-anchor="start" x="331.89" y="-589" font-family="Arial" font-size="14.00">author_id </text>
<text text-anchor="start" x="394.16" y="-589" font-family="Arial" font-size="14.00" fill="#666666">[INTEGER]</text>
<polygon fill="none" stroke="black" points="324.89,-546 324.89,-576.8 500.74,-576.8 500.74,-546 324.89,-546"/>
<text text-anchor="start" x="331.89" y="-558.2" font-family="Arial" font-size="14.00">view_count </text>
<text text-anchor="start" x="405.82" y="-558.2" font-family="Arial" font-size="14.00" fill="#666666">[INTEGER]</text>
<polygon fill="none" stroke="black" points="324.89,-515.2 324.89,-546 500.74,-546 500.74,-515.2 324.89,-515.2"/>
<text text-anchor="start" x="331.89" y="-527.4" font-family="Arial" font-size="14.00">created_at </text>
<text text-anchor="start" x="401.94" y="-527.4" font-family="Arial" font-size="14.00" fill="#666666">[DATETIME]</text>
<polygon fill="none" stroke="black" points="324.89,-484.4 324.89,-515.2 500.74,-515.2 500.74,-484.4 324.89,-484.4"/>
<text text-anchor="start" x="331.89" y="-496.6" font-family="Arial" font-size="14.00">updated_at </text>
<text text-anchor="start" x="405.85" y="-496.6" font-family="Arial" font-size="14.00" fill="#666666">[DATETIME]</text>
</g>
<!-- posts&#45;&gt;users -->
<g id="edge2" class="edge">
<title>posts:author_id&#45;&gt;users:id</title>
<path fill="none" stroke="black" d="M511.85,-591.4C565.96,-581.89 508.02,-490.45 553.81,-441.2 656.18,-331.11 714.39,-308 864.72,-308"/>
<polygon fill="black" stroke="black" points="512.04,-591.38 501.71,-587.69 506.72,-591.8 502.4,-592.15 502.4,-592.15 502.4,-592.15 506.72,-591.8 502.43,-596.66 512.04,-591.38"/>
<text text-anchor="start" x="388.1" y="-576.2" font-family="Arial" font-size="10.00">FOREIGN KEY (authorId) REFERENCES users(id)</text>
</g>
<!-- comments -->
<g id="node4" class="node">
<title>comments</title>
<polygon fill="#efefef" stroke="none" points="605.56,-777 605.56,-812.6 772.07,-812.6 772.07,-777 605.56,-777"/>
<polygon fill="none" stroke="black" points="605.56,-777 605.56,-812.6 772.07,-812.6 772.07,-777 605.56,-777"/>
<text text-anchor="start" x="617.19" y="-790.4" font-family="Arial Bold" font-size="18.00">comments</text>
<text text-anchor="start" x="691.18" y="-790.4" font-family="Arial" font-size="14.00">    </text>
<text text-anchor="start" x="722.3" y="-790.4" font-family="Arial" font-size="14.00" fill="#666666">[table]</text>
<polygon fill="none" stroke="black" points="605.56,-746.2 605.56,-777 772.07,-777 772.07,-746.2 605.56,-746.2"/>
<text text-anchor="start" x="612.56" y="-758.4" font-family="Arial" font-size="14.00">id </text>
<text text-anchor="start" x="627.34" y="-758.4" font-family="Arial" font-size="14.00" fill="#666666">[INTEGER]</text>
<polygon fill="none" stroke="black" points="605.56,-715.4 605.56,-746.2 772.07,-746.2 772.07,-715.4 605.56,-715.4"/>
<text text-anchor="start" x="612.56" y="-727.6" font-family="Arial" font-size="14.00">content </text>
<text text-anchor="start" x="662.37" y="-727.6" font-family="Arial" font-size="14.00" fill="#666666">[VARCHAR]</text>
<polygon fill="none" stroke="black" points="605.56,-684.6 605.56,-715.4 772.07,-715.4 772.07,-684.6 605.56,-684.6"/>
<text text-anchor="start" x="612.56" y="-696.8" font-family="Arial" font-size="14.00">post_id </text>
<text text-anchor="start" x="661.59" y="-696.8" font-family="Arial" font-size="14.00" fill="#666666">[INTEGER]</text>
<polygon fill="none" stroke="black" points="605.56,-653.8 605.56,-684.6 772.07,-684.6 772.07,-653.8 605.56,-653.8"/>
<text text-anchor="start" x="612.56" y="-666" font-family="Arial" font-size="14.00">author_id </text>
<text text-anchor="start" x="674.82" y="-666" font-family="Arial" font-size="14.00" fill="#666666">[INTEGER]</text>
<polygon fill="none" stroke="black" points="605.56,-623 605.56,-653.8 772.07,-653.8 772.07,-623 605.56,-623"/>
<text text-anchor="start" x="612.56" y="-635.2" font-family="Arial" font-size="14.00">parent_id </text>
<text text-anchor="start" x="674.82" y="-635.2" font-family="Arial" font-size="14.00" fill="#666666">[INTEGER]</text>
<polygon fill="none" stroke="black" points="605.56,-592.2 605.56,-623 772.07,-623 772.07,-592.2 605.56,-592.2"/>
<text text-anchor="start" x="612.56" y="-604.4" font-family="Arial" font-size="14.00">is_edited </text>
<text text-anchor="start" x="672.49" y="-604.4" font-family="Arial" font-size="14.00" fill="#666666">[BOOLEAN]</text>
<polygon fill="none" stroke="black" points="605.56,-561.4 605.56,-592.2 772.07,-592.2 772.07,-561.4 605.56,-561.4"/>
<text text-anchor="start" x="612.56" y="-573.6" font-family="Arial" font-size="14.00">created_at </text>
<text text-anchor="start" x="682.6" y="-573.6" font-family="Arial" font-size="14.00" fill="#666666">[DATETIME]</text>
<polygon fill="none" stroke="black" points="605.56,-530.6 605.56,-561.4 772.07,-561.4 772.07,-530.6 605.56,-530.6"/>
<text text-anchor="start" x="612.56" y="-542.8" font-family="Arial" font-size="14.00">updated_at </text>
<text text-anchor="start" x="686.51" y="-542.8" font-family="Arial" font-size="14.00" fill="#666666">[DATETIME]</text>
</g>
<!-- comments&#45;&gt;users -->
<g id="edge3" class="edge">
<title>comments:author_id&#45;&gt;users:id</title>
<path fill="none" stroke="black" d="M782.9,-667.26C849.82,-638.83 785.47,-308 864.72,-308"/>
<polygon fill="black" stroke="black" points="783.21,-667.2 772.53,-664.72 777.98,-668.23 773.73,-669.07 773.73,-669.07 773.73,-669.07 777.98,-668.23 774.27,-673.55 783.21,-667.2"/>
<text text-anchor="start" x="780.07" y="-679.2" font-family="Arial" font-size="10.00">FOREIGN KEY (authorId) REFERENCES users(id)</text>
</g>
<!-- post_likes -->
<g id="node5" class="node">
<title>post_likes</title>
<polygon fill="#efefef" stroke="none" points="876.69,-700 876.69,-735.6 1032.94,-735.6 1032.94,-700 876.69,-700"/>
<polygon fill="none" stroke="black" points="876.69,-700 876.69,-735.6 1032.94,-735.6 1032.94,-700 876.69,-700"/>
<text text-anchor="start" x="883.69" y="-713.4" font-family="Arial Bold" font-size="18.00">post_likes</text>
<text text-anchor="start" x="956.69" y="-713.4" font-family="Arial" font-size="14.00">    </text>
<text text-anchor="start" x="987.8" y="-713.4" font-family="Arial" font-size="14.00" fill="#666666">[table]</text>
<polygon fill="none" stroke="black" points="876.69,-669.2 876.69,-700 1032.94,-700 1032.94,-669.2 876.69,-669.2"/>
<text text-anchor="start" x="883.69" y="-681.4" font-family="Arial" font-size="14.00">user_id </text>
<text text-anchor="start" x="933.49" y="-681.4" font-family="Arial" font-size="14.00" fill="#666666">[INTEGER]</text>
<polygon fill="none" stroke="black" points="876.69,-638.4 876.69,-669.2 1032.94,-669.2 1032.94,-638.4 876.69,-638.4"/>
<text text-anchor="start" x="883.69" y="-650.6" font-family="Arial" font-size="14.00">post_id </text>
<text text-anchor="start" x="932.72" y="-650.6" font-family="Arial" font-size="14.00" fill="#666666">[INTEGER]</text>
<polygon fill="none" stroke="black" points="876.69,-607.6 876.69,-638.4 1032.94,-638.4 1032.94,-607.6 876.69,-607.6"/>
<text text-anchor="start" x="883.69" y="-619.8" font-family="Arial" font-size="14.00">liked_at </text>
<text text-anchor="start" x="935.83" y="-619.8" font-family="Arial" font-size="14.00" fill="#666666">[DATETIME]</text>
</g>
<!-- post_likes&#45;&gt;users -->
<g id="edge4" class="edge">
<title>post_likes:user_id&#45;&gt;users:id</title>
<path fill="none" stroke="black" d="M1042.53,-678.98C1077.11,-632.14 1083.74,-308 1044.9,-308"/>
<polygon fill="black" stroke="black" points="1042.59,-678.94 1031.76,-680.65 1038.13,-681.86 1034.5,-684.23 1034.5,-684.23 1034.5,-684.23 1038.13,-681.86 1036.69,-688.18 1042.59,-678.94"/>
<text text-anchor="start" x="924.76" y="-668.6" font-family="Arial" font-size="10.00">FOREIGN KEY (userId) REFERENCES users(id)</text>
</g>
<!-- follows -->
<g id="node6" class="node">
<title>follows</title>
<polygon fill="#efefef" stroke="none" points="1137.18,-700 1137.18,-735.6 1304.45,-735.6 1304.45,-700 1137.18,-700"/>
<polygon fill="none" stroke="black" points="1137.18,-700 1137.18,-735.6 1304.45,-735.6 1304.45,-700 1137.18,-700"/>
<text text-anchor="start" x="1159.19" y="-713.4" font-family="Arial Bold" font-size="18.00">follows</text>
<text text-anchor="start" x="1213.19" y="-713.4" font-family="Arial" font-size="14.00">    </text>
<text text-anchor="start" x="1244.3" y="-713.4" font-family="Arial" font-size="14.00" fill="#666666">[table]</text>
<polygon fill="none" stroke="black" points="1137.18,-669.2 1137.18,-700 1304.45,-700 1304.45,-669.2 1137.18,-669.2"/>
<text text-anchor="start" x="1144.18" y="-681.4" font-family="Arial" font-size="14.00">follower_id </text>
<text text-anchor="start" x="1214.99" y="-681.4" font-family="Arial" font-size="14.00" fill="#666666">[INTEGER]</text>
<polygon fill="none" stroke="black" points="1137.18,-638.4 1137.18,-669.2 1304.45,-669.2 1304.45,-638.4 1137.18,-638.4"/>
<text text-anchor="start" x="1144.18" y="-650.6" font-family="Arial" font-size="14.00">following_id </text>
<text text-anchor="start" x="1221.22" y="-650.6" font-family="Arial" font-size="14.00" fill="#666666">[INTEGER]</text>
<polygon fill="none" stroke="black" points="1137.18,-607.6 1137.18,-638.4 1304.45,-638.4 1304.45,-607.6 1137.18,-607.6"/>
<text text-anchor="start" x="1144.18" y="-619.8" font-family="Arial" font-size="14.00">followed_at </text>
<text text-anchor="start" x="1218.89" y="-619.8" font-family="Arial" font-size="14.00" fill="#666666">[DATETIME]</text>
</g>
<!-- follows&#45;&gt;users -->
<g id="edge5" class="edge">
<title>follows:follower_id&#45;&gt;users:id</title>
<path fill="none" stroke="black" d="M1125.97,-682.57C1056.71,-652.93 1127.31,-308 1044.9,-308"/>
<polygon fill="black" stroke="black" points="1126.04,-682.59 1134.97,-688.95 1131.27,-683.63 1135.52,-684.47 1135.52,-684.47 1135.52,-684.47 1131.27,-683.63 1136.72,-680.12 1126.04,-682.59"/>
<text text-anchor="start" x="1143.18" y="-694.6" font-family="Arial" font-size="10.00">FOREIGN KEY (followerId) REFERENCES users(id)</text>
</g>
<!-- follows&#45;&gt;users -->
<g id="edge6" class="edge">
<title>follows:following_id&#45;&gt;users:id</title>
<path fill="none" stroke="black" d="M1126.33,-651.77C1062.48,-623.43 1120.81,-308 1044.9,-308"/>
<polygon fill="black" stroke="black" points="1126.05,-651.71 1134.94,-658.14 1131.28,-652.79 1135.52,-653.66 1135.52,-653.66 1135.52,-653.66 1131.28,-652.79 1136.76,-649.33 1126.05,-651.71"/>
<text text-anchor="start" x="954.3" y="-637.8" font-family="Arial" font-size="10.00">FOREIGN KEY (followingId) REFERENCES users(id)</text>
</g>
<!-- file_uploads -->
<g id="node7" class="node">
<title>file_uploads</title>
<polygon fill="#efefef" stroke="none" points="1408.78,-777 1408.78,-812.6 1590.85,-812.6 1590.85,-777 1408.78,-777"/>
<polygon fill="none" stroke="black" points="1408.78,-777 1408.78,-812.6 1590.85,-812.6 1590.85,-777 1408.78,-777"/>
<text text-anchor="start" x="1420.7" y="-790.4" font-family="Arial Bold" font-size="18.00">file_uploads</text>
<text text-anchor="start" x="1509.68" y="-790.4" font-family="Arial" font-size="14.00">    </text>
<text text-anchor="start" x="1540.79" y="-790.4" font-family="Arial" font-size="14.00" fill="#666666">[table]</text>
<polygon fill="none" stroke="black" points="1408.78,-746.2 1408.78,-777 1590.85,-777 1590.85,-746.2 1408.78,-746.2"/>
<text text-anchor="start" x="1415.78" y="-758.4" font-family="Arial" font-size="14.00">id </text>
<text text-anchor="start" x="1430.57" y="-758.4" font-family="Arial" font-size="14.00" fill="#666666">[VARCHAR]</text>
<polygon fill="none" stroke="black" points="1408.78,-715.4 1408.78,-746.2 1590.85,-746.2 1590.85,-715.4 1408.78,-715.4"/>
<text text-anchor="start" x="1415.78" y="-727.6" font-family="Arial" font-size="14.00">filename </text>
<text text-anchor="start" x="1472.59" y="-727.6" font-family="Arial" font-size="14.00" fill="#666666">[VARCHAR]</text>
<polygon fill="none" stroke="black" points="1408.78,-684.6 1408.78,-715.4 1590.85,-715.4 1590.85,-684.6 1408.78,-684.6"/>
<text text-anchor="start" x="1415.78" y="-696.8" font-family="Arial" font-size="14.00">original_name </text>
<text text-anchor="start" x="1507.61" y="-696.8" font-family="Arial" font-size="14.00" fill="#666666">[VARCHAR]</text>
<polygon fill="none" stroke="black" points="1408.78,-653.8 1408.78,-684.6 1590.85,-684.6 1590.85,-653.8 1408.78,-653.8"/>
<text text-anchor="start" x="1415.78" y="-666" font-family="Arial" font-size="14.00">mime_type </text>
<text text-anchor="start" x="1488.14" y="-666" font-family="Arial" font-size="14.00" fill="#666666">[VARCHAR]</text>
<polygon fill="none" stroke="black" points="1408.78,-623 1408.78,-653.8 1590.85,-653.8 1590.85,-623 1408.78,-623"/>
<text text-anchor="start" x="1415.78" y="-635.2" font-family="Arial" font-size="14.00">size </text>
<text text-anchor="start" x="1444.57" y="-635.2" font-family="Arial" font-size="14.00" fill="#666666">[BIGINT]</text>
<polygon fill="none" stroke="black" points="1408.78,-592.2 1408.78,-623 1590.85,-623 1590.85,-592.2 1408.78,-592.2"/>
<text text-anchor="start" x="1415.78" y="-604.4" font-family="Arial" font-size="14.00">path </text>
<text text-anchor="start" x="1446.92" y="-604.4" font-family="Arial" font-size="14.00" fill="#666666">[VARCHAR]</text>
<polygon fill="none" stroke="black" points="1408.78,-561.4 1408.78,-592.2 1590.85,-592.2 1590.85,-561.4 1408.78,-561.4"/>
<text text-anchor="start" x="1415.78" y="-573.6" font-family="Arial" font-size="14.00">uploaded_by </text>
<text text-anchor="start" x="1499.85" y="-573.6" font-family="Arial" font-size="14.00" fill="#666666">[INTEGER]</text>
<polygon fill="none" stroke="black" points="1408.78,-530.6 1408.78,-561.4 1590.85,-561.4 1590.85,-530.6 1408.78,-530.6"/>
<text text-anchor="start" x="1415.78" y="-542.8" font-family="Arial" font-size="14.00">uploaded_at </text>
<text text-anchor="start" x="1496.74" y="-542.8" font-family="Arial" font-size="14.00" fill="#666666">[DATETIME]</text>
</g>
<!-- file_uploads&#45;&gt;users -->
<g id="edge7" class="edge">
<title>file_uploads:uploaded_by&#45;&gt;users:id</title>
<path fill="none" stroke="black" d="M1397.68,-575.91C1349.83,-566.51 1398.72,-484.99 1356.81,-441.2 1252.6,-332.29 1195.64,-308 1044.9,-308"/>
<polygon fill="black" stroke="black" points="1397.49,-575.89 1407.05,-581.25 1402.8,-576.36 1407.11,-576.74 1407.11,-576.74 1407.11,-576.74 1402.8,-576.36 1407.84,-572.29 1397.49,-575.89"/>
<text text-anchor="start" x="1157.38" y="-560.8" font-family="Arial" font-size="10.00">FOREIGN KEY (uploadedBy) REFERENCES users(id)</text>
</g>
</g>
</svg>
