<?xml version="1.0" encoding="UTF-8" standalone="no"?>
<!DOCTYPE svg PUBLIC "-//W3C//DTD SVG 1.1//EN"
 "http://www.w3.org/Graphics/SVG/1.1/DTD/svg11.dtd">
<!-- Generated by graphviz version 12.1.2 (20240928.0832)
 -->
<!-- Title: user_profiles Pages: 1 -->
<svg width="465pt" height="756pt"
 viewBox="0.00 0.00 464.80 756.00" xmlns="http://www.w3.org/2000/svg" xmlns:xlink="http://www.w3.org/1999/xlink">
<g id="graph0" class="graph" transform="scale(1 1) rotate(0) translate(4 752)">
<title>user_profiles</title>
<polygon fill="white" stroke="none" points="-4,4 -4,-752 460.8,-752 460.8,4 -4,4"/>
<!-- user_profiles -->
<g id="node1" class="node">
<title>user_profiles</title>
<polygon fill="#efefef" stroke="none" points="46.2,-666.2 46.2,-701.8 223.43,-701.8 223.43,-666.2 46.2,-666.2"/>
<polygon fill="none" stroke="black" points="46.2,-666.2 46.2,-701.8 223.43,-701.8 223.43,-666.2 46.2,-666.2"/>
<text text-anchor="start" x="53.2" y="-679.6" font-family="Arial Bold" font-size="18.00">user_profiles</text>
<text text-anchor="start" x="147.17" y="-679.6" font-family="Arial" font-size="14.00">    </text>
<text text-anchor="start" x="178.29" y="-679.6" font-family="Arial" font-size="14.00" fill="#666666">[table]</text>
<polygon fill="none" stroke="black" points="46.2,-635.4 46.2,-666.2 223.43,-666.2 223.43,-635.4 46.2,-635.4"/>
<text text-anchor="start" x="53.2" y="-647.6" font-family="Arial" font-size="14.00">id </text>
<text text-anchor="start" x="67.99" y="-647.6" font-family="Arial" font-size="14.00" fill="#666666">[INTEGER]</text>
<polygon fill="none" stroke="black" points="46.2,-604.6 46.2,-635.4 223.43,-635.4 223.43,-604.6 46.2,-604.6"/>
<text text-anchor="start" x="53.2" y="-616.8" font-family="Arial" font-size="14.00">user_id </text>
<text text-anchor="start" x="103.01" y="-616.8" font-family="Arial" font-size="14.00" fill="#666666">[INTEGER]</text>
<polygon fill="none" stroke="black" points="46.2,-573.8 46.2,-604.6 223.43,-604.6 223.43,-573.8 46.2,-573.8"/>
<text text-anchor="start" x="53.2" y="-586" font-family="Arial" font-size="14.00">bio </text>
<text text-anchor="start" x="75.77" y="-586" font-family="Arial" font-size="14.00" fill="#666666">[VARCHAR]</text>
<polygon fill="none" stroke="black" points="46.2,-543 46.2,-573.8 223.43,-573.8 223.43,-543 46.2,-543"/>
<text text-anchor="start" x="53.2" y="-555.2" font-family="Arial" font-size="14.00">website </text>
<text text-anchor="start" x="104.56" y="-555.2" font-family="Arial" font-size="14.00" fill="#666666">[VARCHAR]</text>
<polygon fill="none" stroke="black" points="46.2,-512.2 46.2,-543 223.43,-543 223.43,-512.2 46.2,-512.2"/>
<text text-anchor="start" x="53.2" y="-524.4" font-family="Arial" font-size="14.00">location </text>
<text text-anchor="start" x="105.34" y="-524.4" font-family="Arial" font-size="14.00" fill="#666666">[VARCHAR]</text>
<polygon fill="none" stroke="black" points="46.2,-481.4 46.2,-512.2 223.43,-512.2 223.43,-481.4 46.2,-481.4"/>
<text text-anchor="start" x="53.2" y="-493.6" font-family="Arial" font-size="14.00">avatar </text>
<text text-anchor="start" x="96" y="-493.6" font-family="Arial" font-size="14.00" fill="#666666">[VARCHAR]</text>
<polygon fill="none" stroke="black" stroke-width="3" points="44.7,-479.9 44.7,-703.3 224.93,-703.3 224.93,-479.9 44.7,-479.9"/>
</g>
<!-- users -->
<g id="node2" class="node">
<title>users</title>
<polygon fill="#efefef" stroke="none" points="45.72,-320.4 45.72,-356 223.9,-356 223.9,-320.4 45.72,-320.4"/>
<polygon fill="none" stroke="black" points="45.72,-320.4 45.72,-356 223.9,-356 223.9,-320.4 45.72,-320.4"/>
<text text-anchor="start" x="81.69" y="-333.8" font-family="Arial Bold" font-size="18.00">users</text>
<text text-anchor="start" x="118.68" y="-333.8" font-family="Arial" font-size="14.00">    </text>
<text text-anchor="start" x="149.8" y="-333.8" font-family="Arial" font-size="14.00" fill="#666666">[table]</text>
<polygon fill="none" stroke="black" points="45.72,-289.6 45.72,-320.4 223.9,-320.4 223.9,-289.6 45.72,-289.6"/>
<text text-anchor="start" x="52.72" y="-301.8" font-family="Arial" font-size="14.00">id </text>
<text text-anchor="start" x="67.51" y="-301.8" font-family="Arial" font-size="14.00" fill="#666666">[INTEGER]</text>
<polygon fill="none" stroke="black" points="45.72,-258.8 45.72,-289.6 223.9,-289.6 223.9,-258.8 45.72,-258.8"/>
<text text-anchor="start" x="52.72" y="-271" font-family="Arial" font-size="14.00">email </text>
<text text-anchor="start" x="90.07" y="-271" font-family="Arial" font-size="14.00" fill="#666666">[VARCHAR]</text>
<polygon fill="none" stroke="black" points="45.72,-228 45.72,-258.8 223.9,-258.8 223.9,-228 45.72,-228"/>
<text text-anchor="start" x="52.72" y="-240.2" font-family="Arial" font-size="14.00">user_name </text>
<text text-anchor="start" x="126.66" y="-240.2" font-family="Arial" font-size="14.00" fill="#666666">[VARCHAR]</text>
<polygon fill="none" stroke="black" points="45.72,-197.2 45.72,-228 223.9,-228 223.9,-197.2 45.72,-197.2"/>
<text text-anchor="start" x="52.72" y="-209.4" font-family="Arial" font-size="14.00">first_name </text>
<text text-anchor="start" x="121.97" y="-209.4" font-family="Arial" font-size="14.00" fill="#666666">[VARCHAR]</text>
<polygon fill="none" stroke="black" points="45.72,-166.4 45.72,-197.2 223.9,-197.2 223.9,-166.4 45.72,-166.4"/>
<text text-anchor="start" x="52.72" y="-178.6" font-family="Arial" font-size="14.00">last_name </text>
<text text-anchor="start" x="121.21" y="-178.6" font-family="Arial" font-size="14.00" fill="#666666">[VARCHAR]</text>
<polygon fill="none" stroke="black" points="45.72,-135.6 45.72,-166.4 223.9,-166.4 223.9,-135.6 45.72,-135.6"/>
<text text-anchor="start" x="52.72" y="-147.8" font-family="Arial" font-size="14.00">date_of_birth </text>
<text text-anchor="start" x="138.34" y="-147.8" font-family="Arial" font-size="14.00" fill="#666666">[DATETIME]</text>
<polygon fill="none" stroke="black" points="45.72,-104.8 45.72,-135.6 223.9,-135.6 223.9,-104.8 45.72,-104.8"/>
<text text-anchor="start" x="52.72" y="-117" font-family="Arial" font-size="14.00">is_active </text>
<text text-anchor="start" x="111.08" y="-117" font-family="Arial" font-size="14.00" fill="#666666">[BOOLEAN]</text>
<polygon fill="none" stroke="black" points="45.72,-74 45.72,-104.8 223.9,-104.8 223.9,-74 45.72,-74"/>
<text text-anchor="start" x="52.72" y="-86.2" font-family="Arial" font-size="14.00">created_at </text>
<text text-anchor="start" x="122.77" y="-86.2" font-family="Arial" font-size="14.00" fill="#666666">[DATETIME]</text>
<polygon fill="none" stroke="black" points="45.72,-43.2 45.72,-74 223.9,-74 223.9,-43.2 45.72,-43.2"/>
<text text-anchor="start" x="52.72" y="-55.4" font-family="Arial" font-size="14.00">updated_at </text>
<text text-anchor="start" x="126.68" y="-55.4" font-family="Arial" font-size="14.00" fill="#666666">[DATETIME]</text>
</g>
<!-- user_profiles&#45;&gt;users -->
<g id="edge1" class="edge">
<title>user_profiles:user_id&#45;&gt;users:id</title>
<path fill="none" stroke="black" d="M234.55,-617.65C294.29,-588.82 291.35,-305 224.9,-305"/>
<polygon fill="black" stroke="black" points="234.49,-617.66 223.73,-615.54 229.3,-618.87 225.08,-619.85 225.08,-619.85 225.08,-619.85 229.3,-618.87 225.77,-624.31 234.49,-617.66"/>
<text text-anchor="start" x="231.43" y="-630" font-family="Arial" font-size="10.00">FOREIGN KEY (userId) REFERENCES users(id)</text>
</g>
</g>
</svg>
