<?xml version="1.0" encoding="UTF-8" standalone="no"?>
<!DOCTYPE svg PUBLIC "-//W3C//DTD SVG 1.1//EN"
 "http://www.w3.org/Graphics/SVG/1.1/DTD/svg11.dtd">
<!-- Generated by graphviz version 12.1.2 (20240928.0832)
 -->
<!-- Title: comments on post Pages: 1 -->
<svg width="649pt" height="1534pt"
 viewBox="0.00 0.00 649.06 1533.70" xmlns="http://www.w3.org/2000/svg" xmlns:xlink="http://www.w3.org/1999/xlink">
<g id="graph0" class="graph" transform="scale(1 1) rotate(0) translate(4 1529.7)">
<title>comments on post</title>
<polygon fill="white" stroke="none" points="-4,4 -4,-1529.7 645.06,-1529.7 645.06,4 -4,4"/>
<!-- users -->
<g id="node1" class="node">
<title>users</title>
<polygon fill="#efefef" stroke="none" points="236.44,-320.4 236.44,-356 414.62,-356 414.62,-320.4 236.44,-320.4"/>
<polygon fill="none" stroke="black" points="236.44,-320.4 236.44,-356 414.62,-356 414.62,-320.4 236.44,-320.4"/>
<text text-anchor="start" x="272.41" y="-333.8" font-family="Arial Bold" font-size="18.00">users</text>
<text text-anchor="start" x="309.4" y="-333.8" font-family="Arial" font-size="14.00">    </text>
<text text-anchor="start" x="340.52" y="-333.8" font-family="Arial" font-size="14.00" fill="#666666">[table]</text>
<polygon fill="none" stroke="black" points="236.44,-289.6 236.44,-320.4 414.62,-320.4 414.62,-289.6 236.44,-289.6"/>
<text text-anchor="start" x="243.44" y="-301.8" font-family="Arial" font-size="14.00">id </text>
<text text-anchor="start" x="258.23" y="-301.8" font-family="Arial" font-size="14.00" fill="#666666">[INTEGER]</text>
<polygon fill="none" stroke="black" points="236.44,-258.8 236.44,-289.6 414.62,-289.6 414.62,-258.8 236.44,-258.8"/>
<text text-anchor="start" x="243.44" y="-271" font-family="Arial" font-size="14.00">email </text>
<text text-anchor="start" x="280.79" y="-271" font-family="Arial" font-size="14.00" fill="#666666">[VARCHAR]</text>
<polygon fill="none" stroke="black" points="236.44,-228 236.44,-258.8 414.62,-258.8 414.62,-228 236.44,-228"/>
<text text-anchor="start" x="243.44" y="-240.2" font-family="Arial" font-size="14.00">user_name </text>
<text text-anchor="start" x="317.38" y="-240.2" font-family="Arial" font-size="14.00" fill="#666666">[VARCHAR]</text>
<polygon fill="none" stroke="black" points="236.44,-197.2 236.44,-228 414.62,-228 414.62,-197.2 236.44,-197.2"/>
<text text-anchor="start" x="243.44" y="-209.4" font-family="Arial" font-size="14.00">first_name </text>
<text text-anchor="start" x="312.69" y="-209.4" font-family="Arial" font-size="14.00" fill="#666666">[VARCHAR]</text>
<polygon fill="none" stroke="black" points="236.44,-166.4 236.44,-197.2 414.62,-197.2 414.62,-166.4 236.44,-166.4"/>
<text text-anchor="start" x="243.44" y="-178.6" font-family="Arial" font-size="14.00">last_name </text>
<text text-anchor="start" x="311.93" y="-178.6" font-family="Arial" font-size="14.00" fill="#666666">[VARCHAR]</text>
<polygon fill="none" stroke="black" points="236.44,-135.6 236.44,-166.4 414.62,-166.4 414.62,-135.6 236.44,-135.6"/>
<text text-anchor="start" x="243.44" y="-147.8" font-family="Arial" font-size="14.00">date_of_birth </text>
<text text-anchor="start" x="329.06" y="-147.8" font-family="Arial" font-size="14.00" fill="#666666">[DATETIME]</text>
<polygon fill="none" stroke="black" points="236.44,-104.8 236.44,-135.6 414.62,-135.6 414.62,-104.8 236.44,-104.8"/>
<text text-anchor="start" x="243.44" y="-117" font-family="Arial" font-size="14.00">is_active </text>
<text text-anchor="start" x="301.8" y="-117" font-family="Arial" font-size="14.00" fill="#666666">[BOOLEAN]</text>
<polygon fill="none" stroke="black" points="236.44,-74 236.44,-104.8 414.62,-104.8 414.62,-74 236.44,-74"/>
<text text-anchor="start" x="243.44" y="-86.2" font-family="Arial" font-size="14.00">created_at </text>
<text text-anchor="start" x="313.49" y="-86.2" font-family="Arial" font-size="14.00" fill="#666666">[DATETIME]</text>
<polygon fill="none" stroke="black" points="236.44,-43.2 236.44,-74 414.62,-74 414.62,-43.2 236.44,-43.2"/>
<text text-anchor="start" x="243.44" y="-55.4" font-family="Arial" font-size="14.00">updated_at </text>
<text text-anchor="start" x="317.4" y="-55.4" font-family="Arial" font-size="14.00" fill="#666666">[DATETIME]</text>
</g>
<!-- posts -->
<g id="node2" class="node">
<title>posts</title>
<polygon fill="#efefef" stroke="none" points="317.61,-817.2 317.61,-852.8 493.46,-852.8 493.46,-817.2 317.61,-817.2"/>
<polygon fill="none" stroke="black" points="317.61,-817.2 317.61,-852.8 493.46,-852.8 493.46,-817.2 317.61,-817.2"/>
<text text-anchor="start" x="352.4" y="-830.6" font-family="Arial Bold" font-size="18.00">posts</text>
<text text-anchor="start" x="389.41" y="-830.6" font-family="Arial" font-size="14.00">    </text>
<text text-anchor="start" x="420.53" y="-830.6" font-family="Arial" font-size="14.00" fill="#666666">[table]</text>
<polygon fill="none" stroke="black" points="317.61,-786.4 317.61,-817.2 493.46,-817.2 493.46,-786.4 317.61,-786.4"/>
<text text-anchor="start" x="324.61" y="-798.6" font-family="Arial" font-size="14.00">id </text>
<text text-anchor="start" x="339.4" y="-798.6" font-family="Arial" font-size="14.00" fill="#666666">[INTEGER]</text>
<polygon fill="none" stroke="black" points="317.61,-755.6 317.61,-786.4 493.46,-786.4 493.46,-755.6 317.61,-755.6"/>
<text text-anchor="start" x="324.61" y="-767.8" font-family="Arial" font-size="14.00">title </text>
<text text-anchor="start" x="350.29" y="-767.8" font-family="Arial" font-size="14.00" fill="#666666">[VARCHAR]</text>
<polygon fill="none" stroke="black" points="317.61,-724.8 317.61,-755.6 493.46,-755.6 493.46,-724.8 317.61,-724.8"/>
<text text-anchor="start" x="324.61" y="-737" font-family="Arial" font-size="14.00">slug </text>
<text text-anchor="start" x="354.18" y="-737" font-family="Arial" font-size="14.00" fill="#666666">[VARCHAR]</text>
<polygon fill="none" stroke="black" points="317.61,-694 317.61,-724.8 493.46,-724.8 493.46,-694 317.61,-694"/>
<text text-anchor="start" x="324.61" y="-706.2" font-family="Arial" font-size="14.00">content </text>
<text text-anchor="start" x="374.42" y="-706.2" font-family="Arial" font-size="14.00" fill="#666666">[VARCHAR]</text>
<polygon fill="none" stroke="black" points="317.61,-663.2 317.61,-694 493.46,-694 493.46,-663.2 317.61,-663.2"/>
<text text-anchor="start" x="324.61" y="-675.4" font-family="Arial" font-size="14.00">excerpt </text>
<text text-anchor="start" x="374.41" y="-675.4" font-family="Arial" font-size="14.00" fill="#666666">[VARCHAR]</text>
<polygon fill="none" stroke="black" points="317.61,-632.4 317.61,-663.2 493.46,-663.2 493.46,-632.4 317.61,-632.4"/>
<text text-anchor="start" x="324.61" y="-644.6" font-family="Arial" font-size="14.00">status </text>
<text text-anchor="start" x="365.85" y="-644.6" font-family="Arial" font-size="14.00" fill="#666666">[PostStatus]</text>
<polygon fill="none" stroke="black" points="317.61,-601.6 317.61,-632.4 493.46,-632.4 493.46,-601.6 317.61,-601.6"/>
<text text-anchor="start" x="324.61" y="-613.8" font-family="Arial" font-size="14.00">published_at </text>
<text text-anchor="start" x="407.9" y="-613.8" font-family="Arial" font-size="14.00" fill="#666666">[DATETIME]</text>
<polygon fill="none" stroke="black" points="317.61,-570.8 317.61,-601.6 493.46,-601.6 493.46,-570.8 317.61,-570.8"/>
<text text-anchor="start" x="324.61" y="-583" font-family="Arial" font-size="14.00">author_id </text>
<text text-anchor="start" x="386.88" y="-583" font-family="Arial" font-size="14.00" fill="#666666">[INTEGER]</text>
<polygon fill="none" stroke="black" points="317.61,-540 317.61,-570.8 493.46,-570.8 493.46,-540 317.61,-540"/>
<text text-anchor="start" x="324.61" y="-552.2" font-family="Arial" font-size="14.00">view_count </text>
<text text-anchor="start" x="398.54" y="-552.2" font-family="Arial" font-size="14.00" fill="#666666">[INTEGER]</text>
<polygon fill="none" stroke="black" points="317.61,-509.2 317.61,-540 493.46,-540 493.46,-509.2 317.61,-509.2"/>
<text text-anchor="start" x="324.61" y="-521.4" font-family="Arial" font-size="14.00">created_at </text>
<text text-anchor="start" x="394.66" y="-521.4" font-family="Arial" font-size="14.00" fill="#666666">[DATETIME]</text>
<polygon fill="none" stroke="black" points="317.61,-478.4 317.61,-509.2 493.46,-509.2 493.46,-478.4 317.61,-478.4"/>
<text text-anchor="start" x="324.61" y="-490.6" font-family="Arial" font-size="14.00">updated_at </text>
<text text-anchor="start" x="398.57" y="-490.6" font-family="Arial" font-size="14.00" fill="#666666">[DATETIME]</text>
</g>
<!-- posts&#45;&gt;users -->
<g id="edge1" class="edge">
<title>posts:author_id&#45;&gt;users:id</title>
<path fill="none" stroke="black" d="M306.45,-585.36C252.76,-575.82 281.21,-487.16 317.61,-435.2 344,-397.53 388.16,-436.82 414.62,-399.2 438.71,-364.96 457.49,-305 415.62,-305"/>
<polygon fill="black" stroke="black" points="306.31,-585.35 315.91,-590.66 311.63,-585.79 315.94,-586.14 315.94,-586.14 315.94,-586.14 311.63,-585.79 316.65,-581.69 306.31,-585.35"/>
<text text-anchor="start" x="82.33" y="-596.2" font-family="Arial" font-size="10.00">FOREIGN KEY (authorId) REFERENCES users(id)</text>
</g>
<!-- comments -->
<g id="node3" class="node">
<title>comments</title>
<polygon fill="#efefef" stroke="none" points="242.28,-1221.6 242.28,-1257.2 408.79,-1257.2 408.79,-1221.6 242.28,-1221.6"/>
<polygon fill="none" stroke="black" points="242.28,-1221.6 242.28,-1257.2 408.79,-1257.2 408.79,-1221.6 242.28,-1221.6"/>
<text text-anchor="start" x="253.91" y="-1235" font-family="Arial Bold" font-size="18.00">comments</text>
<text text-anchor="start" x="327.9" y="-1235" font-family="Arial" font-size="14.00">    </text>
<text text-anchor="start" x="359.02" y="-1235" font-family="Arial" font-size="14.00" fill="#666666">[table]</text>
<polygon fill="none" stroke="black" points="242.28,-1190.8 242.28,-1221.6 408.79,-1221.6 408.79,-1190.8 242.28,-1190.8"/>
<text text-anchor="start" x="249.28" y="-1203" font-family="Arial" font-size="14.00">id </text>
<text text-anchor="start" x="264.06" y="-1203" font-family="Arial" font-size="14.00" fill="#666666">[INTEGER]</text>
<polygon fill="none" stroke="black" points="242.28,-1160 242.28,-1190.8 408.79,-1190.8 408.79,-1160 242.28,-1160"/>
<text text-anchor="start" x="249.28" y="-1172.2" font-family="Arial" font-size="14.00">content </text>
<text text-anchor="start" x="299.09" y="-1172.2" font-family="Arial" font-size="14.00" fill="#666666">[VARCHAR]</text>
<polygon fill="none" stroke="black" points="242.28,-1129.2 242.28,-1160 408.79,-1160 408.79,-1129.2 242.28,-1129.2"/>
<text text-anchor="start" x="249.28" y="-1141.4" font-family="Arial" font-size="14.00">post_id </text>
<text text-anchor="start" x="298.31" y="-1141.4" font-family="Arial" font-size="14.00" fill="#666666">[INTEGER]</text>
<polygon fill="none" stroke="black" points="242.28,-1098.4 242.28,-1129.2 408.79,-1129.2 408.79,-1098.4 242.28,-1098.4"/>
<text text-anchor="start" x="249.28" y="-1110.6" font-family="Arial" font-size="14.00">author_id </text>
<text text-anchor="start" x="311.54" y="-1110.6" font-family="Arial" font-size="14.00" fill="#666666">[INTEGER]</text>
<polygon fill="none" stroke="black" points="242.28,-1067.6 242.28,-1098.4 408.79,-1098.4 408.79,-1067.6 242.28,-1067.6"/>
<text text-anchor="start" x="249.28" y="-1079.8" font-family="Arial" font-size="14.00">parent_id </text>
<text text-anchor="start" x="311.54" y="-1079.8" font-family="Arial" font-size="14.00" fill="#666666">[INTEGER]</text>
<polygon fill="none" stroke="black" points="242.28,-1036.8 242.28,-1067.6 408.79,-1067.6 408.79,-1036.8 242.28,-1036.8"/>
<text text-anchor="start" x="249.28" y="-1049" font-family="Arial" font-size="14.00">is_edited </text>
<text text-anchor="start" x="309.21" y="-1049" font-family="Arial" font-size="14.00" fill="#666666">[BOOLEAN]</text>
<polygon fill="none" stroke="black" points="242.28,-1006 242.28,-1036.8 408.79,-1036.8 408.79,-1006 242.28,-1006"/>
<text text-anchor="start" x="249.28" y="-1018.2" font-family="Arial" font-size="14.00">created_at </text>
<text text-anchor="start" x="319.32" y="-1018.2" font-family="Arial" font-size="14.00" fill="#666666">[DATETIME]</text>
<polygon fill="none" stroke="black" points="242.28,-975.2 242.28,-1006 408.79,-1006 408.79,-975.2 242.28,-975.2"/>
<text text-anchor="start" x="249.28" y="-987.4" font-family="Arial" font-size="14.00">updated_at </text>
<text text-anchor="start" x="323.23" y="-987.4" font-family="Arial" font-size="14.00" fill="#666666">[DATETIME]</text>
</g>
<!-- comments&#45;&gt;users -->
<g id="edge3" class="edge">
<title>comments:author_id&#45;&gt;users:id</title>
<path fill="none" stroke="black" d="M231.62,-1110.54C151.11,-1054.89 148.91,-305 235.44,-305"/>
<polygon fill="black" stroke="black" points="231.48,-1110.5 239.52,-1117.96 236.54,-1112.2 240.64,-1113.59 240.64,-1113.59 240.64,-1113.59 236.54,-1112.2 242.4,-1109.43 231.48,-1110.5"/>
<text text-anchor="start" x="7" y="-1123.8" font-family="Arial" font-size="10.00">FOREIGN KEY (authorId) REFERENCES users(id)</text>
</g>
<!-- comments&#45;&gt;posts -->
<g id="edge2" class="edge">
<title>comments:post_id&#45;&gt;posts:id</title>
<path fill="none" stroke="black" d="M419.75,-1144.05C501.14,-1134.69 460.15,-1007.11 408.79,-932 384.2,-896.03 342.31,-931.89 317.61,-896 293.88,-861.51 274.74,-801.8 316.61,-801.8"/>
<polygon fill="black" stroke="black" points="420.11,-1144.03 409.88,-1140.09 414.78,-1144.33 410.46,-1144.56 410.46,-1144.56 410.46,-1144.56 414.78,-1144.33 410.37,-1149.07 420.11,-1144.03"/>
<text text-anchor="start" x="416.79" y="-1154.6" font-family="Arial" font-size="10.00">FOREIGN KEY (postId) REFERENCES posts(id)</text>
</g>
<!-- comments&#45;&gt;comments -->
<g id="edge4" class="edge">
<title>comments:parent_id&#45;&gt;comments:id</title>
<path fill="none" stroke="black" d="M327,-1108.26C334.5,-1253.86 334.01,-1525.7 325.53,-1525.7 316.87,-1525.7 316.55,-1356.03 324.57,-1221.58"/>
<polygon fill="black" stroke="black" points="327.01,-1108.32 330.96,-1098.1 326.72,-1103 326.49,-1098.67 326.49,-1098.67 326.49,-1098.67 326.72,-1103 321.97,-1098.58 327.01,-1108.32"/>
<text text-anchor="start" x="70.5" y="-1082.01" font-family="Arial" font-size="10.00">FOREIGN KEY (parentId) REFERENCES comments(id)</text>
</g>
</g>
</svg>
